<?xml version="1.0" standalone="no"?>
<!DOCTYPE svg PUBLIC "-//W3C//DTD SVG 1.1//EN" "http://www.w3.org/Graphics/SVG/1.1/DTD/svg11.dtd" >
<svg xmlns="http://www.w3.org/2000/svg" xmlns:xlink="http://www.w3.org/1999/xlink" version="1.1">
<metadata>
Created by FontForge 20170731 at Mon May 31 19:56:04 2021
 By Aleksey,,,
Copyright (c) 1995 ParaGraph Intl., (c) 1998 ParaType Inc., ParaType Ltd. All rights reserved.
</metadata>
<defs>
<font id="FuturaPT-Heavy" horiz-adv-x="1024" >
  <font-face 
    font-family="Futura PT Heavy"
    font-weight="600"
    font-stretch="normal"
    units-per-em="2048"
    panose-1="2 11 8 2 2 2 4 2 3 3"
    ascent="1563"
    descent="-485"
    x-height="913"
    cap-height="1366"
    bbox="-725 -532 2488 1964"
    underline-thickness="102"
    underline-position="-307"
    unicode-range="U+0020-FB02"
  />
<missing-glyph horiz-adv-x="477" 
 />
    <glyph glyph-name="afii10017.var.accented" unicode="&#x410;`" horiz-adv-x="1386" 
d="M1055 0l-103 258h-516l-104 -258h-328l551 1366h289l538 -1366h-327zM528 500h338l-168 458zM807 1894l194 -147l-335 -264l-134 108z" />
    <glyph glyph-name="afii10022.var.accented" unicode="&#x415;`" horiz-adv-x="1028" 
d="M922 1366v-266h-457v-264h434v-267h-434v-303h457v-266h-772v1366h772zM627 1894l194 -147l-336 -264l-133 108z" />
    <glyph glyph-name="afii10026.var.accented" unicode="&#x418;`" horiz-adv-x="1525" 
d="M150 1366h315v-893l633 909h278v-1382h-315v895l-633 -911h-278v1382zM877 1894l194 -147l-336 -264l-133 108z" />
    <glyph glyph-name="afii10032.var.accented" unicode="&#x41e;`" horiz-adv-x="1658" 
d="M831 1397q324 0 529 -199q100 -97 156.5 -229.5t56.5 -286.5q0 -142 -53 -275t-160 -237q-208 -201 -529 -201q-176 0 -309 57.5t-223 143.5q-100 94 -156.5 226.5t-56.5 281.5q0 145 58 284t153 234q84 84 216.5 142.5t317.5 58.5zM829 1106q-182 0 -299 -117
q-120 -116 -120 -309q0 -185 125 -307q118 -113 292 -113q186 0 303 117q119 115 119 305q0 98 -34 177t-85 130q-54 52 -132.5 84.5t-168.5 32.5zM942 1894l195 -147l-336 -264l-133 108z" />
    <glyph glyph-name="afii10037.var.accented" unicode="&#x423;`" horiz-adv-x="1273" 
d="M8 1366h352l287 -631l275 631h340l-625 -1366h-340l199 393zM750 1894l194 -147l-336 -264l-133 108z" />
    <glyph glyph-name="afii10045.var.accented" unicode="&#x42b;`" horiz-adv-x="1734" 
d="M1270 1366h315v-1366h-315v1366zM150 0v1366h315v-532h188q252 0 375 -115q115 -108 115 -303t-111 -301q-52 -49 -128 -76.5t-132 -33t-129 -5.5h-493zM465 580v-326h139q113 0 164 37q59 38 59 127q0 39 -13 70t-24 42.5t-20 16.5q-47 33 -164 33h-141zM981 1894
l195 -147l-336 -264l-133 108z" />
    <glyph glyph-name="afii10047.var.accented" unicode="&#x42d;`" horiz-adv-x="1275" 
d="M102 66v331q71 -64 140 -96q91 -45 219 -45q171 0 268 80q106 86 129 227h-530v254h528q-24 123 -115 203q-99 90 -272 90q-123 0 -225 -51q-67 -31 -142 -96v335q191 99 392 99q314 0 499 -183q197 -193 197 -528q0 -337 -195 -536q-72 -74 -159.5 -116t-161 -53.5
t-166.5 -11.5q-241 0 -406 97zM690 1894l195 -147l-336 -264l-133 108z" />
    <glyph glyph-name="afii10048.var.accented" unicode="&#x42e;`" horiz-adv-x="2166" 
d="M465 844h182q41 214 193 362q109 107 236 149t276 42q322 0 522 -197q207 -203 207 -508q0 -159 -55.5 -294.5t-151.5 -229.5q-199 -199 -524 -199q-319 0 -519 203q-168 170 -188 406h-178v-578h-315v1366h315v-522zM1356 1106q-172 0 -281 -109q-125 -125 -125 -315
q0 -179 111 -299q114 -123 299 -123q159 0 268 102q129 120 129 326q0 186 -115 305q-109 113 -286 113zM1196 1894l195 -147l-336 -264l-133 108z" />
    <glyph glyph-name="afii10049.var.accented" unicode="&#x42f;`" horiz-adv-x="1232" 
d="M1083 1366v-1366h-315v498h-41l-321 -498h-365l393 535q-115 21 -194 96q-115 108 -115 303q0 183 111 299q75 78 169.5 105.5t208.5 27.5h469zM768 739v369h-74q-127 0 -186 -49q-59 -51 -59 -137q0 -82 53 -131q58 -52 192 -52h74zM729 1894l195 -147l-336 -264
l-133 108z" />
    <glyph glyph-name="afii10023.var.accented" unicode="&#x401;`" horiz-adv-x="1028" 
d="M922 1366v-266h-457v-264h434v-267h-434v-303h457v-266h-772v1366h772zM586 1894l137 -110l-289 -273l-88 80zM80 1692q0 59 44 95t89 36q51 0 94 -39t43 -92q0 -57 -43 -95t-94 -38q-52 0 -92.5 37.5t-40.5 95.5zM721 1692q0 53 43 92t94 39q45 0 89 -36t44 -95
q0 -58 -40.5 -95.5t-92.5 -37.5q-51 0 -94 38t-43 95z" />
    <glyph glyph-name="afii10065.var.accented" unicode="&#x430;`" horiz-adv-x="1224" 
d="M815 811v102h295v-913h-295v111q-92 -142 -270 -142q-104 0 -187 32t-155 108q-133 141 -133 342q0 112 38 207.5t103 160.5q125 125 317 125q190 0 287 -133zM602 690q-97 0 -162 -65q-67 -67 -67 -166q0 -98 61 -164q69 -72 174 -72q90 0 154 64q72 68 72 172
q0 103 -68 168q-66 63 -164 63zM737 1464l193 -133l-312 -276l-133 98z" />
    <glyph glyph-name="afii10070.var.accented" unicode="&#x435;`" horiz-adv-x="1120" 
d="M379 582h399q-16 65 -59 106q-54 51 -139 51q-91 0 -150 -59q-40 -44 -51 -98zM1051 436v-30h-682q0 -40 14.5 -83.5t40.5 -72.5q52 -57 151 -57q74 0 119 26q4 2 12.5 9t24.5 25.5t27 41.5l278 -29q-47 -149 -176 -229q-113 -68 -289 -68q-114 0 -202 28.5t-162 102.5
q-137 137 -137 353q0 101 36 196t103 164q131 131 350 131q233 0 363 -137q129 -136 129 -371zM686 1464l193 -133l-312 -276l-133 98z" />
    <glyph glyph-name="afii10074.var.accented" unicode="&#x438;`" horiz-adv-x="1187" 
d="M115 913h295v-522l389 522h274v-913h-295v530l-389 -530h-274v913zM719 1464l192 -133l-311 -276l-133 98z" />
    <glyph glyph-name="afii10080.var.accented" unicode="&#x43e;`" horiz-adv-x="1212" 
d="M1143 457q0 -91 -35 -182t-102 -158q-66 -66 -169.5 -107t-230.5 -41t-230 41t-169 107q-67 67 -102 158t-35 182t35 182t102 158q66 66 169 106.5t230 40.5t230.5 -40.5t169.5 -106.5q67 -67 102 -158t35 -182zM606 694q-101 0 -166 -65q-67 -67 -67 -172t67 -172
q66 -66 168 -66q98 0 164 66q68 68 68 172t-68 172q-65 65 -166 65zM731 1464l193 -133l-312 -276l-133 98z" />
    <glyph glyph-name="afii10085.var.accented" unicode="&#x443;`" horiz-adv-x="1198" 
d="M119 -469l321 586l-436 796h340l258 -495l252 495h332l-735 -1382h-332zM725 1464l193 -133l-312 -276l-133 98z" />
    <glyph glyph-name="afii10093.var.accented" unicode="&#x44b;`" horiz-adv-x="1439" 
d="M1034 913h291v-913h-291v913zM410 600h202q162 0 248 -86q76 -76 76 -209q0 -145 -82 -225q-51 -49 -113.5 -64.5t-138.5 -15.5h-487v913h295v-313zM410 209h120q65 0 91 24q28 25 28 70q0 44 -28 66q-30 22 -89 22h-122v-182zM846 1464l192 -133l-311 -276l-133 98z" />
    <glyph glyph-name="afii10095.var.accented" unicode="&#x44d;`" horiz-adv-x="942" 
d="M78 25v274q102 -92 250 -92q99 0 155 37q61 38 82 116h-348v201h348q-25 71 -90 111q-57 35 -149 35q-136 0 -248 -95v269q141 63 297 63q235 0 366 -131q131 -137 131 -346q0 -120 -38.5 -214.5t-100.5 -156.5q-42 -42 -90.5 -69.5t-100 -39t-90.5 -15t-90 -3.5
q-150 0 -284 56zM526 1464l193 -133l-311 -276l-134 98z" />
    <glyph glyph-name="afii10096.var.accented" unicode="&#x44e;`" horiz-adv-x="1615" 
d="M410 584h114q22 121 111 213q143 147 381 147q242 0 391 -145q63 -62 101 -149.5t38 -190.5t-35.5 -195t-101.5 -158q-82 -82 -177.5 -109.5t-205.5 -27.5q-244 0 -377 127q-20 19 -40.5 44t-49 83t-39.5 123h-110v-346h-295v913h295v-329zM1016 694q-97 0 -158 -57
q-72 -68 -72 -182q0 -99 64 -166q67 -70 166 -70q92 0 155 60q72 69 72 182q0 105 -65 170q-63 63 -162 63zM934 1464l192 -133l-311 -276l-133 98z" />
    <glyph glyph-name="afii10097.var.accented" unicode="&#x44f;`" horiz-adv-x="1007" 
d="M37 0l262 330q-94 16 -158 80q-69 67 -69 184q0 141 84 225q96 94 301 94h436v-913h-295v305h-29l-213 -305h-319zM598 498v207h-104q-62 0 -93 -23q-34 -27 -34 -84q0 -44 28 -72q32 -28 105 -28h98zM629 1464l192 -133l-311 -276l-133 98z" />
    <glyph glyph-name="afii10071.var.accented" unicode="&#x451;`" horiz-adv-x="1120" 
d="M379 582h399q-16 65 -59 106q-54 51 -139 51q-91 0 -150 -59q-40 -44 -51 -98zM1051 436v-30h-682q0 -40 14.5 -83.5t40.5 -72.5q52 -57 151 -57q74 0 119 26q4 2 12.5 9t24.5 25.5t27 41.5l278 -29q-47 -149 -176 -229q-113 -68 -289 -68q-114 0 -202 28.5t-162 102.5
q-137 137 -137 353q0 101 36 196t103 164q131 131 350 131q233 0 363 -137q129 -136 129 -371zM625 1464l143 -102l-297 -283l-98 74zM92 1251q0 64 44 101t95 37q58 0 98 -40.5t40 -97.5q0 -65 -45 -102t-93 -37t-93.5 37t-45.5 102zM756 1251q0 64 44 101t95 37
q58 0 97.5 -40.5t39.5 -97.5q0 -65 -44.5 -102t-92.5 -37t-93.5 37t-45.5 102z" />
    <glyph glyph-name="fi" unicode="fi" horiz-adv-x="1175" 
d="M668 672h-234v-672h-295v672h-106v241h106v144q0 49 2 80t11 81t31.5 95t58.5 84q109 119 344 119q244 0 358 -109q36 -35 59.5 -79.5t33.5 -95.5t13 -89t3 -88v-15h-295v17q0 33 -1.5 53.5t-11.5 52.5t-30 54q-45 45 -117 45q-69 0 -117 -48q-47 -49 -47 -145v-156h234
v-241zM758 913h295v-913h-295v913z" />
    <glyph glyph-name="fl" unicode="fl" horiz-adv-x="1175" 
d="M668 672h-234v-672h-295v672h-106v241h106v164q0 96 20 174.5t83 145.5q115 119 348 119q236 0 352 -109q69 -65 90 -152.5t21 -238.5v-1016h-295v1053q0 117 -43 164q-39 45 -117 45q-69 0 -117 -48q-47 -49 -47 -145v-156h234v-241z" />
    <glyph glyph-name=".notdef" horiz-adv-x="477" 
 />
    <glyph glyph-name=".null" horiz-adv-x="0" 
 />
    <glyph glyph-name="nonmarkingreturn" horiz-adv-x="682" 
 />
    <glyph glyph-name="space" unicode=" " horiz-adv-x="477" 
 />
    <glyph glyph-name="exclam" unicode="!" horiz-adv-x="569" 
d="M436 440h-303v926h303v-926zM98 154q0 78 54.5 132t132.5 54t132 -54t54 -132t-54 -132.5t-132 -54.5t-132.5 54.5t-54.5 132.5z" />
    <glyph glyph-name="quotedbl" unicode="&#x22;" horiz-adv-x="833" 
d="M373 1366l-49 -549h-191l-47 549h287zM748 1366l-48 -549h-190l-49 549h287z" />
    <glyph glyph-name="numbersign" unicode="#" horiz-adv-x="1228" 
d="M965 604h209l-35 -227h-209l-62 -377h-262l62 377h-183l-61 -377h-262l61 377h-207l37 227h205l31 189h-205l35 225h205l57 348h262l-57 -348h182l57 348h262l-57 -348h207l-35 -225h-207zM702 604l31 189h-182l-31 -189h182z" />
    <glyph glyph-name="dollar" unicode="$" horiz-adv-x="1228" 
d="M539 1587h184v-207q168 -11 311 -131l-137 -219q-106 96 -223 96q-87 0 -129 -39q-41 -36 -41 -86q0 -48 39 -79q15 -13 34.5 -23t54 -24t48.5 -21l115 -49q135 -60 192 -117q96 -99 96 -252q0 -186 -112 -305q-97 -103 -248 -127v-233h-184v225q-130 6 -246 67
q-106 56 -184 140l151 225q65 -65 133 -106q90 -56 191 -56q87 0 137 43q49 42 49 105q0 68 -61 110q-12 8 -27.5 16t-26.5 12.5t-41 15.5t-47 18l-71 28q-137 55 -207 125q-92 96 -92 226q0 90 30.5 169t85.5 134q90 90 226 112v207z" />
    <glyph glyph-name="percent" unicode="%" horiz-adv-x="1699" 
d="M379 4l801 1385l143 -31l-803 -1387zM420 1219q-73 0 -117 -48q-45 -45 -45 -118q0 -74 45 -119q43 -47 117 -47t117 47q45 45 45 119q0 73 -45 118q-44 48 -117 48zM778 1053q0 -142 -88 -230q-97 -102 -270 -102t-270 102q-89 89 -89 230q0 140 89 229q97 102 270 102
t270 -102q88 -88 88 -229zM1280 479q-74 0 -117 -47q-45 -45 -45 -119q0 -73 45 -118q44 -48 117 -48t117 48q45 45 45 118q0 74 -45 119q-43 47 -117 47zM1638 313q0 -141 -88 -229q-97 -102 -270 -102t-270 102q-88 88 -88 229q0 142 88 230q97 102 270 102t270 -102
q88 -88 88 -230z" />
    <glyph glyph-name="ampersand" unicode="&#x26;" horiz-adv-x="1523" 
d="M1221 690l178 -174q-85 -110 -182 -197l290 -319h-385l-123 133q-85 -85 -174 -123q-97 -41 -256 -41q-107 0 -191 21t-155 88q-117 112 -117 282q0 163 107 273q83 86 221 127q-66 66 -94 121q-37 70 -37 159q0 150 96 246q115 111 301 111q195 0 306 -111
q94 -94 94 -233q0 -138 -105 -240q-61 -58 -147 -94l199 -219q87 78 174 190zM823 332l-235 264q-75 -38 -111 -80q-47 -52 -47 -123q0 -61 49 -106q51 -45 133 -45q107 0 211 90zM596 1063q0 -46 35 -100q29 -42 78 -91q56 27 96 74q43 50 43 113q0 53 -35 88
q-38 33 -92 33q-52 0 -86 -29q-39 -33 -39 -88z" />
    <glyph glyph-name="quotesingle" unicode="'" horiz-adv-x="458" 
d="M373 1366l-49 -549h-191l-47 549h287z" />
    <glyph glyph-name="parenleft" unicode="(" horiz-adv-x="686" 
d="M373 1516l198 -111q-86 -176 -131 -358q-55 -223 -55 -480q0 -252 55 -475q45 -182 131 -358l-198 -111q-106 193 -162 393q-72 247 -72 551q0 298 72 555q57 202 162 394z" />
    <glyph glyph-name="parenright" unicode=")" horiz-adv-x="686" 
d="M139 1405l199 111q105 -192 162 -394q71 -253 71 -555q0 -307 -71 -551q-56 -200 -162 -393l-199 111q86 176 131 358q56 227 56 475q0 253 -56 480q-45 182 -131 358z" />
    <glyph glyph-name="asterisk" unicode="*" horiz-adv-x="1198" 
d="M301 1350l213 -90l-16 233h202l-18 -233l215 90l64 -191l-228 -53l150 -178l-160 -119l-125 199l-123 -199l-160 119l150 176l-227 53z" />
    <glyph glyph-name="plus" unicode="+" 
d="M68 578v237h315v315h258v-315h315v-237h-315v-318h-258v318h-315z" />
    <glyph glyph-name="comma" unicode="," horiz-adv-x="718" 
d="M49 -262l225 577l269 -14l-310 -571z" />
    <glyph glyph-name="hyphen" unicode="-" horiz-adv-x="729" 
d="M102 389v258h525v-258h-525z" />
    <glyph glyph-name="period" unicode="." horiz-adv-x="569" 
d="M98 154q0 78 54.5 132t132.5 54t132 -54t54 -132t-54 -132.5t-132 -54.5t-132.5 54.5t-54.5 132.5z" />
    <glyph glyph-name="slash" unicode="/" horiz-adv-x="1433" 
d="M31 -377l1079 1911l231 -41l-1079 -1911z" />
    <glyph glyph-name="zero" unicode="0" horiz-adv-x="1228" 
d="M1176 682q0 -179 -49.5 -327t-147.5 -244q-146 -142 -367 -142q-216 0 -362 142q-98 96 -147.5 244t-49.5 327q0 181 49.5 329.5t147.5 243.5q146 142 362 142q221 0 367 -142q98 -95 147.5 -243.5t49.5 -329.5zM614 1126q-73 0 -127 -51q-46 -45 -73.5 -125.5
t-34 -141.5t-6.5 -124q0 -65 7.5 -129.5t35 -142.5t71.5 -121q54 -51 127 -51t127 51q64 63 89.5 174.5t25.5 218.5q0 62 -7 124t-34.5 142t-73.5 125q-54 51 -127 51z" />
    <glyph glyph-name="one" unicode="1" horiz-adv-x="1228" 
d="M473 0v1100h-194v266h509v-1366h-315z" />
    <glyph glyph-name="two" unicode="2" horiz-adv-x="1228" 
d="M1094 266v-266h-1045l410 446q149 166 223 279q82 130 82 231q0 86 -53 136q-41 38 -125 38q-79 0 -125 -49q-27 -29 -42.5 -77.5t-15.5 -90.5h-315q8 94 44.5 186.5t96.5 155.5q134 142 377 142q221 0 355 -129q126 -126 126 -328q0 -87 -25 -158t-77 -143
q-62 -86 -219 -236l-143 -137h471z" />
    <glyph glyph-name="three" unicode="3" horiz-adv-x="1228" 
d="M395 956h-303q9 87 45.5 171t89.5 139q124 129 346 129q238 0 359 -121q104 -100 104 -279q0 -111 -55 -186q-41 -58 -102 -86q100 -35 155 -111q30 -40 47 -99t17 -116q0 -83 -34 -165.5t-103 -145.5q-79 -72 -168 -95.5t-193 -23.5q-118 0 -217 29.5t-182 112.5
q-131 135 -152 337h316q3 -41 20.5 -83.5t44.5 -69.5q55 -55 152 -55q87 0 137 47q55 52 55 139q0 83 -59 131q-54 43 -168 43h-25v217h19q90 0 137 39q51 44 51 123q0 68 -45 110q-45 41 -117 41q-78 0 -123 -45q-45 -48 -49 -127z" />
    <glyph glyph-name="four" unicode="4" horiz-adv-x="1228" 
d="M1010 1366v-858h164v-250h-164v-258h-303v258h-668v180l602 928h369zM371 508h336v530z" />
    <glyph glyph-name="five" unicode="5" horiz-adv-x="1228" 
d="M1010 1366v-266h-461l-37 -182q58 10 113 10q218 0 348 -133q125 -125 125 -330q0 -212 -140 -352q-86 -84 -187.5 -114t-225.5 -30q-120 0 -229.5 30t-225.5 120l72 293q64 -71 131 -113q91 -59 207 -59q125 0 194 55q80 61 80 172q0 99 -69 160q-81 71 -228 71
q-148 0 -278 -71l139 739h672z" />
    <glyph glyph-name="six" unicode="6" horiz-adv-x="1228" 
d="M590 1397l338 -35l-361 -449q67 23 144 23q211 0 338 -131q118 -123 118 -316q0 -103 -32.5 -199.5t-96.5 -166.5q-143 -154 -420 -154q-58 0 -105.5 5t-109.5 19.5t-120.5 49t-106.5 86.5q-119 127 -119 332q0 78 16.5 149.5t50.5 138.5t67 117.5t85 118.5zM608 227
q97 0 164 62q72 68 72 180q0 103 -72 168q-65 57 -164 57q-104 0 -166 -59q-69 -64 -69 -174q0 -106 69 -170q67 -64 166 -64z" />
    <glyph glyph-name="seven" unicode="7" horiz-adv-x="1228" 
d="M102 41l619 1059h-602v266h1085l-809 -1397z" />
    <glyph glyph-name="eight" unicode="8" horiz-adv-x="1228" 
d="M612 -31q-57 0 -95.5 3t-89.5 13.5t-97.5 35t-89.5 63.5q-131 118 -131 297q0 137 92 233q69 72 170 103q-72 29 -125 84q-84 87 -84 217q0 154 100 254q123 125 354 125q228 0 351 -125q100 -100 100 -254q0 -130 -84 -217q-53 -55 -125 -84q101 -31 170 -103
q92 -96 92 -233q0 -179 -131 -297q-81 -73 -168 -94t-209 -21zM614 1163q-70 0 -120 -45q-52 -49 -52 -117t52 -116q52 -45 120 -45q71 0 119 45q51 48 51 116t-51 119q-50 43 -119 43zM610 590q-80 0 -129 -49q-24 -24 -38.5 -61.5t-14.5 -73.5q0 -88 53 -138
q52 -49 133 -49q82 0 134 49q53 50 53 140q0 83 -53 133q-49 49 -138 49z" />
    <glyph glyph-name="nine" unicode="9" horiz-adv-x="1228" 
d="M635 -31l-338 35l360 447q-71 -21 -137 -21q-107 0 -196 34t-148 93q-119 119 -119 330q0 217 133 356q147 154 428 154q261 0 410 -137q59 -55 99 -142.5t40 -204.5q0 -141 -61 -278q-49 -105 -160 -254zM616 1139q-98 0 -163 -62q-72 -67 -72 -172q0 -113 70 -176
q63 -57 165 -57q100 0 166 59q70 66 70 180q0 99 -70 166q-66 62 -166 62z" />
    <glyph glyph-name="colon" unicode=":" horiz-adv-x="569" 
d="M98 156q0 78 54.5 132t132.5 54t132 -54t54 -132t-54 -132.5t-132 -54.5t-132.5 54.5t-54.5 132.5zM98 758q0 78 54.5 132t132.5 54t132 -54t54 -132t-54 -132.5t-132 -54.5t-132.5 54.5t-54.5 132.5z" />
    <glyph glyph-name="semicolon" unicode=";" horiz-adv-x="724" 
d="M8 -262l225 577l269 -14l-309 -571zM172 758q0 78 54 132t132 54t132.5 -54t54.5 -132t-54.5 -132.5t-132.5 -54.5t-132 54.5t-54 132.5z" />
    <glyph glyph-name="less" unicode="&#x3c;" 
d="M68 795l888 448v-254l-616 -305l616 -305v-254l-888 448v222z" />
    <glyph glyph-name="equal" unicode="=" 
d="M68 760v225h888v-225h-888zM68 408v225h888v-225h-888z" />
    <glyph glyph-name="greater" unicode="&#x3e;" 
d="M956 795v-222l-888 -448v254l616 305l-616 305v254z" />
    <glyph glyph-name="question" unicode="?" horiz-adv-x="1075" 
d="M653 438h-299v377q66 -17 142 -6t120 49q62 55 62 141q0 63 -39 105q-37 39 -98 39q-66 0 -105 -39q-17 -18 -27 -51t-8 -64h-315q1 87 33 160.5t80 122.5q120 125 338 125q210 0 337 -123q115 -112 115 -283q0 -151 -102 -260q-93 -102 -234 -121v-172zM326 156
q0 78 54 132t132 54t132 -54t54 -132t-54 -132.5t-132 -54.5t-132 54.5t-54 132.5z" />
    <glyph glyph-name="at" unicode="@" horiz-adv-x="1503" 
d="M958 911l17 86h172l-82 -415q-8 -32 -8 -70q0 -42 18 -57q13 -13 35 -13q31 0 66 31q51 43 79.5 131.5t28.5 163.5q0 94 -32.5 176t-86.5 137q-61 65 -159 104.5t-213 39.5q-120 0 -222.5 -43.5t-173.5 -116.5q-77 -80 -119 -188.5t-42 -217.5q0 -119 47 -228t129 -183
q45 -40 96.5 -67.5t104 -40t97 -17t97.5 -4.5q189 0 369 67l38 -155q-190 -66 -401 -66q-362 0 -555 203q-92 96 -141 229t-49 271q0 313 206 512q204 198 521 198q293 0 471 -176q170 -167 170 -422q0 -118 -39.5 -223.5t-108.5 -171.5q-84 -82 -190 -82q-66 0 -111 39
q-34 28 -47 76q-84 -131 -250 -131q-126 0 -205 82q-86 88 -86 239q0 187 113 305q100 105 244 105q47 0 85.5 -12t62 -32t35.5 -34.5t19 -28.5zM733 461q64 0 111 47q33 33 51 81t18 95q0 83 -45 125q-33 31 -88 31q-67 0 -114 -47q-34 -33 -53 -81t-19 -96q0 -75 43 -118
q37 -37 96 -37z" />
    <glyph glyph-name="A" unicode="A" horiz-adv-x="1386" 
d="M1055 0l-103 258h-516l-104 -258h-328l551 1366h289l538 -1366h-327zM528 500h338l-168 458z" />
    <glyph glyph-name="B" unicode="B" horiz-adv-x="1216" 
d="M150 1366h417q238 0 348 -104q99 -94 99 -258q0 -103 -45 -175q-43 -69 -115 -100q113 -17 188 -92q88 -88 88 -244q0 -170 -106 -276q-121 -117 -360 -117h-514v1366zM461 1120v-309h51q107 0 160 39q55 38 55 121q0 76 -53 114q-21 16 -52 24.5t-52 9.5t-60 1h-49z
M461 578v-332h76q52 0 85.5 2t77.5 15t70 38q45 42 45 115q0 71 -43 110q-56 52 -225 52h-86z" />
    <glyph glyph-name="C" unicode="C" horiz-adv-x="1239" 
d="M1137 406v-363q-147 -74 -301 -74q-334 0 -537 199q-97 94 -155 227.5t-58 290.5q0 155 58 287.5t155 226.5q95 92 225.5 144.5t284.5 52.5q151 0 328 -76v-365q-138 146 -320 146q-168 0 -278 -107q-129 -126 -129 -315q0 -187 118 -301q16 -16 36.5 -31t57.5 -36.5
t89.5 -34.5t111.5 -13q170 0 314 142z" />
    <glyph glyph-name="D" unicode="D" horiz-adv-x="1402" 
d="M150 1366h432q103 0 184 -12t178 -55.5t176 -120.5q197 -190 197 -490q0 -296 -187 -483q-203 -205 -538 -205h-442v1366zM465 1100v-834h84q202 0 311 92q59 49 96 135t37 195q0 183 -112 295q-117 117 -332 117h-84z" />
    <glyph glyph-name="E" unicode="E" horiz-adv-x="1028" 
d="M922 1366v-266h-457v-264h434v-267h-434v-303h457v-266h-772v1366h772z" />
    <glyph glyph-name="F" unicode="F" horiz-adv-x="989" 
d="M907 1366v-266h-442v-264h409v-267h-409v-569h-315v1366h757z" />
    <glyph glyph-name="G" unicode="G" horiz-adv-x="1570" 
d="M807 492v253h678v-14q0 -142 -53 -304t-158 -271q-104 -108 -224.5 -147.5t-263.5 -39.5q-146 0 -268 39.5t-231 151.5q-201 206 -201 520q0 161 53 293.5t144 224.5q60 62 130 104t142.5 61.5t133 26.5t130.5 7q227 0 383 -103q66 -44 124 -109t97 -134l-284 -154
q-47 93 -121 147q-89 66 -209 66q-178 0 -283 -111q-116 -122 -116 -323q0 -200 114 -314q103 -106 277 -106q152 0 237 74q11 9 25 23.5t38 54t36 84.5h-330z" />
    <glyph glyph-name="H" unicode="H" horiz-adv-x="1474" 
d="M465 1366v-520h545v520h315v-1366h-315v580h-545v-580h-315v1366h315z" />
    <glyph glyph-name="I" unicode="I" horiz-adv-x="626" 
d="M156 1366h315v-1366h-315v1366z" />
    <glyph glyph-name="J" unicode="J" horiz-adv-x="849" 
d="M385 1366h315v-930q0 -50 -3 -86.5t-13.5 -89.5t-36 -101t-65.5 -87q-103 -103 -289 -103q-135 0 -217 49q-72 45 -129 115l196 221q23 -48 50 -75q31 -31 77 -31t74 28q41 41 41 162v928z" />
    <glyph glyph-name="K" unicode="K" horiz-adv-x="1372" 
d="M465 1366v-569l467 569h385l-553 -647l596 -719h-406l-489 606v-606h-315v1366h315z" />
    <glyph glyph-name="L" unicode="L" horiz-adv-x="917" 
d="M150 1366h315v-1100h424v-266h-739v1366z" />
    <glyph glyph-name="M" unicode="M" horiz-adv-x="1814" 
d="M401 0h-315l219 1366h262l340 -817l340 817h262l220 -1366h-316l-108 815l-342 -815h-111l-342 815z" />
    <glyph glyph-name="N" unicode="N" horiz-adv-x="1630" 
d="M465 0h-315v1366h274l741 -881v881h316v-1366h-275l-741 885v-885z" />
    <glyph glyph-name="O" unicode="O" horiz-adv-x="1658" 
d="M831 1397q324 0 529 -199q100 -97 156.5 -229.5t56.5 -286.5q0 -142 -53 -275t-160 -237q-208 -201 -529 -201q-176 0 -309 57.5t-223 143.5q-100 94 -156.5 226.5t-56.5 281.5q0 145 58 284t153 234q84 84 216.5 142.5t317.5 58.5zM829 1106q-182 0 -299 -117
q-120 -116 -120 -309q0 -185 125 -307q118 -113 292 -113q186 0 303 117q119 115 119 305q0 98 -34 177t-85 130q-54 52 -132.5 84.5t-168.5 32.5z" />
    <glyph glyph-name="P" unicode="P" horiz-adv-x="1171" 
d="M150 1366h481q230 0 358 -113q133 -116 133 -331q0 -201 -116 -322q-119 -121 -349 -121h-192v-479h-315v1366zM465 1108v-371h113q117 0 170 51q51 51 51 136t-51 133q-53 51 -177 51h-106z" />
    <glyph glyph-name="Q" unicode="Q" horiz-adv-x="1665" 
d="M1319 -63l-133 139q-148 -107 -383 -107q-158 0 -279.5 48t-222.5 147q-112 111 -163.5 245.5t-51.5 274.5q0 148 57 281.5t150 226.5q94 94 229.5 149.5t304.5 55.5q156 0 293 -52.5t236 -144.5q98 -92 155.5 -225t57.5 -295q0 -135 -58 -264q-48 -110 -133 -185
l238 -258zM1042 569l123 -131q80 110 80 246q0 184 -117 301q-58 59 -136.5 90t-164.5 31q-91 0 -168.5 -33.5t-130.5 -87.5q-57 -58 -87.5 -141t-30.5 -166q0 -177 114 -297q118 -121 295 -121q90 0 164 35l-246 242z" />
    <glyph glyph-name="R" unicode="R" horiz-adv-x="1243" 
d="M150 1366h479q219 0 348 -119q119 -115 119 -305q0 -173 -107 -278q-83 -80 -190 -105l420 -559h-385l-369 539v-539h-315v1366zM465 1120v-375h72q128 0 188 60q51 51 51 133q0 92 -63 139q-56 43 -174 43h-74z" />
    <glyph glyph-name="S" unicode="S" horiz-adv-x="1126" 
d="M995 1262l-141 -230q-109 98 -229 98q-91 0 -133 -47q-35 -35 -35 -86q0 -48 30 -75q10 -9 21 -16t28.5 -15t30.5 -13t42.5 -16t49.5 -18l103 -39q129 -50 186 -105q101 -96 101 -254q0 -103 -32.5 -191.5t-88.5 -145.5q-133 -140 -387 -140q-155 0 -271 58
q-102 51 -200 149l163 225q66 -66 127 -104q79 -49 172 -49q90 0 144 47q49 42 49 111q0 57 -47 98q-39 32 -160 76l-112 38q-41 15 -67.5 26.5t-62.5 33.5t-61 49q-82 87 -82 238q0 185 119 307q122 125 338 125q223 0 405 -135z" />
    <glyph glyph-name="T" unicode="T" horiz-adv-x="942" 
d="M926 1100h-297v-1100h-316v1100h-297v266h910v-266z" />
    <glyph glyph-name="U" unicode="U" horiz-adv-x="1454" 
d="M1305 1366v-809q0 -124 -30.5 -231t-121.5 -201q-89 -92 -193.5 -124t-232.5 -32t-232.5 32t-193.5 124q-48 50 -80 106t-46.5 114.5t-19.5 106t-5 105.5v809h315v-801q0 -155 72 -229q67 -72 190 -72q124 0 191 72q71 73 71 229v801h316z" />
    <glyph glyph-name="V" unicode="V" horiz-adv-x="1388" 
d="M8 1366h340l346 -874l346 874h340l-579 -1366h-213z" />
    <glyph glyph-name="W" unicode="W" horiz-adv-x="2052" 
d="M8 1366h328l291 -905l291 905h217l290 -905l291 905h328l-465 -1366h-266l-287 829l-287 -829h-266z" />
    <glyph glyph-name="X" unicode="X" horiz-adv-x="1404" 
d="M20 0l502 725l-424 641h379l225 -389l226 389h379l-424 -641l501 -725h-378l-304 473l-303 -473h-379z" />
    <glyph glyph-name="Y" unicode="Y" horiz-adv-x="1294" 
d="M489 0v637l-489 729h373l274 -424l275 424h372l-489 -729v-637h-316z" />
    <glyph glyph-name="Z" unicode="Z" horiz-adv-x="1261" 
d="M1217 1366l-654 -1100h586v-266h-1104l655 1100h-548v266h1065z" />
    <glyph glyph-name="bracketleft" unicode="[" horiz-adv-x="724" 
d="M623 1292h-189v-1468h189v-201h-439v1870h439v-201z" />
    <glyph glyph-name="backslash" unicode="\" horiz-adv-x="1433" 
d="M1403 -377l-232 -41l-1079 1911l232 41z" />
    <glyph glyph-name="bracketright" unicode="]" horiz-adv-x="724" 
d="M102 1292v201h439v-1870h-439v201h189v1468h-189z" />
    <glyph glyph-name="asciicircum" unicode="^" 
d="M510 1167l-227 -485h-271l330 684h338l330 -684h-271z" />
    <glyph glyph-name="underscore" unicode="_" 
d="M0 -377v242h1024v-242h-1024z" />
    <glyph glyph-name="grave" unicode="`" 
d="M492 1055l-312 276l195 133l250 -311z" />
    <glyph glyph-name="a" unicode="a" horiz-adv-x="1224" 
d="M815 811v102h295v-913h-295v111q-92 -142 -270 -142q-104 0 -187 32t-155 108q-133 141 -133 342q0 112 38 207.5t103 160.5q125 125 317 125q190 0 287 -133zM602 690q-97 0 -162 -65q-67 -67 -67 -166q0 -98 61 -164q69 -72 174 -72q90 0 154 64q72 68 72 172
q0 103 -68 168q-66 63 -164 63z" />
    <glyph glyph-name="b" unicode="b" horiz-adv-x="1232" 
d="M123 1493h295v-682q98 133 284 133q92 0 174.5 -32.5t143.5 -90.5q143 -137 143 -360q0 -107 -36.5 -202t-106.5 -165q-122 -125 -313 -125q-192 0 -289 142v-111h-295v1493zM631 690q-102 0 -166 -67q-66 -70 -66 -168q0 -100 68 -164q34 -33 79.5 -50.5t88.5 -17.5
q86 0 153 64q72 69 72 168q0 105 -72 174q-64 61 -157 61z" />
    <glyph glyph-name="c" unicode="c" horiz-adv-x="882" 
d="M801 893v-268q-84 69 -193 69q-103 0 -168 -65q-67 -67 -67 -172q0 -100 61 -164q68 -74 178 -74q103 0 189 72v-266q-102 -56 -234 -56q-214 0 -354 137q-143 139 -143 349q0 216 151 360q137 129 348 129q124 0 232 -51z" />
    <glyph glyph-name="d" unicode="d" horiz-adv-x="1232" 
d="M1110 1493v-1493h-295v111q-97 -142 -289 -142q-191 0 -313 125q-70 70 -106.5 165t-36.5 202q0 223 143 360q129 123 317 123q187 0 285 -133v682h295zM602 690q-94 0 -158 -61q-71 -68 -71 -174q0 -100 71 -168q67 -64 154 -64q43 0 88.5 17.5t79.5 50.5q68 64 68 164
q0 98 -66 168q-64 67 -166 67z" />
    <glyph glyph-name="e" unicode="e" horiz-adv-x="1120" 
d="M379 582h399q-16 65 -59 106q-54 51 -139 51q-91 0 -150 -59q-40 -44 -51 -98zM1051 436v-30h-682q0 -40 14.5 -83.5t40.5 -72.5q52 -57 151 -57q74 0 119 26q4 2 12.5 9t24.5 25.5t27 41.5l278 -29q-47 -149 -176 -229q-113 -68 -289 -68q-114 0 -202 28.5t-162 102.5
q-137 137 -137 353q0 101 36 196t103 164q131 131 350 131q233 0 363 -137q129 -136 129 -371z" />
    <glyph glyph-name="f" unicode="f" horiz-adv-x="667" 
d="M668 676h-234v-676h-295v676h-106v237h106v181q0 95 20.5 173t82.5 144q98 105 256 105q84 0 168 -31v-258q-58 35 -113 35q-58 0 -86 -37q-33 -43 -33 -158v-154h234v-237z" />
    <glyph glyph-name="g" unicode="g" horiz-adv-x="1218" 
d="M809 807v106h295v-858q0 -125 -21 -218.5t-92 -170.5q-126 -135 -385 -135q-244 0 -381 117q-112 96 -137 241h322q15 -58 65 -90q46 -30 127 -30q94 0 148 49q59 57 59 190v105q-85 -138 -272 -138q-205 0 -334 129q-133 137 -133 345q0 112 37 206.5t98 157.5
q126 131 332 131q180 0 272 -137zM604 688q-100 0 -162 -59q-32 -31 -50.5 -78.5t-18.5 -91.5q0 -98 63 -164t166 -66q96 0 160 60q72 69 72 174q0 102 -70 168q-63 57 -160 57z" />
    <glyph glyph-name="h" unicode="h" horiz-adv-x="1169" 
d="M123 0v1493h295v-688q53 65 110 94q72 39 179 39q168 0 258 -92q90 -90 90 -266v-580h-295v469q0 41 -2 67t-13.5 60t-33.5 55q-41 41 -115 41q-72 0 -117 -45q-61 -59 -61 -190v-457h-295z" />
    <glyph glyph-name="i" unicode="i" horiz-adv-x="565" 
d="M135 913h295v-913h-295v913zM111 1303q0 72 50 122t122 50t122 -50t50 -122t-50 -122.5t-122 -50.5t-122 50.5t-50 122.5z" />
    <glyph glyph-name="j" unicode="j" horiz-adv-x="565" 
d="M135 913h295v-1382h-295v1382zM111 1303q0 72 50 122t122 50t122 -50t50 -122t-50 -122.5t-122 -50.5t-122 50.5t-50 122.5z" />
    <glyph glyph-name="k" unicode="k" horiz-adv-x="1159" 
d="M123 1493h295v-915l332 335h387l-435 -413l465 -500h-397l-352 393v-393h-295v1493z" />
    <glyph glyph-name="l" unicode="l" horiz-adv-x="540" 
d="M123 1493h295v-1493h-295v1493z" />
    <glyph glyph-name="m" unicode="m" horiz-adv-x="1726" 
d="M115 0v913h295v-106q85 129 256 129q104 0 172 -41q71 -41 110 -127q44 72 117 117q82 51 195 51q167 0 256 -86q94 -90 94 -272v-578h-295v463q0 129 -39 178q-40 49 -107 49q-72 0 -114 -55q-45 -57 -45 -180v-455h-295v475q0 39 -2 64.5t-13 59t-32 54.5
q-37 37 -99 37t-102 -37q-57 -55 -57 -186v-467h-295z" />
    <glyph glyph-name="n" unicode="n" horiz-adv-x="1161" 
d="M115 0v913h295v-108q104 133 282 133q170 0 262 -92q93 -93 93 -268v-578h-295v469q0 132 -50 182q-41 41 -112 41q-78 0 -123 -49q-57 -57 -57 -174v-469h-295z" />
    <glyph glyph-name="o" unicode="o" horiz-adv-x="1212" 
d="M1143 457q0 -91 -35 -182t-102 -158q-66 -66 -169.5 -107t-230.5 -41t-230 41t-169 107q-67 67 -102 158t-35 182t35 182t102 158q66 66 169 106.5t230 40.5t230.5 -40.5t169.5 -106.5q67 -67 102 -158t35 -182zM606 694q-101 0 -166 -65q-67 -67 -67 -172t67 -172
q66 -66 168 -66q98 0 164 66q68 68 68 172t-68 172q-65 65 -166 65z" />
    <glyph glyph-name="p" unicode="p" horiz-adv-x="1224" 
d="M410 104v-573h-295v1382h295v-108q107 139 284 139q195 0 324 -129q64 -64 100.5 -155.5t36.5 -200.5q0 -222 -145 -367q-123 -123 -310 -123q-193 0 -290 135zM623 690q-97 0 -164 -67q-34 -34 -52 -79.5t-18 -88.5q0 -93 66 -162q70 -70 168 -70q90 0 157 64
q34 33 53 80.5t19 93.5q0 99 -70 166q-66 63 -159 63z" />
    <glyph glyph-name="q" unicode="q" horiz-adv-x="1224" 
d="M815 -469v573q-107 -135 -291 -135q-94 0 -168 28t-141 95q-145 145 -145 367q0 212 137 356q126 129 319 129q180 0 289 -139v108h295v-1382h-295zM602 690q-94 0 -160 -63q-69 -66 -69 -166q0 -46 18.5 -93.5t52.5 -80.5q67 -64 158 -64q98 0 168 70q66 69 66 162
q0 43 -18 88.5t-52 79.5q-67 67 -164 67z" />
    <glyph glyph-name="r" unicode="r" horiz-adv-x="786" 
d="M115 0v913h295v-143q45 84 114 127q62 39 158 39q50 0 96 -14l-16 -277q-64 33 -133 33q-89 0 -148 -62q-44 -47 -57.5 -107.5t-13.5 -137.5v-371h-295z" />
    <glyph glyph-name="s" unicode="s" horiz-adv-x="888" 
d="M791 866l-117 -186q-85 51 -162 51q-58 0 -84 -26q-18 -18 -18 -41q0 -25 28 -41q9 -5 21 -9.5t35 -11.5t32 -10l78 -25q98 -31 152 -80q71 -66 71 -174q0 -145 -94 -239q-105 -105 -297 -105q-225 0 -375 131l125 199q55 -47 101 -68q57 -28 123 -28q65 0 92 20
q30 23 30 60q0 34 -32 53q-25 15 -90 33l-74 22q-92 28 -148 84q-65 68 -65 166q0 130 88 211q99 92 276 92q170 0 304 -78z" />
    <glyph glyph-name="t" unicode="t" horiz-adv-x="612" 
d="M600 676h-182v-676h-295v676h-103v237h103v295h295v-295h182v-237z" />
    <glyph glyph-name="u" unicode="u" horiz-adv-x="1167" 
d="M115 913h295v-503q0 -101 51 -148q48 -43 123 -43q79 0 125 43q49 47 49 148v503h295v-532q0 -93 -20 -162.5t-83 -130.5q-121 -119 -366 -119q-248 0 -369 119q-58 57 -79 123t-21 151v551z" />
    <glyph glyph-name="v" unicode="v" horiz-adv-x="1118" 
d="M4 913h324l231 -489l232 489h323l-463 -913h-184z" />
    <glyph glyph-name="w" unicode="w" horiz-adv-x="1744" 
d="M872 520l-229 -520h-184l-455 913h324l235 -485l232 498h155l232 -498l235 485h324l-455 -913h-184z" />
    <glyph glyph-name="x" unicode="x" horiz-adv-x="1269" 
d="M4 0l447 498l-363 415h377l170 -211l170 211h377l-363 -415l447 -498h-381l-250 295l-250 -295h-381z" />
    <glyph glyph-name="y" unicode="y" horiz-adv-x="1198" 
d="M119 -469l321 586l-436 796h340l258 -495l252 495h332l-735 -1382h-332z" />
    <glyph glyph-name="z" unicode="z" horiz-adv-x="1021" 
d="M997 913l-473 -667h432v-246h-931l475 668h-404v245h901z" />
    <glyph glyph-name="braceleft" unicode="{" horiz-adv-x="1032" 
d="M496 557q65 -25 94 -86q28 -58 28 -172v-328q0 -67 25 -92q14 -14 39 -20.5t45.5 -7.5t60.5 -1h39v-223q-70 -4 -149 -4t-135.5 12.5t-102.5 53.5q-35 32 -52 74.5t-19 71t-2 83.5v387q0 80 -35 115q-32 32 -78 35v217q46 3 78 35q35 35 35 114v377q0 55 2 83.5t19 71
t52 74.5q46 41 102.5 53.5t135.5 12.5t149 -4v-223h-39q-40 0 -60.5 -1t-45.5 -7.5t-39 -20.5q-25 -25 -25 -92v-330q0 -114 -28 -172q-29 -61 -94 -86z" />
    <glyph glyph-name="bar" unicode="|" horiz-adv-x="1032" 
d="M387 -512v2048h258v-2048h-258z" />
    <glyph glyph-name="braceright" unicode="}" horiz-adv-x="1032" 
d="M414 -29v328q0 114 28 172q29 60 95 86q-66 26 -95 86q-28 58 -28 172v330q0 67 -25 92q-14 14 -39 20.5t-45.5 7.5t-60.5 1h-39v223q70 4 149 4t135.5 -12.5t102.5 -53.5q35 -32 52 -74t19.5 -71.5t2.5 -83.5v-377q0 -80 34 -114q32 -32 78 -35v-217q-46 -3 -78 -35
q-34 -34 -34 -115v-387q0 -54 -2.5 -83.5t-19.5 -71.5t-52 -74q-46 -41 -102.5 -53.5t-135.5 -12.5t-149 4v223h39q40 0 60.5 1t45.5 7.5t39 20.5q25 25 25 92z" />
    <glyph glyph-name="asciitilde" unicode="~" 
d="M520 461l-74 28q-5 2 -26 10.5t-31 11.5t-31 7t-43 4q-63 0 -100 -37t-57 -88l-146 88l11 23q63 139 114 190q74 74 185 74q71 0 178 -41l78 -29q84 -32 139 -32q58 0 98 37q36 36 49 69l148 -86l-8 -16q-57 -112 -109 -166q-44 -47 -89.5 -67.5t-107.5 -20.5
q-73 0 -178 41z" />
    <glyph glyph-name="uni00A0" unicode="&#xa0;" horiz-adv-x="477" 
 />
    <glyph glyph-name="exclamdown" unicode="&#xa1;" horiz-adv-x="569" 
d="M436 455v-926h-303v926h303zM98 741q0 78 54.5 132.5t132.5 54.5t132 -54.5t54 -132.5t-54 -132t-132 -54t-132.5 54t-54.5 132z" />
    <glyph glyph-name="cent" unicode="&#xa2;" horiz-adv-x="1228" 
d="M633 1352h184v-193q71 -6 129 -39v-272q-72 78 -176 78q-44 0 -89.5 -17.5t-78.5 -48.5q-70 -67 -70 -176q0 -110 70 -176q30 -27 75 -42t89 -15q112 0 180 75v-274q-67 -30 -129 -35v-190h-184v182q-155 20 -266 129q-138 135 -138 336q0 218 142 360q105 105 262 133
v185z" />
    <glyph glyph-name="sterling" unicode="&#xa3;" horiz-adv-x="1228" 
d="M326 508h-230v188h140q-62 106 -62 234q0 197 129 323q145 142 385 142q117 0 209 -33t150 -90q61 -59 94 -149t33 -189q0 -25 -3 -49h-313q0 141 -51 194q-54 54 -133 54q-78 0 -129 -48q-66 -62 -66 -163q0 -86 68 -226h305v-188h-256q16 -58 16 -96q0 -51 -20 -121
l119 -39q112 -37 170 -37q53 0 80 29q22 22 30 69l201 -24q-8 -63 -35 -129t-65 -107q-80 -84 -211 -84q-95 0 -236 47l-80 27q-89 29 -155 29q-68 0 -101 -27q-27 -20 -39 -55l-213 18q14 59 44 118.5t67 96.5q72 72 170 88q16 54 16 95q0 55 -28 102z" />
    <glyph glyph-name="currency" unicode="&#xa4;" horiz-adv-x="1366" 
d="M182 137l-139 139l211 211q-90 116 -90 283q0 159 92 283l-213 213l139 139l213 -211q120 90 287 90q171 0 285 -90l211 211l139 -139l-209 -211q92 -114 92 -285q0 -175 -90 -283l211 -211l-139 -139l-211 211q-115 -92 -289 -92q-177 0 -289 90zM682 485q121 0 199 78
q82 82 82 207t-80 205t-201 80q-125 0 -201 -80q-80 -80 -80 -205q0 -120 78 -201q78 -84 203 -84z" />
    <glyph glyph-name="yen" unicode="&#xa5;" horiz-adv-x="1228" 
d="M414 711h-287v198h168l-275 457h357l239 -434l234 434h360l-282 -457h176v-198h-299l-47 -72v-57h346v-199h-346v-383h-299v383h-332v199h332v57z" />
    <glyph glyph-name="brokenbar" unicode="&#xa6;" horiz-adv-x="1032" 
d="M387 748v788h258v-788h-258zM387 -512v791h258v-791h-258z" />
    <glyph glyph-name="section" unicode="&#xa7;" horiz-adv-x="1175" 
d="M985 1116h-266q0 34 -10.5 68.5t-28.5 52.5q-37 37 -96 37q-53 0 -88 -31t-35 -80q0 -64 63 -108q21 -15 44.5 -27t66 -30.5t55.5 -24.5l64 -29q124 -56 182 -119q90 -94 90 -233q0 -128 -68 -223q-61 -85 -155 -123q77 -39 121 -103q49 -70 49 -161q0 -160 -103 -258
q-103 -101 -276 -101q-193 0 -301 115q-48 52 -78 126t-33 154h267q0 -77 36 -122q35 -48 103 -48q57 0 90 33q41 38 41 105q0 56 -43 96q-8 7 -16 13t-20.5 12t-19.5 10t-25 11t-25.5 10t-32 12t-33.5 12q-92 33 -153.5 63.5t-104.5 75.5q-96 98 -96 264q0 123 57 203
q56 81 160 121q-72 38 -113 94q-53 69 -53 170q0 144 90 238q100 102 284 102q201 0 299 -102q44 -46 74.5 -123t36.5 -152zM590 729q-72 0 -117 -45t-45 -117q0 -73 45 -118q46 -46 117 -46q66 0 112 46t46 118q0 71 -46 117q-45 45 -112 45z" />
    <glyph glyph-name="dieresis" unicode="&#xa8;" 
d="M573 1227q0 66 48 114t114 48t114 -48t48 -114t-48 -114t-114 -48t-114 48t-48 114zM127 1227q0 66 48 114t114 48t114 -48t48 -114t-48 -114t-114 -48t-114 48t-48 114z" />
    <glyph glyph-name="copyright" unicode="&#xa9;" horiz-adv-x="1560" 
d="M1038 1061v-250q-90 102 -209 102q-99 0 -163 -61q-32 -31 -49 -78t-17 -94q0 -100 57 -160q66 -69 174 -69q112 0 207 100v-246q-116 -51 -227 -51q-205 0 -322 121q-54 55 -86 134t-32 169q0 184 121 305q123 127 327 127q115 0 219 -49zM780 1270q-99 0 -207 -43.5
t-184 -116.5q-78 -76 -127 -190.5t-49 -235.5q0 -122 49 -237.5t127 -190.5q76 -73 184 -116.5t207 -43.5t207 43.5t184 116.5q78 75 127.5 190.5t49.5 237.5q0 120 -49.5 235t-127.5 191q-76 73 -184 116.5t-207 43.5zM1491 682q0 -145 -55 -277t-156 -233
q-95 -94 -223 -148.5t-277 -54.5t-276 54.5t-223 148.5q-101 101 -156 233t-55 277q0 148 55 279.5t156 232.5q96 94 223 148.5t276 54.5t277 -54.5t223 -148.5q101 -101 156 -232.5t55 -279.5z" />
    <glyph glyph-name="ordfeminine" unicode="&#xaa;" horiz-adv-x="720" 
d="M483 1288v62h172v-541h-172v65q-56 -83 -168 -83q-115 0 -186 71q-84 79 -84 217q0 134 84 215q76 72 184 72q109 0 170 -78zM66 596v135h589v-135h-589zM356 1214q-60 0 -100 -43q-35 -38 -35 -96q0 -57 35 -92q41 -41 100 -41q60 0 101 41q35 38 35 92q0 64 -35 99
q-40 40 -101 40z" />
    <glyph glyph-name="guillemotleft" unicode="&#xab;" horiz-adv-x="1093" 
d="M324 459l241 -326l-166 -117l-317 443l317 440l162 -113zM750 459l241 -326l-166 -117l-317 443l317 440l162 -113z" />
    <glyph glyph-name="logicalnot" unicode="&#xac;" 
d="M958 0h-258v305h-634v242h892v-547z" />
    <glyph glyph-name="uni00AD" unicode="&#xad;" horiz-adv-x="729" 
d="M102 389v258h525v-258h-525z" />
    <glyph glyph-name="registered" unicode="&#xae;" horiz-adv-x="1558" 
d="M465 1083h291q168 0 245 -79q64 -67 64 -168q0 -94 -59 -156q-46 -49 -111 -62l219 -311h-272l-156 262v-262h-221v776zM686 920v-181h31q61 0 92 19q39 24 39 76q0 44 -29 65q-30 21 -104 21h-29zM778 1270q-99 0 -207 -43.5t-184 -116.5q-78 -76 -127 -190.5
t-49 -235.5q0 -122 49 -237.5t127 -190.5q76 -73 184 -116.5t207 -43.5t207 43.5t184 116.5q78 75 127.5 190.5t49.5 237.5q0 120 -49.5 235t-127.5 191q-76 73 -184 116.5t-207 43.5zM1489 682q0 -145 -55 -277t-156 -233q-95 -94 -223 -148.5t-277 -54.5t-276 54.5
t-223 148.5q-101 101 -156 233t-55 277q0 148 55 279.5t156 232.5q96 94 223 148.5t276 54.5t277 -54.5t223 -148.5q101 -101 156 -232.5t55 -279.5z" />
    <glyph glyph-name="macron" unicode="&#xaf;" 
d="M123 1112v184h778v-184h-778z" />
    <glyph glyph-name="degree" unicode="&#xb0;" horiz-adv-x="1028" 
d="M358 1055q0 -62 46 -107t110 -45t110 45t46 107t-46 106.5t-110 44.5t-110 -44.5t-46 -106.5zM199 1055q0 131 91 221t224 90t224 -90t91 -221t-91 -221.5t-224 -90.5t-224 90.5t-91 221.5z" />
    <glyph glyph-name="plusminus" unicode="&#xb1;" 
d="M68 729v238h315v317h258v-317h315v-238h-315v-317h-258v317h-315zM68 104v238h888v-238h-888z" />
    <glyph glyph-name="twosuperior" unicode="&#xb2;" horiz-adv-x="808" 
d="M59 563l215 244q17 19 40 45.5t34 39t26.5 30.5t23 27.5t16.5 21t14.5 19.5t9.5 16q33 53 33 112q0 46 -27 80q-26 29 -75 29q-48 0 -74 -37q-24 -34 -27 -86h-192q5 58 28 115t60 94q78 78 219 78q138 0 219 -78q74 -71 74 -189q0 -97 -49 -176q-8 -13 -17.5 -26
t-16.5 -22t-19.5 -22.5t-18 -19l-21 -21l-20.5 -20.5l-98 -94h268v-160h-625z" />
    <glyph glyph-name="threesuperior" unicode="&#xb3;" horiz-adv-x="808" 
d="M61 813h193q3 -52 37 -82q29 -29 84 -29q50 0 84 27q35 28 35 80q0 48 -35 74q-6 5 -13 9t-13 6.5t-14.5 4t-13.5 2.5t-15 1.5t-13 0.5h-13.5h-11.5h-22v144h20q56 0 84 20q33 26 33 74q0 42 -31 69q-28 21 -65 21q-43 0 -72 -29q-25 -28 -25 -69h-192q13 108 78 176
q73 78 213 78q146 0 221 -68q65 -60 65 -160q0 -66 -26 -106q-27 -41 -66 -62q46 -19 74 -47q57 -57 57 -145q0 -112 -73 -185q-48 -48 -104 -63.5t-124 -15.5q-161 0 -245 82q-80 76 -91 192z" />
    <glyph glyph-name="acute" unicode="&#xb4;" 
d="M649 1464l193 -133l-312 -276l-133 98z" />
    <glyph glyph-name="mu" unicode="&#xb5;" horiz-adv-x="1159" 
d="M459 -469h-289v1382h295v-440q0 -187 72 -248q37 -32 98 -32t98 32q72 61 72 248v440h295v-913h-289v119q-24 -67 -63 -103q-41 -36 -113 -36t-113 36q-43 37 -63 103v-588z" />
    <glyph glyph-name="mu" unicode="&#x3bc;" horiz-adv-x="1159" 
d="M459 -469h-289v1382h295v-440q0 -187 72 -248q37 -32 98 -32t98 32q72 61 72 248v440h295v-913h-289v119q-24 -67 -63 -103q-41 -36 -113 -36t-113 36q-43 37 -63 103v-588z" />
    <glyph glyph-name="paragraph" unicode="&#xb6;" horiz-adv-x="1349" 
d="M664 -193h-222v850h-16q-183 0 -283 105q-90 92 -90 244q0 156 101 254q65 64 148 85t222 21h678v-201h-147v-1358h-221v1358h-170v-1358z" />
    <glyph glyph-name="periodcentered" unicode="&#xb7;" horiz-adv-x="524" 
d="M41 684q0 94 63.5 157.5t157.5 63.5t157.5 -63.5t63.5 -157.5t-63.5 -157.5t-157.5 -63.5t-157.5 63.5t-63.5 157.5z" />
    <glyph glyph-name="cedilla" unicode="&#xb8;" 
d="M541 -94l192 -90l-241 -299l-152 82z" />
    <glyph glyph-name="onesuperior" unicode="&#xb9;" horiz-adv-x="808" 
d="M334 563v643h-137v160h325v-803h-188z" />
    <glyph glyph-name="ordmasculine" unicode="&#xba;" horiz-adv-x="708" 
d="M59 596v135h590v-135h-590zM354 1214q-65 0 -100 -40t-35 -97q0 -59 35 -94q41 -41 100 -41q63 0 101 41q34 39 34 94q0 58 -34 97q-35 40 -101 40zM666 1079q0 -117 -80 -200q-88 -88 -232 -88q-143 0 -231 88q-80 83 -80 200q0 119 80 199q88 88 231 88q144 0 232 -88
q80 -80 80 -199z" />
    <glyph glyph-name="guillemotright" unicode="&#xbb;" horiz-adv-x="1093" 
d="M344 459l-238 327l162 113l318 -440l-318 -443l-166 117zM770 459l-238 327l162 113l318 -440l-318 -443l-166 117z" />
    <glyph glyph-name="onequarter" unicode="&#xbc;" horiz-adv-x="1761" 
d="M1503 819v-512h94v-151h-94v-156h-180v156h-393v102l356 561h217zM1130 307h193v303zM313 547v659h-137v160h326v-819h-189zM354 20l799 1369l139 -48l-798 -1370z" />
    <glyph glyph-name="onehalf" unicode="&#xbd;" horiz-adv-x="1761" 
d="M291 563v643h-135v160h323v-803h-188zM332 20l798 1369l140 -48l-799 -1370zM1004 0l213 244q21 24 53.5 60.5t47.5 53.5t32.5 40.5t29.5 43.5q33 53 33 113q0 46 -27 80q-29 29 -69 29q-52 0 -78 -37q-25 -35 -29 -86h-192q5 58 28 115t60 94q80 77 213 77
q141 0 223 -75q76 -70 76 -191q0 -97 -53 -180q-18 -29 -39.5 -55t-30.5 -34.5t-39 -37.5l-98 -94h268v-160h-622z" />
    <glyph glyph-name="threequarters" unicode="&#xbe;" horiz-adv-x="1759" 
d="M57 817h193q3 -52 37 -82q28 -28 84 -28q58 0 84 26q34 31 34 78q0 54 -34 78q-32 24 -107 24h-22v144h20q56 0 84 20q33 26 33 74q0 43 -31 70q-27 20 -65 20q-43 0 -72 -29q-25 -28 -25 -69h-184q13 108 78 176q73 78 213 78q138 0 213 -68q65 -60 65 -160
q0 -66 -26 -106q-27 -41 -66 -62q46 -19 74 -47q57 -57 57 -149q0 -109 -73 -182q-80 -80 -228 -80q-162 0 -246 82q-79 75 -90 192zM455 20l798 1369l140 -48l-799 -1370zM1231 307h192v303zM1604 819v-512h94v-151h-94v-156h-181v156h-393v102l356 561h218z" />
    <glyph glyph-name="questiondown" unicode="&#xbf;" horiz-adv-x="1075" 
d="M422 463h299v-377q-48 10 -88 10q-112 0 -174 -53q-62 -55 -62 -141q0 -63 39 -105q37 -39 99 -39q65 0 104 39q35 38 35 115h315q-1 -88 -33 -161t-79 -122q-120 -125 -338 -125q-211 0 -338 123q-115 112 -115 283q0 151 102 260q93 102 234 121v172zM750 741
q0 -78 -54.5 -132t-132.5 -54t-132 54t-54 132t54 132.5t132 54.5t132.5 -54.5t54.5 -132.5z" />
    <glyph glyph-name="Agrave" unicode="&#xc0;" horiz-adv-x="1386" 
d="M1055 0l-103 258h-516l-104 -258h-328l551 1366h289l538 -1366h-327zM528 500h338l-168 458zM725 1483l-336 264l197 147l272 -303z" />
    <glyph glyph-name="Aacute" unicode="&#xc1;" horiz-adv-x="1386" 
d="M1055 0l-103 258h-516l-104 -258h-328l551 1366h289l538 -1366h-327zM528 500h338l-168 458zM807 1894l194 -147l-335 -264l-134 108z" />
    <glyph glyph-name="Acircumflex" unicode="&#xc2;" horiz-adv-x="1386" 
d="M1055 0l-103 258h-516l-104 -258h-328l551 1366h289l538 -1366h-327zM528 500h338l-168 458zM438 1487l-131 145l385 287l387 -287l-135 -145l-252 190z" />
    <glyph glyph-name="Atilde" unicode="&#xc3;" horiz-adv-x="1386" 
d="M1055 0l-103 258h-516l-104 -258h-328l551 1366h289l538 -1366h-327zM528 500h338l-168 458zM950 1776l146 -103q-34 -67 -86 -119q-63 -63 -146 -63q-44 0 -127 33l-84 32q-63 23 -75 23q-63 0 -95 -80l-145 103q34 75 76 120q59 62 149 62q51 0 123 -29l82 -33
q4 -1 22.5 -9t32.5 -11.5t29 -3.5q66 0 98 78z" />
    <glyph glyph-name="Adieresis" unicode="&#xc4;" horiz-adv-x="1386" 
d="M1055 0l-103 258h-516l-104 -258h-328l551 1366h289l538 -1366h-327zM528 500h338l-168 458zM307 1661q0 66 48 114t114 48t114 -48t48 -114t-48 -114t-114 -48t-114 48t-48 114zM754 1661q0 66 47.5 114t113.5 48t114 -48t48 -114t-48 -114t-114 -48t-113.5 48
t-47.5 114z" />
    <glyph glyph-name="Aring" unicode="&#xc5;" horiz-adv-x="1386" 
d="M1055 0l-103 258h-516l-104 -258h-328l551 1366h289l538 -1366h-327zM528 500h338l-168 458zM930 1694q0 -79 -56 -135q-69 -66 -182 -66t-182 66q-55 55 -55 135t55 135q68 65 182 65t182 -65q56 -56 56 -135zM692 1774q-44 0 -69 -25t-25 -55q0 -31 25 -56
q24 -24 69 -24q46 0 70 24t24 56q0 31 -24 55q-25 25 -70 25z" />
    <glyph glyph-name="AE" unicode="&#xc6;" horiz-adv-x="1884" 
d="M1069 0l-104 264h-523l-102 -264h-328l559 1366h777l98 -266h-475l104 -264h471l103 -267h-473l120 -303h476l100 -266h-803zM535 506h344l-168 448z" />
    <glyph glyph-name="Ccedilla" unicode="&#xc7;" horiz-adv-x="1239" 
d="M1137 406v-363q-147 -74 -301 -74q-334 0 -537 199q-97 94 -155 227.5t-58 290.5q0 155 58 287.5t155 226.5q95 92 225.5 144.5t284.5 52.5q151 0 328 -76v-365q-138 146 -320 146q-168 0 -278 -107q-129 -126 -129 -315q0 -187 118 -301q16 -16 36.5 -31t57.5 -36.5
t89.5 -34.5t111.5 -13q170 0 314 142zM788 -94l205 -90l-229 -299l-164 82z" />
    <glyph glyph-name="Egrave" unicode="&#xc8;" horiz-adv-x="1028" 
d="M922 1366v-266h-457v-264h434v-267h-434v-303h457v-266h-772v1366h772zM584 1483l-336 264l196 147l273 -303z" />
    <glyph glyph-name="Eacute" unicode="&#xc9;" horiz-adv-x="1028" 
d="M922 1366v-266h-457v-264h434v-267h-434v-303h457v-266h-772v1366h772zM666 1894l194 -147l-336 -264l-133 108z" />
    <glyph glyph-name="Ecircumflex" unicode="&#xca;" horiz-adv-x="1028" 
d="M922 1366v-266h-457v-264h434v-267h-434v-303h457v-266h-772v1366h772zM266 1487l-131 145l385 287l387 -287l-135 -145l-252 190z" />
    <glyph glyph-name="Edieresis" unicode="&#xcb;" horiz-adv-x="1028" 
d="M922 1366v-266h-457v-264h434v-267h-434v-303h457v-266h-772v1366h772zM137 1661q0 66 48 114t114 48t114 -48t48 -114t-48 -114t-114 -48t-114 48t-48 114zM584 1661q0 66 47.5 114t113.5 48t114 -48t48 -114t-48 -114t-114 -48t-113.5 48t-47.5 114z" />
    <glyph glyph-name="Igrave" unicode="&#xcc;" horiz-adv-x="626" 
d="M156 1366h315v-1366h-315v1366zM346 1483l-336 264l197 147l272 -303z" />
    <glyph glyph-name="Iacute" unicode="&#xcd;" horiz-adv-x="626" 
d="M156 1366h315v-1366h-315v1366zM428 1894l195 -147l-336 -264l-133 108z" />
    <glyph glyph-name="Icircumflex" unicode="&#xce;" horiz-adv-x="626" 
d="M156 1366h315v-1366h-315v1366zM59 1487l-131 145l385 287l387 -287l-135 -145l-252 190z" />
    <glyph glyph-name="Idieresis" unicode="&#xcf;" horiz-adv-x="626" 
d="M156 1366h315v-1366h-315v1366zM-72 1661q0 66 48 114t114 48t114 -48t48 -114t-48 -114t-114 -48t-114 48t-48 114zM375 1661q0 66 48 114t114 48t113.5 -48t47.5 -114t-47.5 -114t-113.5 -48t-114 48t-48 114z" />
    <glyph glyph-name="Eth" unicode="&#xd0;" horiz-adv-x="1458" 
d="M205 846v520h432q76 0 138.5 -7t133.5 -26t139 -58t128 -97q196 -190 196 -490q0 -297 -186 -483q-203 -205 -539 -205h-442v621h-185v225h185zM520 1100v-254h246v-225h-246v-355h84q202 0 311 92q59 49 96.5 135t37.5 195q0 182 -113 295q-117 117 -332 117h-84z" />
    <glyph glyph-name="Ntilde" unicode="&#xd1;" horiz-adv-x="1630" 
d="M465 0h-315v1366h274l741 -881v881h316v-1366h-275l-741 885v-885zM1063 1776l145 -103q-34 -67 -86 -119q-63 -63 -145 -63q-45 0 -127 33l-84 32q-63 23 -76 23q-62 0 -94 -80l-145 103q35 77 75 120q59 62 150 62q50 0 123 -29l82 -33q4 -1 22.5 -9t32.5 -11.5
t29 -3.5q66 0 98 78z" />
    <glyph glyph-name="Ograve" unicode="&#xd2;" horiz-adv-x="1658" 
d="M831 1397q324 0 529 -199q100 -97 156.5 -229.5t56.5 -286.5q0 -142 -53 -275t-160 -237q-208 -201 -529 -201q-176 0 -309 57.5t-223 143.5q-100 94 -156.5 226.5t-56.5 281.5q0 145 58 284t153 234q84 84 216.5 142.5t317.5 58.5zM829 1106q-182 0 -299 -117
q-120 -116 -120 -309q0 -185 125 -307q118 -113 292 -113q186 0 303 117q119 115 119 305q0 98 -34 177t-85 130q-54 52 -132.5 84.5t-168.5 32.5zM860 1483l-336 264l197 147l272 -303z" />
    <glyph glyph-name="Oacute" unicode="&#xd3;" horiz-adv-x="1658" 
d="M831 1397q324 0 529 -199q100 -97 156.5 -229.5t56.5 -286.5q0 -142 -53 -275t-160 -237q-208 -201 -529 -201q-176 0 -309 57.5t-223 143.5q-100 94 -156.5 226.5t-56.5 281.5q0 145 58 284t153 234q84 84 216.5 142.5t317.5 58.5zM829 1106q-182 0 -299 -117
q-120 -116 -120 -309q0 -185 125 -307q118 -113 292 -113q186 0 303 117q119 115 119 305q0 98 -34 177t-85 130q-54 52 -132.5 84.5t-168.5 32.5zM942 1894l195 -147l-336 -264l-133 108z" />
    <glyph glyph-name="Ocircumflex" unicode="&#xd4;" horiz-adv-x="1658" 
d="M831 1397q324 0 529 -199q100 -97 156.5 -229.5t56.5 -286.5q0 -142 -53 -275t-160 -237q-208 -201 -529 -201q-176 0 -309 57.5t-223 143.5q-100 94 -156.5 226.5t-56.5 281.5q0 145 58 284t153 234q84 84 216.5 142.5t317.5 58.5zM829 1106q-182 0 -299 -117
q-120 -116 -120 -309q0 -185 125 -307q118 -113 292 -113q186 0 303 117q119 115 119 305q0 98 -34 177t-85 130q-54 52 -132.5 84.5t-168.5 32.5zM575 1487l-131 145l385 287l388 -287l-136 -145l-252 190z" />
    <glyph glyph-name="Otilde" unicode="&#xd5;" horiz-adv-x="1658" 
d="M831 1397q324 0 529 -199q100 -97 156.5 -229.5t56.5 -286.5q0 -142 -53 -275t-160 -237q-208 -201 -529 -201q-176 0 -309 57.5t-223 143.5q-100 94 -156.5 226.5t-56.5 281.5q0 145 58 284t153 234q84 84 216.5 142.5t317.5 58.5zM829 1106q-182 0 -299 -117
q-120 -116 -120 -309q0 -185 125 -307q118 -113 292 -113q186 0 303 117q119 115 119 305q0 98 -34 177t-85 130q-54 52 -132.5 84.5t-168.5 32.5zM1063 1776l145 -103q-34 -67 -86 -119q-63 -63 -145 -63q-45 0 -127 33l-84 32q-63 23 -76 23q-62 0 -94 -80l-145 103
q35 77 75 120q59 62 150 62q50 0 123 -29l82 -33q4 -1 22.5 -9t32.5 -11.5t29 -3.5q66 0 98 78z" />
    <glyph glyph-name="Odieresis" unicode="&#xd6;" horiz-adv-x="1658" 
d="M831 1397q324 0 529 -199q100 -97 156.5 -229.5t56.5 -286.5q0 -142 -53 -275t-160 -237q-208 -201 -529 -201q-176 0 -309 57.5t-223 143.5q-100 94 -156.5 226.5t-56.5 281.5q0 145 58 284t153 234q84 84 216.5 142.5t317.5 58.5zM829 1106q-182 0 -299 -117
q-120 -116 -120 -309q0 -185 125 -307q118 -113 292 -113q186 0 303 117q119 115 119 305q0 98 -34 177t-85 130q-54 52 -132.5 84.5t-168.5 32.5zM444 1661q0 66 48 114t114 48t114 -48t48 -114t-48 -114t-114 -48t-114 48t-48 114zM891 1661q0 66 48 114t114 48t113.5 -48
t47.5 -114t-47.5 -114t-113.5 -48t-114 48t-48 114z" />
    <glyph glyph-name="multiply" unicode="&#xd7;" 
d="M96 446l242 242l-242 244l178 178l242 -244l242 244l172 -172l-242 -242l242 -243l-178 -179l-242 244l-244 -242z" />
    <glyph glyph-name="Oslash" unicode="&#xd8;" horiz-adv-x="1683" 
d="M61 72l181 178q-144 183 -144 420q0 152 58 291.5t153 234.5q201 201 535 201q123 0 225.5 -27t202.5 -92l180 180l170 -164l-178 -178q141 -190 141 -428q0 -160 -57.5 -291.5t-155.5 -226.5q-208 -201 -528 -201q-240 0 -430 121l-183 -182zM469 477l580 580
q-100 49 -207 49q-182 0 -299 -117q-121 -121 -121 -313q0 -110 47 -199zM1214 889l-581 -580q96 -49 207 -49q186 0 303 117q119 116 119 317q0 107 -48 195z" />
    <glyph glyph-name="Ugrave" unicode="&#xd9;" horiz-adv-x="1454" 
d="M1305 1366v-809q0 -124 -30.5 -231t-121.5 -201q-89 -92 -193.5 -124t-232.5 -32t-232.5 32t-193.5 124q-48 50 -80 106t-46.5 114.5t-19.5 106t-5 105.5v809h315v-801q0 -155 72 -229q67 -72 190 -72q124 0 191 72q71 73 71 229v801h316zM758 1483l-336 264l196 147
l273 -303z" />
    <glyph glyph-name="Uacute" unicode="&#xda;" horiz-adv-x="1454" 
d="M1305 1366v-809q0 -124 -30.5 -231t-121.5 -201q-89 -92 -193.5 -124t-232.5 -32t-232.5 32t-193.5 124q-48 50 -80 106t-46.5 114.5t-19.5 106t-5 105.5v809h315v-801q0 -155 72 -229q67 -72 190 -72q124 0 191 72q71 73 71 229v801h316zM840 1894l194 -147l-336 -264
l-133 108z" />
    <glyph glyph-name="Ucircumflex" unicode="&#xdb;" horiz-adv-x="1454" 
d="M1305 1366v-809q0 -124 -30.5 -231t-121.5 -201q-89 -92 -193.5 -124t-232.5 -32t-232.5 32t-193.5 124q-48 50 -80 106t-46.5 114.5t-19.5 106t-5 105.5v809h315v-801q0 -155 72 -229q67 -72 190 -72q124 0 191 72q71 73 71 229v801h316zM473 1487l-131 145l385 287
l387 -287l-135 -145l-252 190z" />
    <glyph glyph-name="Udieresis" unicode="&#xdc;" horiz-adv-x="1454" 
d="M1305 1366v-809q0 -124 -30.5 -231t-121.5 -201q-89 -92 -193.5 -124t-232.5 -32t-232.5 32t-193.5 124q-48 50 -80 106t-46.5 114.5t-19.5 106t-5 105.5v809h315v-801q0 -155 72 -229q67 -72 190 -72q124 0 191 72q71 73 71 229v801h316zM342 1661q0 66 48 114t114 48
t114 -48t48 -114t-48 -114t-114 -48t-114 48t-48 114zM788 1661q0 66 48 114t114 48t114 -48t48 -114t-48 -114t-114 -48t-114 48t-48 114z" />
    <glyph glyph-name="Yacute" unicode="&#xdd;" horiz-adv-x="1294" 
d="M489 0v637l-489 729h373l274 -424l275 424h372l-489 -729v-637h-316zM780 1894l195 -147l-336 -264l-133 108z" />
    <glyph glyph-name="Thorn" unicode="&#xde;" horiz-adv-x="1171" 
d="M150 1366h315v-188h162q234 0 362 -113q133 -116 133 -326q0 -211 -116 -327q-121 -121 -353 -121h-188v-291h-315v1366zM465 920v-371h108q122 0 175 51q51 51 51 135q0 85 -51 133q-54 52 -181 52h-102z" />
    <glyph glyph-name="germandbls" unicode="&#xdf;" horiz-adv-x="1198" 
d="M418 0h-295v1044q0 103 23 191t90 158q118 123 337 123t338 -115q109 -105 109 -279q0 -110 -55 -192q-44 -63 -113 -94q125 -40 199 -138q77 -104 77 -256q0 -91 -34.5 -182t-100.5 -156q-46 -45 -102.5 -74t-119 -40.5t-107 -15t-105.5 -3.5h-12v254q52 0 109 15.5
t92 46.5q30 27 49.5 72t19.5 94q0 98 -61 159q-37 37 -94.5 56.5t-114.5 19.5v250q95 0 143 43q51 44 51 123q0 70 -43 113q-45 45 -116 45q-70 0 -117 -50q-47 -51 -47 -168v-1044z" />
    <glyph glyph-name="agrave" unicode="&#xe0;" horiz-adv-x="1224" 
d="M815 811v102h295v-913h-295v111q-92 -142 -270 -142q-104 0 -187 32t-155 108q-133 141 -133 342q0 112 38 207.5t103 160.5q125 125 317 125q190 0 287 -133zM602 690q-97 0 -162 -65q-67 -67 -67 -166q0 -98 61 -164q69 -72 174 -72q90 0 154 64q72 68 72 172
q0 103 -68 168q-66 63 -164 63zM645 1055l-311 276l194 133l250 -311z" />
    <glyph glyph-name="aacute" unicode="&#xe1;" horiz-adv-x="1224" 
d="M815 811v102h295v-913h-295v111q-92 -142 -270 -142q-104 0 -187 32t-155 108q-133 141 -133 342q0 112 38 207.5t103 160.5q125 125 317 125q190 0 287 -133zM602 690q-97 0 -162 -65q-67 -67 -67 -166q0 -98 61 -164q69 -72 174 -72q90 0 154 64q72 68 72 172
q0 103 -68 168q-66 63 -164 63zM711 1464l192 -133l-311 -276l-133 98z" />
    <glyph glyph-name="acircumflex" unicode="&#xe2;" horiz-adv-x="1224" 
d="M815 811v102h295v-913h-295v111q-92 -142 -270 -142q-104 0 -187 32t-155 108q-133 141 -133 342q0 112 38 207.5t103 160.5q125 125 317 125q190 0 287 -133zM602 690q-97 0 -162 -65q-67 -67 -67 -166q0 -98 61 -164q69 -72 174 -72q90 0 154 64q72 68 72 172
q0 103 -68 168q-66 63 -164 63zM612 1249l-243 -194l-131 141l374 291l377 -291l-135 -141z" />
    <glyph glyph-name="atilde" unicode="&#xe3;" horiz-adv-x="1224" 
d="M815 811v102h295v-913h-295v111q-92 -142 -270 -142q-104 0 -187 32t-155 108q-133 141 -133 342q0 112 38 207.5t103 160.5q125 125 317 125q190 0 287 -133zM602 690q-97 0 -162 -65q-67 -67 -67 -166q0 -98 61 -164q69 -72 174 -72q90 0 154 64q72 68 72 172
q0 103 -68 168q-66 63 -164 63zM827 1346l136 -91q-12 -31 -35 -68.5t-45 -60.5q-61 -61 -144 -61q-40 0 -121 29l-71 26q-71 27 -101 27q-60 0 -88 -76l-133 90q23 79 70 129q56 62 145 62q56 0 127 -27l70 -27q73 -28 108 -28q36 0 56 24t26 52z" />
    <glyph glyph-name="adieresis" unicode="&#xe4;" horiz-adv-x="1224" 
d="M815 811v102h295v-913h-295v111q-92 -142 -270 -142q-104 0 -187 32t-155 108q-133 141 -133 342q0 112 38 207.5t103 160.5q125 125 317 125q190 0 287 -133zM602 690q-97 0 -162 -65q-67 -67 -67 -166q0 -98 61 -164q69 -72 174 -72q90 0 154 64q72 68 72 172
q0 103 -68 168q-66 63 -164 63zM674 1227q0 66 48 114t114 48t113.5 -48t47.5 -114t-47.5 -114t-113.5 -48t-114 48t-48 114zM227 1227q0 66 48 114t114 48t114 -48t48 -114t-48 -114t-114 -48t-114 48t-48 114z" />
    <glyph glyph-name="aring" unicode="&#xe5;" horiz-adv-x="1224" 
d="M815 811v102h295v-913h-295v111q-92 -142 -270 -142q-104 0 -187 32t-155 108q-133 141 -133 342q0 112 38 207.5t103 160.5q125 125 317 125q190 0 287 -133zM602 690q-97 0 -162 -65q-67 -67 -67 -166q0 -98 61 -164q69 -72 174 -72q90 0 154 64q72 68 72 172
q0 103 -68 168q-66 63 -164 63zM846 1257q0 -78 -55 -133q-67 -63 -179 -63q-111 0 -178 63q-55 55 -55 133q0 79 55 134q67 63 178 63q112 0 179 -63q55 -55 55 -134zM612 1331q-39 0 -63 -18q-27 -23 -27 -56q0 -32 27 -55q24 -18 63 -18q40 0 64 18q26 22 26 55
q0 34 -26 56q-24 18 -64 18z" />
    <glyph glyph-name="ae" unicode="&#xe6;" horiz-adv-x="1720" 
d="M1364 295l276 -19q-50 -153 -178 -237q-108 -70 -278 -70q-141 0 -223 41q-68 33 -132 109q-59 -79 -153 -117q-84 -33 -219 -33q-206 0 -307 101q-80 80 -80 204q0 116 75 191q106 106 322 106q125 0 215 -55v19q0 38 -14.5 74.5t-38.5 60.5q-57 57 -178 57
q-103 0 -236 -45v225q129 37 268 37q94 0 163.5 -22t107.5 -55t67 -81q47 62 116 99.5t123.5 48t110.5 10.5q228 0 357 -139q123 -134 123 -371v-28h-668q3 -97 61 -158q53 -58 150 -58q64 0 104 25q47 28 66 80zM506 391q-91 0 -135 -47q-27 -27 -27 -63q0 -34 27 -64
q47 -47 133 -47q96 0 143 47q27 27 27 64q0 33 -27 63q-47 47 -141 47zM991 582h383q-12 67 -59 110q-52 47 -131 47q-82 0 -127 -43q-47 -42 -66 -114z" />
    <glyph glyph-name="ccedilla" unicode="&#xe7;" horiz-adv-x="882" 
d="M801 893v-268q-84 69 -193 69q-103 0 -168 -65q-67 -67 -67 -172q0 -100 61 -164q68 -74 178 -74q103 0 189 72v-266q-102 -56 -234 -56q-214 0 -354 137q-143 139 -143 349q0 216 151 360q137 129 348 129q124 0 232 -51zM522 -94l193 -90l-242 -299l-151 82z" />
    <glyph glyph-name="egrave" unicode="&#xe8;" horiz-adv-x="1120" 
d="M379 582h399q-16 65 -59 106q-54 51 -139 51q-91 0 -150 -59q-40 -44 -51 -98zM1051 436v-30h-682q0 -40 14.5 -83.5t40.5 -72.5q52 -57 151 -57q74 0 119 26q4 2 12.5 9t24.5 25.5t27 41.5l278 -29q-47 -149 -176 -229q-113 -68 -289 -68q-114 0 -202 28.5t-162 102.5
q-137 137 -137 353q0 101 36 196t103 164q131 131 350 131q233 0 363 -137q129 -136 129 -371zM625 1055l-312 276l195 133l250 -311z" />
    <glyph glyph-name="eacute" unicode="&#xe9;" horiz-adv-x="1120" 
d="M379 582h399q-16 65 -59 106q-54 51 -139 51q-91 0 -150 -59q-40 -44 -51 -98zM1051 436v-30h-682q0 -40 14.5 -83.5t40.5 -72.5q52 -57 151 -57q74 0 119 26q4 2 12.5 9t24.5 25.5t27 41.5l278 -29q-47 -149 -176 -229q-113 -68 -289 -68q-114 0 -202 28.5t-162 102.5
q-137 137 -137 353q0 101 36 196t103 164q131 131 350 131q233 0 363 -137q129 -136 129 -371zM670 1464l192 -133l-311 -276l-133 98z" />
    <glyph glyph-name="ecircumflex" unicode="&#xea;" horiz-adv-x="1120" 
d="M379 582h399q-16 65 -59 106q-54 51 -139 51q-91 0 -150 -59q-40 -44 -51 -98zM1051 436v-30h-682q0 -40 14.5 -83.5t40.5 -72.5q52 -57 151 -57q74 0 119 26q4 2 12.5 9t24.5 25.5t27 41.5l278 -29q-47 -149 -176 -229q-113 -68 -289 -68q-114 0 -202 28.5t-162 102.5
q-137 137 -137 353q0 101 36 196t103 164q131 131 350 131q233 0 363 -137q129 -136 129 -371zM559 1249l-244 -194l-131 141l375 291l377 -291l-135 -141z" />
    <glyph glyph-name="edieresis" unicode="&#xeb;" horiz-adv-x="1120" 
d="M379 582h399q-16 65 -59 106q-54 51 -139 51q-91 0 -150 -59q-40 -44 -51 -98zM1051 436v-30h-682q0 -40 14.5 -83.5t40.5 -72.5q52 -57 151 -57q74 0 119 26q4 2 12.5 9t24.5 25.5t27 41.5l278 -29q-47 -149 -176 -229q-113 -68 -289 -68q-114 0 -202 28.5t-162 102.5
q-137 137 -137 353q0 101 36 196t103 164q131 131 350 131q233 0 363 -137q129 -136 129 -371zM621 1227q0 66 47.5 114t113.5 48t114 -48t48 -114t-48 -114t-114 -48t-113.5 48t-47.5 114zM174 1227q0 66 48 114t114 48t114 -48t48 -114t-48 -114t-114 -48t-114 48t-48 114
z" />
    <glyph glyph-name="igrave" unicode="&#xec;" horiz-adv-x="565" 
d="M135 913h295v-913h-295v913zM285 1055l-273 276l197 133l209 -311z" />
    <glyph glyph-name="iacute" unicode="&#xed;" horiz-adv-x="565" 
d="M135 913h295v-913h-295v913zM358 1464l193 -133l-270 -276l-134 98z" />
    <glyph glyph-name="icircumflex" unicode="&#xee;" horiz-adv-x="565" 
d="M135 913h295v-913h-295v913zM283 1233l-193 -178l-133 141l326 291l325 -291l-135 -141z" />
    <glyph glyph-name="idieresis" unicode="&#xef;" horiz-adv-x="565" 
d="M135 913h295v-913h-295v913zM330 1227q0 74 45 118t100 44q60 0 103 -48t43 -114t-43 -114t-103 -48q-55 0 -100 44t-45 118zM-55 1227q0 66 42.5 114t102.5 48q55 0 100.5 -44t45.5 -118t-45.5 -118t-100.5 -44q-60 0 -102.5 48t-42.5 114z" />
    <glyph glyph-name="eth" unicode="&#xf0;" horiz-adv-x="1187" 
d="M145 1221l74 196q168 -4 277 -33.5t194 -74.5l309 123l72 -148l-223 -88q128 -106 192 -262q66 -160 66 -354q0 -318 -164 -480q-133 -131 -356 -131q-225 0 -369 135q-147 140 -147 353q0 99 33.5 180.5t86.5 136.5q126 133 347 133q89 0 151 -22.5t119 -73.5
q-18 101 -76 172q-52 65 -129 109l-403 -174l-66 141l293 123q-131 42 -281 39zM586 670q-90 0 -150 -60q-63 -63 -63 -166q0 -102 63 -165q60 -60 150 -60q89 0 149 60q64 64 64 165q0 102 -64 166q-60 60 -149 60z" />
    <glyph glyph-name="ntilde" unicode="&#xf1;" horiz-adv-x="1161" 
d="M115 0v913h295v-108q104 133 282 133q170 0 262 -92q93 -93 93 -268v-578h-295v469q0 132 -50 182q-41 41 -112 41q-78 0 -123 -49q-57 -57 -57 -174v-469h-295zM827 1346l136 -91q-12 -31 -35 -68.5t-45 -60.5q-61 -61 -144 -61q-40 0 -121 29l-71 26q-71 27 -101 27
q-60 0 -88 -76l-133 90q23 79 70 129q56 62 145 62q56 0 127 -27l70 -27q73 -28 108 -28q36 0 56 24t26 52z" />
    <glyph glyph-name="ograve" unicode="&#xf2;" horiz-adv-x="1212" 
d="M1143 457q0 -91 -35 -182t-102 -158q-66 -66 -169.5 -107t-230.5 -41t-230 41t-169 107q-67 67 -102 158t-35 182t35 182t102 158q66 66 169 106.5t230 40.5t230.5 -40.5t169.5 -106.5q67 -67 102 -158t35 -182zM606 694q-101 0 -166 -65q-67 -67 -67 -172t67 -172
q66 -66 168 -66q98 0 164 66q68 68 68 172t-68 172q-65 65 -166 65zM573 1055l-311 276l195 133l250 -311z" />
    <glyph glyph-name="oacute" unicode="&#xf3;" horiz-adv-x="1212" 
d="M1143 457q0 -91 -35 -182t-102 -158q-66 -66 -169.5 -107t-230.5 -41t-230 41t-169 107q-67 67 -102 158t-35 182t35 182t102 158q66 66 169 106.5t230 40.5t230.5 -40.5t169.5 -106.5q67 -67 102 -158t35 -182zM606 694q-101 0 -166 -65q-67 -67 -67 -172t67 -172
q66 -66 168 -66q98 0 164 66q68 68 68 172t-68 172q-65 65 -166 65zM711 1464l192 -133l-311 -276l-133 98z" />
    <glyph glyph-name="ocircumflex" unicode="&#xf4;" horiz-adv-x="1212" 
d="M1143 457q0 -91 -35 -182t-102 -158q-66 -66 -169.5 -107t-230.5 -41t-230 41t-169 107q-67 67 -102 158t-35 182t35 182t102 158q66 66 169 106.5t230 40.5t230.5 -40.5t169.5 -106.5q67 -67 102 -158t35 -182zM606 694q-101 0 -166 -65q-67 -67 -67 -172t67 -172
q66 -66 168 -66q98 0 164 66q68 68 68 172t-68 172q-65 65 -166 65zM606 1249l-244 -194l-131 141l375 291l377 -291l-135 -141z" />
    <glyph glyph-name="otilde" unicode="&#xf5;" horiz-adv-x="1212" 
d="M1143 457q0 -91 -35 -182t-102 -158q-66 -66 -169.5 -107t-230.5 -41t-230 41t-169 107q-67 67 -102 158t-35 182t35 182t102 158q66 66 169 106.5t230 40.5t230.5 -40.5t169.5 -106.5q67 -67 102 -158t35 -182zM606 694q-101 0 -166 -65q-67 -67 -67 -172t67 -172
q66 -66 168 -66q98 0 164 66q68 68 68 172t-68 172q-65 65 -166 65zM844 1346l135 -91q-12 -31 -35 -68.5t-45 -60.5q-61 -61 -143 -61q-40 0 -121 29l-72 26q-70 27 -100 27q-60 0 -88 -76l-133 90q24 81 69 129q56 62 146 62q56 0 127 -27l69 -27q73 -28 109 -28t56 24
t26 52z" />
    <glyph glyph-name="odieresis" unicode="&#xf6;" horiz-adv-x="1212" 
d="M1143 457q0 -91 -35 -182t-102 -158q-66 -66 -169.5 -107t-230.5 -41t-230 41t-169 107q-67 67 -102 158t-35 182t35 182t102 158q66 66 169 106.5t230 40.5t230.5 -40.5t169.5 -106.5q67 -67 102 -158t35 -182zM606 694q-101 0 -166 -65q-67 -67 -67 -172t67 -172
q66 -66 168 -66q98 0 164 66q68 68 68 172t-68 172q-65 65 -166 65zM668 1227q0 66 47.5 114t113.5 48t114 -48t48 -114t-48 -114t-114 -48t-113.5 48t-47.5 114zM221 1227q0 66 48 114t114 48t114 -48t48 -114t-48 -114t-114 -48t-114 48t-48 114z" />
    <glyph glyph-name="divide" unicode="&#xf7;" 
d="M68 578v237h888v-237h-888zM362 1044q0 62 44 106t106 44t106 -44t44 -106q0 -61 -44 -105t-106 -44t-106 44t-44 105zM362 344q0 62 44 106t106 44t106 -44t44 -106q0 -61 -44 -105t-106 -44t-106 44t-44 105z" />
    <glyph glyph-name="oslash" unicode="&#xf8;" horiz-adv-x="1261" 
d="M1192 901l-129 -129q115 -136 115 -311q0 -102 -37.5 -191.5t-100.5 -152.5q-67 -67 -169 -107.5t-234 -40.5q-168 0 -301 76l-158 -158l-108 103l151 151q-117 130 -117 312q0 206 138 344q150 147 399 147q163 0 305 -76l137 138zM430 350l320 320q-49 24 -109 24
q-104 0 -166 -65q-67 -67 -67 -172q0 -58 22 -107zM852 561l-317 -317q54 -25 108 -25q95 0 164 66q67 67 67 172q0 61 -22 104z" />
    <glyph glyph-name="ugrave" unicode="&#xf9;" horiz-adv-x="1167" 
d="M115 913h295v-503q0 -101 51 -148q48 -43 123 -43q79 0 125 43q49 47 49 148v503h295v-532q0 -93 -20 -162.5t-83 -130.5q-121 -119 -366 -119q-248 0 -369 119q-58 57 -79 123t-21 151v551zM551 1055l-311 276l194 133l250 -311z" />
    <glyph glyph-name="uacute" unicode="&#xfa;" horiz-adv-x="1167" 
d="M115 913h295v-503q0 -101 51 -148q48 -43 123 -43q79 0 125 43q49 47 49 148v503h295v-532q0 -93 -20 -162.5t-83 -130.5q-121 -119 -366 -119q-248 0 -369 119q-58 57 -79 123t-21 151v551zM709 1464l192 -133l-311 -276l-133 98z" />
    <glyph glyph-name="ucircumflex" unicode="&#xfb;" horiz-adv-x="1167" 
d="M115 913h295v-503q0 -101 51 -148q48 -43 123 -43q79 0 125 43q49 47 49 148v503h295v-532q0 -93 -20 -162.5t-83 -130.5q-121 -119 -366 -119q-248 0 -369 119q-58 57 -79 123t-21 151v551zM584 1249l-244 -194l-131 141l375 291l377 -291l-136 -141z" />
    <glyph glyph-name="udieresis" unicode="&#xfc;" horiz-adv-x="1167" 
d="M115 913h295v-503q0 -101 51 -148q48 -43 123 -43q79 0 125 43q49 47 49 148v503h295v-532q0 -93 -20 -162.5t-83 -130.5q-121 -119 -366 -119q-248 0 -369 119q-58 57 -79 123t-21 151v551zM645 1227q0 66 48 114t114 48t114 -48t48 -114t-48 -114t-114 -48t-114 48
t-48 114zM199 1227q0 66 47.5 114t113.5 48t114 -48t48 -114t-48 -114t-114 -48t-113.5 48t-47.5 114z" />
    <glyph glyph-name="yacute" unicode="&#xfd;" horiz-adv-x="1198" 
d="M119 -469l321 586l-436 796h340l258 -495l252 495h332l-735 -1382h-332zM725 1464l193 -133l-312 -276l-133 98z" />
    <glyph glyph-name="thorn" unicode="&#xfe;" horiz-adv-x="1224" 
d="M410 104v-573h-295v1962h295v-688q107 139 284 139q195 0 324 -129q64 -64 100.5 -155.5t36.5 -200.5q0 -222 -145 -367q-123 -123 -310 -123q-193 0 -290 135zM623 690q-97 0 -164 -67q-34 -34 -52 -79.5t-18 -88.5q0 -93 66 -162q70 -70 168 -70q90 0 157 64
q34 33 53 80.5t19 93.5q0 99 -70 166q-66 63 -159 63z" />
    <glyph glyph-name="ydieresis" unicode="&#xff;" horiz-adv-x="1198" 
d="M119 -469l321 586l-436 796h340l258 -495l252 495h332l-735 -1382h-332zM659 1227q0 66 48 114t114 48t114 -48t48 -114t-48 -114t-114 -48t-114 48t-48 114zM213 1227q0 66 48 114t114 48t114 -48t48 -114t-48 -114t-114 -48t-114 48t-48 114z" />
    <glyph glyph-name="Amacron" unicode="&#x100;" horiz-adv-x="1386" 
d="M1055 0l-103 258h-516l-104 -258h-328l551 1366h289l538 -1366h-327zM528 500h338l-168 458zM299 1542v189h795v-189h-795z" />
    <glyph glyph-name="amacron" unicode="&#x101;" horiz-adv-x="1224" 
d="M815 811v102h295v-913h-295v111q-92 -142 -270 -142q-104 0 -187 32t-155 108q-133 141 -133 342q0 112 38 207.5t103 160.5q125 125 317 125q190 0 287 -133zM602 690q-97 0 -162 -65q-67 -67 -67 -166q0 -98 61 -164q69 -72 174 -72q90 0 154 64q72 68 72 172
q0 103 -68 168q-66 63 -164 63zM223 1112v184h778v-184h-778z" />
    <glyph glyph-name="Abreve" unicode="&#x102;" horiz-adv-x="1386" 
d="M1055 0l-103 258h-516l-104 -258h-328l551 1366h289l538 -1366h-327zM528 500h338l-168 458zM848 1790h196q-15 -136 -94 -215q-90 -90 -258 -90t-258 90q-79 79 -94 215h197q6 -51 38 -86q40 -43 117 -43t117 43q33 37 39 86z" />
    <glyph glyph-name="abreve" unicode="&#x103;" horiz-adv-x="1224" 
d="M815 811v102h295v-913h-295v111q-92 -142 -270 -142q-104 0 -187 32t-155 108q-133 141 -133 342q0 112 38 207.5t103 160.5q125 125 317 125q190 0 287 -133zM602 690q-97 0 -162 -65q-67 -67 -67 -166q0 -98 61 -164q69 -72 174 -72q90 0 154 64q72 68 72 172
q0 103 -68 168q-66 63 -164 63zM766 1360h192q-9 -125 -90 -209q-90 -92 -256 -92t-256 92q-81 84 -90 209h193q8 -51 43 -86q41 -39 110 -39q70 0 111 39q35 35 43 86z" />
    <glyph glyph-name="Aogonek" unicode="&#x104;" horiz-adv-x="1386" 
d="M555 1366h289l538 -1366h-184q-36 -31 -63 -72q-35 -50 -35 -94q0 -30 22 -49q21 -18 58 -18q57 0 102 30l-37 -157q-59 -35 -133 -35q-88 0 -141 49q-47 44 -47 115q0 63 41 129q37 58 90 102l-103 258h-516l-104 -258h-328zM528 500h338l-168 458z" />
    <glyph glyph-name="aogonek" unicode="&#x105;" horiz-adv-x="1224" 
d="M815 811v102h295v-913h-82q-43 -43 -55 -57q-39 -45 -39 -90q0 -37 24 -58q23 -20 60 -20q47 0 102 30l-37 -157q-59 -35 -135 -35q-90 0 -139 49q-47 47 -47 115q0 63 43 125q26 40 88 98h-78v119q-89 -150 -285 -150t-327 140q-133 141 -133 342q0 112 38 207.5
t103 160.5q125 125 317 125q190 0 287 -133zM602 690q-97 0 -162 -65q-67 -67 -67 -166q0 -98 61 -164q69 -72 174 -72q90 0 154 64q72 68 72 172q0 103 -68 168q-66 63 -164 63z" />
    <glyph glyph-name="Cacute" unicode="&#x106;" horiz-adv-x="1239" 
d="M1137 406v-363q-147 -74 -301 -74q-334 0 -537 199q-97 94 -155 227.5t-58 290.5q0 155 58 287.5t155 226.5q95 92 225.5 144.5t284.5 52.5q151 0 328 -76v-365q-138 146 -320 146q-168 0 -278 -107q-129 -126 -129 -315q0 -187 118 -301q16 -16 36.5 -31t57.5 -36.5
t89.5 -34.5t111.5 -13q170 0 314 142zM932 1894l194 -147l-335 -264l-134 108z" />
    <glyph glyph-name="cacute" unicode="&#x107;" horiz-adv-x="882" 
d="M801 893v-268q-84 69 -193 69q-103 0 -168 -65q-67 -67 -67 -172q0 -100 61 -164q68 -74 178 -74q103 0 189 72v-266q-102 -56 -234 -56q-214 0 -354 137q-143 139 -143 349q0 216 151 360q137 129 348 129q124 0 232 -51zM680 1464l192 -133l-311 -276l-133 98z" />
    <glyph glyph-name="Ccircumflex" unicode="&#x108;" horiz-adv-x="1239" 
d="M1137 406v-363q-147 -74 -301 -74q-334 0 -537 199q-97 94 -155 227.5t-58 290.5q0 155 58 287.5t155 226.5q95 92 225.5 144.5t284.5 52.5q151 0 328 -76v-365q-138 146 -320 146q-168 0 -278 -107q-129 -126 -129 -315q0 -187 118 -301q16 -16 36.5 -31t57.5 -36.5
t89.5 -34.5t111.5 -13q170 0 314 142zM512 1487l-131 145l385 287l387 -287l-135 -145l-252 190z" />
    <glyph glyph-name="ccircumflex" unicode="&#x109;" horiz-adv-x="882" 
d="M801 893v-268q-84 69 -193 69q-103 0 -168 -65q-67 -67 -67 -172q0 -100 61 -164q68 -74 178 -74q103 0 189 72v-266q-102 -56 -234 -56q-214 0 -354 137q-143 139 -143 349q0 216 151 360q137 129 348 129q124 0 232 -51zM537 1249l-244 -194l-131 141l375 291l376 -291
l-135 -141z" />
    <glyph glyph-name="Cdotaccent" unicode="&#x10a;" horiz-adv-x="1239" 
d="M1137 406v-363q-147 -74 -301 -74q-334 0 -537 199q-97 94 -155 227.5t-58 290.5q0 155 58 287.5t155 226.5q95 92 225.5 144.5t284.5 52.5q151 0 328 -76v-365q-138 146 -320 146q-168 0 -278 -107q-129 -126 -129 -315q0 -187 118 -301q16 -16 36.5 -31t57.5 -36.5
t89.5 -34.5t111.5 -13q170 0 314 142zM602 1669q0 73 50 123.5t124 50.5t124 -50.5t50 -123.5t-50 -123.5t-124 -50.5t-124 50.5t-50 123.5z" />
    <glyph glyph-name="cdotaccent" unicode="&#x10b;" horiz-adv-x="882" 
d="M801 893v-268q-84 69 -193 69q-103 0 -168 -65q-67 -67 -67 -172q0 -100 61 -164q68 -74 178 -74q103 0 189 72v-266q-102 -56 -234 -56q-214 0 -354 137q-143 139 -143 349q0 216 151 360q137 129 348 129q124 0 232 -51zM383 1235q0 72 49 121t121 49t121 -49t49 -121
t-49 -121t-121 -49t-121 49t-49 121z" />
    <glyph glyph-name="Ccaron" unicode="&#x10c;" horiz-adv-x="1239" 
d="M1137 406v-363q-147 -74 -301 -74q-334 0 -537 199q-97 94 -155 227.5t-58 290.5q0 155 58 287.5t155 226.5q95 92 225.5 144.5t284.5 52.5q151 0 328 -76v-365q-138 146 -320 146q-168 0 -278 -107q-129 -126 -129 -315q0 -187 118 -301q16 -16 36.5 -31t57.5 -36.5
t89.5 -34.5t111.5 -13q170 0 314 142zM776 1729l252 190l135 -143l-387 -289l-385 289l131 143z" />
    <glyph glyph-name="ccaron" unicode="&#x10d;" horiz-adv-x="882" 
d="M801 893v-268q-84 69 -193 69q-103 0 -168 -65q-67 -67 -67 -172q0 -100 61 -164q68 -74 178 -74q103 0 189 72v-266q-102 -56 -234 -56q-214 0 -354 137q-143 139 -143 349q0 216 151 360q137 129 348 129q124 0 232 -51zM541 1292l241 195l136 -139l-377 -293l-375 293
l131 139z" />
    <glyph glyph-name="Dcaron" unicode="&#x10e;" horiz-adv-x="1402" 
d="M150 1366h432q103 0 184 -12t178 -55.5t176 -120.5q197 -190 197 -490q0 -296 -187 -483q-203 -205 -538 -205h-442v1366zM465 1100v-834h84q202 0 311 92q59 49 96 135t37 195q0 183 -112 295q-117 117 -332 117h-84zM621 1729l251 190l136 -143l-387 -289l-385 289
l131 143z" />
    <glyph glyph-name="dcaron" unicode="&#x10f;" horiz-adv-x="1599" 
d="M1110 1493v-1493h-295v111q-97 -142 -289 -142q-191 0 -313 125q-70 70 -106.5 165t-36.5 202q0 223 143 360q129 123 317 123q187 0 285 -133v682h295zM602 690q-94 0 -158 -61q-71 -68 -71 -174q0 -100 71 -168q67 -64 154 -64q43 0 88.5 17.5t79.5 50.5q68 64 68 164
q0 98 -66 168q-64 67 -166 67zM1208 1008l144 426l266 -62l-229 -405z" />
    <glyph glyph-name="Dcroat" unicode="&#x110;" horiz-adv-x="1458" 
d="M205 846v520h432q76 0 138.5 -7t133.5 -26t139 -58t128 -97q196 -190 196 -490q0 -297 -186 -483q-203 -205 -539 -205h-442v621h-185v225h185zM520 1100v-254h246v-225h-246v-355h84q202 0 311 92q59 49 96.5 135t37.5 195q0 182 -113 295q-117 117 -332 117h-84z" />
    <glyph glyph-name="dcroat" unicode="&#x111;" horiz-adv-x="1253" 
d="M1110 1493v-190h164v-193h-164v-1110h-295v111q-97 -142 -289 -142q-191 0 -313 125q-70 70 -106.5 165t-36.5 202q0 223 143 360q129 123 317 123q187 0 285 -133v299h-393v193h393v190h295zM602 690q-94 0 -158 -61q-71 -68 -71 -174q0 -100 71 -168q67 -64 154 -64
q43 0 88.5 17.5t79.5 50.5q68 64 68 164q0 98 -66 168q-64 67 -166 67z" />
    <glyph glyph-name="Emacron" unicode="&#x112;" horiz-adv-x="1028" 
d="M922 1366v-266h-457v-264h434v-267h-434v-303h457v-266h-772v1366h772zM125 1542v189h795v-189h-795z" />
    <glyph glyph-name="emacron" unicode="&#x113;" horiz-adv-x="1120" 
d="M379 582h399q-16 65 -59 106q-54 51 -139 51q-91 0 -150 -59q-40 -44 -51 -98zM1051 436v-30h-682q0 -40 14.5 -83.5t40.5 -72.5q52 -57 151 -57q74 0 119 26q4 2 12.5 9t24.5 25.5t27 41.5l278 -29q-47 -149 -176 -229q-113 -68 -289 -68q-114 0 -202 28.5t-162 102.5
q-137 137 -137 353q0 101 36 196t103 164q131 131 350 131q233 0 363 -137q129 -136 129 -371zM170 1112v184h778v-184h-778z" />
    <glyph glyph-name="Edotaccent" unicode="&#x116;" horiz-adv-x="1028" 
d="M922 1366v-266h-457v-264h434v-267h-434v-303h457v-266h-772v1366h772zM348 1669q0 73 50 123.5t124 50.5t124 -50.5t50 -123.5t-50 -123.5t-124 -50.5t-124 50.5t-50 123.5z" />
    <glyph glyph-name="edotaccent" unicode="&#x117;" horiz-adv-x="1120" 
d="M379 582h399q-16 65 -59 106q-54 51 -139 51q-91 0 -150 -59q-40 -44 -51 -98zM1051 436v-30h-682q0 -40 14.5 -83.5t40.5 -72.5q52 -57 151 -57q74 0 119 26q4 2 12.5 9t24.5 25.5t27 41.5l278 -29q-47 -149 -176 -229q-113 -68 -289 -68q-114 0 -202 28.5t-162 102.5
q-137 137 -137 353q0 101 36 196t103 164q131 131 350 131q233 0 363 -137q129 -136 129 -371zM375 1235q0 72 49 121t121 49t121 -49t49 -121t-49 -121t-121 -49t-121 49t-49 121z" />
    <glyph glyph-name="Eogonek" unicode="&#x118;" horiz-adv-x="1028" 
d="M922 1366v-266h-457v-264h434v-267h-434v-303h457v-266h-82q-38 -33 -64 -72q-35 -50 -35 -94q0 -29 23 -49q21 -18 57 -18q58 0 103 30l-37 -157q-59 -35 -133 -35q-89 0 -142 49q-47 44 -47 115q0 63 41 129q37 58 90 102h-546v1366h772z" />
    <glyph glyph-name="eogonek" unicode="&#x119;" horiz-adv-x="1120" 
d="M379 582h399q-16 65 -59 106q-54 51 -139 51q-91 0 -150 -59q-40 -44 -51 -98zM1051 436v-30h-682q2 -43 17 -86.5t38 -69.5q53 -57 156 -57q79 0 114 26q4 2 12.5 9t24.5 25.5t27 41.5l278 -29q-20 -87 -88 -155q-45 -45 -127 -91q-95 -53 -121 -81q-36 -39 -36 -86
q0 -37 24 -58q23 -20 60 -20q47 0 102 30l-37 -157q-59 -35 -135 -35q-90 0 -139 49q-47 44 -47 115q0 56 34 112q25 44 68 80q-130 0 -221.5 28.5t-165.5 102.5q-63 65 -100 154t-37 192q0 105 36 202.5t103 164.5q131 131 354 131q227 0 359 -137q129 -136 129 -371z" />
    <glyph glyph-name="Ecaron" unicode="&#x11a;" horiz-adv-x="1028" 
d="M922 1366v-266h-457v-264h434v-267h-434v-303h457v-266h-772v1366h772zM520 1729l252 190l135 -143l-387 -289l-385 289l131 143z" />
    <glyph glyph-name="ecaron" unicode="&#x11b;" horiz-adv-x="1120" 
d="M379 582h399q-16 65 -59 106q-54 51 -139 51q-91 0 -150 -59q-40 -44 -51 -98zM1051 436v-30h-682q0 -40 14.5 -83.5t40.5 -72.5q52 -57 151 -57q74 0 119 26q4 2 12.5 9t24.5 25.5t27 41.5l278 -29q-47 -149 -176 -229q-113 -68 -289 -68q-114 0 -202 28.5t-162 102.5
q-137 137 -137 353q0 101 36 196t103 164q131 131 350 131q233 0 363 -137q129 -136 129 -371zM559 1292l242 195l135 -139l-377 -293l-375 293l131 139z" />
    <glyph glyph-name="Gcircumflex" unicode="&#x11c;" horiz-adv-x="1570" 
d="M807 492v253h678v-14q0 -142 -53 -304t-158 -271q-104 -108 -224.5 -147.5t-263.5 -39.5q-146 0 -268 39.5t-231 151.5q-201 206 -201 520q0 161 53 293.5t144 224.5q60 62 130 104t142.5 61.5t133 26.5t130.5 7q227 0 383 -103q66 -44 124 -109t97 -134l-284 -154
q-47 93 -121 147q-89 66 -209 66q-178 0 -283 -111q-116 -122 -116 -323q0 -200 114 -314q103 -106 277 -106q152 0 237 74q11 9 25 23.5t38 54t36 84.5h-330zM530 1487l-131 145l385 287l387 -287l-135 -145l-252 190z" />
    <glyph glyph-name="gcircumflex" unicode="&#x11d;" horiz-adv-x="1218" 
d="M809 807v106h295v-858q0 -125 -21 -218.5t-92 -170.5q-126 -135 -385 -135q-244 0 -381 117q-112 96 -137 241h322q15 -58 65 -90q46 -30 127 -30q94 0 148 49q59 57 59 190v105q-85 -138 -272 -138q-205 0 -334 129q-133 137 -133 345q0 112 37 206.5t98 157.5
q126 131 332 131q180 0 272 -137zM604 688q-100 0 -162 -59q-32 -31 -50.5 -78.5t-18.5 -91.5q0 -98 63 -164t166 -66q96 0 160 60q72 69 72 174q0 102 -70 168q-63 57 -160 57zM608 1249l-243 -194l-132 141l375 291l377 -291l-135 -141z" />
    <glyph glyph-name="Gbreve" unicode="&#x11e;" horiz-adv-x="1570" 
d="M807 492v253h678v-14q0 -142 -53 -304t-158 -271q-104 -108 -224.5 -147.5t-263.5 -39.5q-146 0 -268 39.5t-231 151.5q-201 206 -201 520q0 161 53 293.5t144 224.5q60 62 130 104t142.5 61.5t133 26.5t130.5 7q227 0 383 -103q66 -44 124 -109t97 -134l-284 -154
q-47 93 -121 147q-89 66 -209 66q-178 0 -283 -111q-116 -122 -116 -323q0 -200 114 -314q103 -106 277 -106q152 0 237 74q11 9 25 23.5t38 54t36 84.5h-330zM940 1790h197q-15 -135 -95 -215q-90 -90 -258 -90t-258 90q-79 79 -94 215h197q6 -49 39 -86q40 -43 116 -43
q77 0 117 43q33 37 39 86z" />
    <glyph glyph-name="gbreve" unicode="&#x11f;" horiz-adv-x="1218" 
d="M809 807v106h295v-858q0 -125 -21 -218.5t-92 -170.5q-126 -135 -385 -135q-244 0 -381 117q-112 96 -137 241h322q15 -58 65 -90q46 -30 127 -30q94 0 148 49q59 57 59 190v105q-85 -138 -272 -138q-205 0 -334 129q-133 137 -133 345q0 112 37 206.5t98 157.5
q126 131 332 131q180 0 272 -137zM604 688q-100 0 -162 -59q-32 -31 -50.5 -78.5t-18.5 -91.5q0 -98 63 -164t166 -66q96 0 160 60q72 69 72 174q0 102 -70 168q-63 57 -160 57zM762 1360h192q-9 -125 -90 -209q-90 -92 -256 -92t-256 92q-81 84 -90 209h193q8 -51 43 -86
q41 -39 110 -39q70 0 111 39q35 35 43 86z" />
    <glyph glyph-name="Gdotaccent" unicode="&#x120;" horiz-adv-x="1570" 
d="M807 492v253h678v-14q0 -142 -53 -304t-158 -271q-104 -108 -224.5 -147.5t-263.5 -39.5q-146 0 -268 39.5t-231 151.5q-201 206 -201 520q0 161 53 293.5t144 224.5q60 62 130 104t142.5 61.5t133 26.5t130.5 7q227 0 383 -103q66 -44 124 -109t97 -134l-284 -154
q-47 93 -121 147q-89 66 -209 66q-178 0 -283 -111q-116 -122 -116 -323q0 -200 114 -314q103 -106 277 -106q152 0 237 74q11 9 25 23.5t38 54t36 84.5h-330zM610 1669q0 73 50 123.5t124 50.5t124 -50.5t50 -123.5t-50 -123.5t-124 -50.5t-124 50.5t-50 123.5z" />
    <glyph glyph-name="gdotaccent" unicode="&#x121;" horiz-adv-x="1218" 
d="M809 807v106h295v-858q0 -125 -21 -218.5t-92 -170.5q-126 -135 -385 -135q-244 0 -381 117q-112 96 -137 241h322q15 -58 65 -90q46 -30 127 -30q94 0 148 49q59 57 59 190v105q-85 -138 -272 -138q-205 0 -334 129q-133 137 -133 345q0 112 37 206.5t98 157.5
q126 131 332 131q180 0 272 -137zM604 688q-100 0 -162 -59q-32 -31 -50.5 -78.5t-18.5 -91.5q0 -98 63 -164t166 -66q96 0 160 60q72 69 72 174q0 102 -70 168q-63 57 -160 57zM399 1235q0 72 49 121t121 49t121 -49t49 -121t-49 -121t-121 -49t-121 49t-49 121z" />
    <glyph glyph-name="Gcommaaccent" unicode="&#x122;" horiz-adv-x="1570" 
d="M807 492v253h678v-14q0 -142 -53 -304t-158 -271q-104 -108 -224.5 -147.5t-263.5 -39.5q-146 0 -268 39.5t-231 151.5q-201 206 -201 520q0 161 53 293.5t144 224.5q60 62 130 104t142.5 61.5t133 26.5t130.5 7q227 0 383 -103q66 -44 124 -109t97 -134l-284 -154
q-47 93 -121 147q-89 66 -209 66q-178 0 -283 -111q-116 -122 -116 -323q0 -200 114 -314q103 -106 277 -106q152 0 237 74q11 9 25 23.5t38 54t36 84.5h-330zM532 -508l115 406l275 -33l-201 -397z" />
    <glyph glyph-name="gcommaaccent" unicode="&#x123;" horiz-adv-x="1218" 
d="M809 807v106h295v-858q0 -125 -21 -218.5t-92 -170.5q-126 -135 -385 -135q-244 0 -381 117q-112 96 -137 241h322q15 -58 65 -90q46 -30 127 -30q94 0 148 49q59 57 59 190v105q-85 -138 -272 -138q-205 0 -334 129q-133 137 -133 345q0 112 37 206.5t98 157.5
q126 131 332 131q180 0 272 -137zM604 688q-100 0 -162 -59q-32 -31 -50.5 -78.5t-18.5 -91.5q0 -98 63 -164t166 -66q96 0 160 60q72 69 72 174q0 102 -70 168q-63 57 -160 57zM815 1413l-115 -385l-274 33l201 377z" />
    <glyph glyph-name="Hcircumflex" unicode="&#x124;" horiz-adv-x="1474" 
d="M465 1366v-520h545v520h315v-1366h-315v580h-545v-580h-315v1366h315zM483 1487l-131 145l385 287l387 -287l-135 -145l-252 190z" />
    <glyph glyph-name="hcircumflex" unicode="&#x125;" horiz-adv-x="1169" 
d="M123 0v1493h295v-688q53 65 110 94q72 39 179 39q168 0 258 -92q90 -90 90 -266v-580h-295v469q0 41 -2 67t-13.5 60t-33.5 55q-41 41 -115 41q-72 0 -117 -45q-61 -59 -61 -190v-457h-295zM270 1726l-243 -194l-131 141l374 291l377 -291l-135 -141z" />
    <glyph glyph-name="Hbar" unicode="&#x126;" horiz-adv-x="1474" 
d="M465 1366v-109h545v109h315v-109h123v-217h-123v-1040h-315v580h-545v-580h-315v1040h-123v217h123v109h315zM1010 1040h-545v-194h545v194z" />
    <glyph glyph-name="hbar" unicode="&#x127;" horiz-adv-x="1189" 
d="M143 0v1110h-163v193h163v190h295v-190h393v-193h-393v-305q53 64 111 94q72 39 178 39q168 0 258 -92q90 -90 90 -266v-580h-295v469q0 41 -2 67t-13.5 60t-33.5 55q-41 41 -115 41q-71 0 -116 -45q-62 -60 -62 -190v-457h-295z" />
    <glyph glyph-name="Imacron" unicode="&#x12a;" horiz-adv-x="626" 
d="M156 1366h315v-1366h-315v1366zM-92 1542v189h794v-189h-794z" />
    <glyph glyph-name="imacron" unicode="&#x12b;" horiz-adv-x="565" 
d="M135 913h295v-913h-295v913zM0 1112v184h565v-184h-565z" />
    <glyph glyph-name="Iogonek" unicode="&#x12e;" horiz-adv-x="626" 
d="M156 1366h315v-1366q-36 -31 -63 -72q-35 -50 -35 -94q0 -30 22 -49q21 -18 58 -18q57 0 102 30l-37 -157q-59 -35 -133 -35q-88 0 -141 49q-47 44 -47 115q0 63 41 129q37 58 90 102h-172v1366z" />
    <glyph glyph-name="iogonek" unicode="&#x12f;" horiz-adv-x="565" 
d="M135 913h295v-913q-43 -43 -55 -57q-39 -45 -39 -90q0 -37 24 -58q23 -20 60 -20q47 0 102 30l-37 -157q-59 -35 -135 -35q-90 0 -139 49q-47 47 -47 115q0 63 43 125q35 49 88 98h-160v913zM111 1303q0 72 50 122t122 50t122 -50t50 -122t-50 -122.5t-122 -50.5
t-122 50.5t-50 122.5z" />
    <glyph glyph-name="Idotaccent" unicode="&#x130;" horiz-adv-x="626" 
d="M156 1366h315v-1366h-315v1366zM139 1669q0 73 50.5 123.5t123.5 50.5t123.5 -50.5t50.5 -123.5t-50.5 -123.5t-123.5 -50.5t-123.5 50.5t-50.5 123.5z" />
    <glyph glyph-name="dotlessi" unicode="&#x131;" horiz-adv-x="565" 
d="M135 913h295v-913h-295v913z" />
    <glyph glyph-name="Jcircumflex" unicode="&#x134;" horiz-adv-x="849" 
d="M385 1366h315v-930q0 -50 -3 -86.5t-13.5 -89.5t-36 -101t-65.5 -87q-103 -103 -289 -103q-135 0 -217 49q-72 45 -129 115l196 221q23 -48 50 -75q31 -31 77 -31t74 28q41 41 41 162v928zM293 1487l-131 145l385 287l387 -287l-135 -145l-252 190z" />
    <glyph glyph-name="jcircumflex" unicode="&#x135;" horiz-adv-x="565" 
d="M135 913h295v-1382h-295v1382zM283 1233l-193 -178l-133 141l326 291l325 -291l-135 -141z" />
    <glyph glyph-name="Kcommaaccent" unicode="&#x136;" horiz-adv-x="1372" 
d="M465 1366v-569l467 569h385l-553 -647l596 -719h-406l-489 606v-606h-315v1366h315zM451 -508l114 406l275 -33l-201 -397z" />
    <glyph glyph-name="kcommaaccent" unicode="&#x137;" horiz-adv-x="1159" 
d="M123 1493h295v-915l332 335h387l-435 -413l465 -500h-397l-352 393v-393h-295v1493zM389 -487l115 385l274 -33l-200 -377z" />
    <glyph glyph-name="Lacute" unicode="&#x139;" horiz-adv-x="917" 
d="M150 1366h315v-1100h424v-266h-739v1366zM420 1894l194 -147l-335 -264l-134 108z" />
    <glyph glyph-name="lacute" unicode="&#x13a;" horiz-adv-x="540" 
d="M123 1493h295v-1493h-295v1493zM403 1956l193 -133l-311 -277l-133 99z" />
    <glyph glyph-name="Lcommaaccent" unicode="&#x13b;" horiz-adv-x="917" 
d="M150 1366h315v-1100h424v-266h-739v1366zM266 -508l115 406l274 -33l-200 -397z" />
    <glyph glyph-name="lcommaaccent" unicode="&#x13c;" horiz-adv-x="540" 
d="M123 1493h295v-1493h-295v1493zM41 -487l115 385l274 -33l-201 -377z" />
    <glyph glyph-name="Lcaron" unicode="&#x13d;" horiz-adv-x="917" 
d="M150 1366h315v-1100h424v-266h-739v1366zM573 967l144 426l266 -62l-229 -405z" />
    <glyph glyph-name="lcaron" unicode="&#x13e;" horiz-adv-x="903" 
d="M123 1493h295v-1493h-295v1493zM512 1008l143 426l267 -62l-230 -405z" />
    <glyph glyph-name="Ldot" unicode="&#x13f;" horiz-adv-x="917" 
d="M150 1366h315v-1100h424v-266h-739v1366zM600 684q0 74 50 124t124 50t124 -50t50 -124t-50 -124t-124 -50t-124 50t-50 124z" />
    <glyph glyph-name="ldot" unicode="&#x140;" horiz-adv-x="888" 
d="M123 1493h295v-1493h-295v1493zM545 745q0 72 49 121t121 49t121 -49t49 -121t-49 -121t-121 -49t-121 49t-49 121z" />
    <glyph glyph-name="Lslash" unicode="&#x141;" horiz-adv-x="964" 
d="M197 0v528l-177 -112v246l177 112v592h315v-463l209 133v-245l-209 -134v-391h424v-266h-739z" />
    <glyph glyph-name="lslash" unicode="&#x142;" horiz-adv-x="557" 
d="M131 920v573h295v-436l164 110v-217l-164 -110v-840h-295v702l-164 -110v217z" />
    <glyph glyph-name="Nacute" unicode="&#x143;" horiz-adv-x="1630" 
d="M465 0h-315v1366h274l741 -881v881h316v-1366h-275l-741 885v-885zM928 1894l194 -147l-336 -264l-133 108z" />
    <glyph glyph-name="nacute" unicode="&#x144;" horiz-adv-x="1161" 
d="M115 0v913h295v-108q104 133 282 133q170 0 262 -92q93 -93 93 -268v-578h-295v469q0 132 -50 182q-41 41 -112 41q-78 0 -123 -49q-57 -57 -57 -174v-469h-295zM731 1464l193 -133l-312 -276l-133 98z" />
    <glyph glyph-name="Ncommaaccent" unicode="&#x145;" horiz-adv-x="1630" 
d="M465 0h-315v1366h274l741 -881v881h316v-1366h-275l-741 885v-885zM582 -508l114 406l275 -33l-201 -397z" />
    <glyph glyph-name="ncommaaccent" unicode="&#x146;" horiz-adv-x="1161" 
d="M115 0v913h295v-108q104 133 282 133q170 0 262 -92q93 -93 93 -268v-578h-295v469q0 132 -50 182q-41 41 -112 41q-78 0 -123 -49q-57 -57 -57 -174v-469h-295zM379 -487l115 385l274 -33l-201 -377z" />
    <glyph glyph-name="Ncaron" unicode="&#x147;" horiz-adv-x="1630" 
d="M465 0h-315v1366h274l741 -881v881h316v-1366h-275l-741 885v-885zM795 1729l252 190l135 -143l-387 -289l-385 289l131 143z" />
    <glyph glyph-name="ncaron" unicode="&#x148;" horiz-adv-x="1161" 
d="M115 0v913h295v-108q104 133 282 133q170 0 262 -92q93 -93 93 -268v-578h-295v469q0 132 -50 182q-41 41 -112 41q-78 0 -123 -49q-57 -57 -57 -174v-469h-295zM571 1292l242 195l135 -139l-377 -293l-374 293l131 139z" />
    <glyph glyph-name="Omacron" unicode="&#x14c;" horiz-adv-x="1658" 
d="M831 1397q324 0 529 -199q100 -97 156.5 -229.5t56.5 -286.5q0 -142 -53 -275t-160 -237q-208 -201 -529 -201q-176 0 -309 57.5t-223 143.5q-100 94 -156.5 226.5t-56.5 281.5q0 145 58 284t153 234q84 84 216.5 142.5t317.5 58.5zM829 1106q-182 0 -299 -117
q-120 -116 -120 -309q0 -185 125 -307q118 -113 292 -113q186 0 303 117q119 115 119 305q0 98 -34 177t-85 130q-54 52 -132.5 84.5t-168.5 32.5zM424 1542v189h795v-189h-795z" />
    <glyph glyph-name="omacron" unicode="&#x14d;" horiz-adv-x="1212" 
d="M1143 457q0 -91 -35 -182t-102 -158q-66 -66 -169.5 -107t-230.5 -41t-230 41t-169 107q-67 67 -102 158t-35 182t35 182t102 158q66 66 169 106.5t230 40.5t230.5 -40.5t169.5 -106.5q67 -67 102 -158t35 -182zM606 694q-101 0 -166 -65q-67 -67 -67 -172t67 -172
q66 -66 168 -66q98 0 164 66q68 68 68 172t-68 172q-65 65 -166 65zM201 1112v184h778v-184h-778z" />
    <glyph glyph-name="Obreve" unicode="&#x14e;" horiz-adv-x="1658" 
d="M831 1397q324 0 529 -199q100 -97 156.5 -229.5t56.5 -286.5q0 -142 -53 -275t-160 -237q-208 -201 -529 -201q-176 0 -309 57.5t-223 143.5q-100 94 -156.5 226.5t-56.5 281.5q0 145 58 284t153 234q84 84 216.5 142.5t317.5 58.5zM829 1106q-182 0 -299 -117
q-120 -116 -120 -309q0 -185 125 -307q118 -113 292 -113q186 0 303 117q119 115 119 305q0 98 -34 177t-85 130q-54 52 -132.5 84.5t-168.5 32.5zM985 1790h197q-15 -135 -95 -215q-90 -90 -258 -90t-258 90q-79 79 -94 215h197q6 -49 39 -86q40 -43 116 -43q77 0 117 43
q33 37 39 86z" />
    <glyph glyph-name="obreve" unicode="&#x14f;" horiz-adv-x="1212" 
d="M1143 457q0 -91 -35 -182t-102 -158q-66 -66 -169.5 -107t-230.5 -41t-230 41t-169 107q-67 67 -102 158t-35 182t35 182t102 158q66 66 169 106.5t230 40.5t230.5 -40.5t169.5 -106.5q67 -67 102 -158t35 -182zM606 694q-101 0 -166 -65q-67 -67 -67 -172t67 -172
q66 -66 168 -66q98 0 164 66q68 68 68 172t-68 172q-65 65 -166 65zM760 1360h192q-9 -125 -90 -209q-90 -92 -256 -92t-256 92q-81 84 -90 209h193q8 -51 43 -86q41 -39 110 -39q70 0 111 39q35 35 43 86z" />
    <glyph glyph-name="Ohungarumlaut" unicode="&#x150;" horiz-adv-x="1658" 
d="M831 1397q324 0 529 -199q100 -97 156.5 -229.5t56.5 -286.5q0 -142 -53 -275t-160 -237q-208 -201 -529 -201q-176 0 -309 57.5t-223 143.5q-100 94 -156.5 226.5t-56.5 281.5q0 145 58 284t153 234q84 84 216.5 142.5t317.5 58.5zM829 1106q-182 0 -299 -117
q-120 -116 -120 -309q0 -185 125 -307q118 -113 292 -113q186 0 303 117q119 115 119 305q0 98 -34 177t-85 130q-54 52 -132.5 84.5t-168.5 32.5zM737 1894l176 -135l-286 -276l-113 98zM1118 1894l178 -135l-286 -276l-115 98z" />
    <glyph glyph-name="ohungarumlaut" unicode="&#x151;" horiz-adv-x="1212" 
d="M1143 457q0 -91 -35 -182t-102 -158q-66 -66 -169.5 -107t-230.5 -41t-230 41t-169 107q-67 67 -102 158t-35 182t35 182t102 158q66 66 169 106.5t230 40.5t230.5 -40.5t169.5 -106.5q67 -67 102 -158t35 -182zM606 694q-101 0 -166 -65q-67 -67 -67 -172t67 -172
q66 -66 168 -66q98 0 164 66q68 68 68 172t-68 172q-65 65 -166 65zM512 1454l168 -135l-274 -277l-107 99zM881 1452l170 -133l-275 -277l-108 99z" />
    <glyph glyph-name="OE" unicode="&#x152;" horiz-adv-x="2113" 
d="M2007 1366v-266h-444v-264h422v-267h-422v-303h444v-266h-756v168q-173 -199 -458 -199q-156 0 -272 45t-216 142q-63 62 -108 132.5t-68 140t-33 130t-10 119.5q0 147 55.5 285t165.5 243q201 191 506 191q279 0 438 -195v164h756zM819 1106q-164 0 -284 -113
q-125 -119 -125 -311q0 -188 125 -309q120 -113 284 -113q165 0 285 113q125 121 125 309q0 192 -125 311q-120 113 -285 113z" />
    <glyph glyph-name="oe" unicode="&#x153;" horiz-adv-x="1851" 
d="M1499 295l270 -19q-38 -148 -159 -229q-112 -78 -295 -78q-257 0 -371 168q-40 -53 -89 -89t-100.5 -52t-93.5 -21.5t-90 -5.5q-106 0 -193 27t-167 104q-141 135 -141 346q0 115 37 208.5t100 154.5q65 65 162 100t213 35q241 0 372 -149q120 149 349 149
q227 0 350 -127q129 -131 129 -387v-24h-676q3 -43 19.5 -86.5t39.5 -69.5q53 -57 152 -57q139 0 182 102zM592 694q-87 0 -148 -57q-71 -67 -71 -180q0 -112 69 -181q61 -57 150 -57q88 0 149 57q70 70 70 181q0 112 -72 180q-61 57 -147 57zM1114 582h399q-16 65 -59 106
q-54 51 -139 51q-91 0 -150 -59q-40 -44 -51 -98z" />
    <glyph glyph-name="Racute" unicode="&#x154;" horiz-adv-x="1243" 
d="M150 1366h479q219 0 348 -119q119 -115 119 -305q0 -173 -107 -278q-83 -80 -190 -105l420 -559h-385l-369 539v-539h-315v1366zM465 1120v-375h72q128 0 188 60q51 51 51 133q0 92 -63 139q-56 43 -174 43h-74zM715 1894l194 -147l-336 -264l-133 108z" />
    <glyph glyph-name="racute" unicode="&#x155;" horiz-adv-x="786" 
d="M115 0v913h295v-143q45 84 114 127q62 39 158 39q50 0 96 -14l-16 -277q-64 33 -133 33q-89 0 -148 -62q-44 -47 -57.5 -107.5t-13.5 -137.5v-371h-295zM547 1464l192 -133l-311 -276l-133 98z" />
    <glyph glyph-name="Rcommaaccent" unicode="&#x156;" horiz-adv-x="1243" 
d="M150 1366h479q219 0 348 -119q119 -115 119 -305q0 -173 -107 -278q-83 -80 -190 -105l420 -559h-385l-369 539v-539h-315v1366zM465 1120v-375h72q128 0 188 60q51 51 51 133q0 92 -63 139q-56 43 -174 43h-74zM410 -508l114 406l275 -33l-201 -397z" />
    <glyph glyph-name="rcommaaccent" unicode="&#x157;" horiz-adv-x="786" 
d="M115 0v913h295v-143q45 84 114 127q62 39 158 39q50 0 96 -14l-16 -277q-64 33 -133 33q-89 0 -148 -62q-44 -47 -57.5 -107.5t-13.5 -137.5v-371h-295zM184 -487l115 385l274 -33l-200 -377z" />
    <glyph glyph-name="Rcaron" unicode="&#x158;" horiz-adv-x="1243" 
d="M150 1366h479q219 0 348 -119q119 -115 119 -305q0 -173 -107 -278q-83 -80 -190 -105l420 -559h-385l-369 539v-539h-315v1366zM465 1120v-375h72q128 0 188 60q51 51 51 133q0 92 -63 139q-56 43 -174 43h-74zM582 1729l252 190l135 -143l-387 -289l-385 289l131 143z
" />
    <glyph glyph-name="rcaron" unicode="&#x159;" horiz-adv-x="786" 
d="M115 0v913h295v-143q45 84 114 127q62 39 158 39q50 0 96 -14l-16 -277q-64 33 -133 33q-89 0 -148 -62q-44 -47 -57.5 -107.5t-13.5 -137.5v-371h-295zM426 1292l242 195l135 -139l-377 -293l-375 293l131 139z" />
    <glyph glyph-name="Sacute" unicode="&#x15a;" horiz-adv-x="1126" 
d="M995 1262l-141 -230q-109 98 -229 98q-91 0 -133 -47q-35 -35 -35 -86q0 -48 30 -75q10 -9 21 -16t28.5 -15t30.5 -13t42.5 -16t49.5 -18l103 -39q129 -50 186 -105q101 -96 101 -254q0 -103 -32.5 -191.5t-88.5 -145.5q-133 -140 -387 -140q-155 0 -271 58
q-102 51 -200 149l163 225q66 -66 127 -104q79 -49 172 -49q90 0 144 47q49 42 49 111q0 57 -47 98q-39 32 -160 76l-112 38q-41 15 -67.5 26.5t-62.5 33.5t-61 49q-82 87 -82 238q0 185 119 307q122 125 338 125q223 0 405 -135zM737 1894l195 -147l-336 -264l-133 108z
" />
    <glyph glyph-name="sacute" unicode="&#x15b;" horiz-adv-x="888" 
d="M791 866l-117 -186q-85 51 -162 51q-58 0 -84 -26q-18 -18 -18 -41q0 -25 28 -41q9 -5 21 -9.5t35 -11.5t32 -10l78 -25q98 -31 152 -80q71 -66 71 -174q0 -145 -94 -239q-105 -105 -297 -105q-225 0 -375 131l125 199q55 -47 101 -68q57 -28 123 -28q65 0 92 20
q30 23 30 60q0 34 -32 53q-25 15 -90 33l-74 22q-92 28 -148 84q-65 68 -65 166q0 130 88 211q99 92 276 92q170 0 304 -78zM588 1464l192 -133l-311 -276l-133 98z" />
    <glyph glyph-name="Scircumflex" unicode="&#x15c;" horiz-adv-x="1126" 
d="M995 1262l-141 -230q-109 98 -229 98q-91 0 -133 -47q-35 -35 -35 -86q0 -48 30 -75q10 -9 21 -16t28.5 -15t30.5 -13t42.5 -16t49.5 -18l103 -39q129 -50 186 -105q101 -96 101 -254q0 -103 -32.5 -191.5t-88.5 -145.5q-133 -140 -387 -140q-155 0 -271 58
q-102 51 -200 149l163 225q66 -66 127 -104q79 -49 172 -49q90 0 144 47q49 42 49 111q0 57 -47 98q-39 32 -160 76l-112 38q-41 15 -67.5 26.5t-62.5 33.5t-61 49q-82 87 -82 238q0 185 119 307q122 125 338 125q223 0 405 -135zM317 1487l-131 145l385 287l387 -287
l-135 -145l-252 190z" />
    <glyph glyph-name="scircumflex" unicode="&#x15d;" horiz-adv-x="888" 
d="M791 866l-117 -186q-85 51 -162 51q-58 0 -84 -26q-18 -18 -18 -41q0 -25 28 -41q9 -5 21 -9.5t35 -11.5t32 -10l78 -25q98 -31 152 -80q71 -66 71 -174q0 -145 -94 -239q-105 -105 -297 -105q-225 0 -375 131l125 199q55 -47 101 -68q57 -28 123 -28q65 0 92 20
q30 23 30 60q0 34 -32 53q-25 15 -90 33l-74 22q-92 28 -148 84q-65 68 -65 166q0 130 88 211q99 92 276 92q170 0 304 -78zM469 1249l-244 -194l-131 141l375 291l377 -291l-135 -141z" />
    <glyph glyph-name="Scedilla" unicode="&#x15e;" horiz-adv-x="1126" 
d="M995 1262l-141 -230q-109 98 -229 98q-91 0 -133 -47q-35 -35 -35 -86q0 -48 30 -75q10 -9 21 -16t28.5 -15t30.5 -13t42.5 -16t49.5 -18l103 -39q129 -50 186 -105q101 -96 101 -254q0 -103 -32.5 -191.5t-88.5 -145.5q-133 -140 -387 -140q-155 0 -271 58
q-102 51 -200 149l163 225q66 -66 127 -104q79 -49 172 -49q90 0 144 47q49 42 49 111q0 57 -47 98q-39 32 -160 76l-112 38q-41 15 -67.5 26.5t-62.5 33.5t-61 49q-82 87 -82 238q0 185 119 307q122 125 338 125q223 0 405 -135zM496 -94l204 -90l-229 -299l-164 82z" />
    <glyph glyph-name="scedilla" unicode="&#x15f;" horiz-adv-x="888" 
d="M791 866l-117 -186q-85 51 -162 51q-58 0 -84 -26q-18 -18 -18 -41q0 -25 28 -41q9 -5 21 -9.5t35 -11.5t32 -10l78 -25q98 -31 152 -80q71 -66 71 -174q0 -145 -94 -239q-105 -105 -297 -105q-225 0 -375 131l125 199q55 -47 101 -68q57 -28 123 -28q65 0 92 20
q30 23 30 60q0 34 -32 53q-25 15 -90 33l-74 22q-92 28 -148 84q-65 68 -65 166q0 130 88 211q99 92 276 92q170 0 304 -78zM399 -94l193 -90l-242 -299l-151 82z" />
    <glyph glyph-name="Scaron" unicode="&#x160;" horiz-adv-x="1126" 
d="M995 1262l-141 -230q-109 98 -229 98q-91 0 -133 -47q-35 -35 -35 -86q0 -48 30 -75q10 -9 21 -16t28.5 -15t30.5 -13t42.5 -16t49.5 -18l103 -39q129 -50 186 -105q101 -96 101 -254q0 -103 -32.5 -191.5t-88.5 -145.5q-133 -140 -387 -140q-155 0 -271 58
q-102 51 -200 149l163 225q66 -66 127 -104q79 -49 172 -49q90 0 144 47q49 42 49 111q0 57 -47 98q-39 32 -160 76l-112 38q-41 15 -67.5 26.5t-62.5 33.5t-61 49q-82 87 -82 238q0 185 119 307q122 125 338 125q223 0 405 -135zM571 1729l252 190l135 -143l-387 -289
l-385 289l131 143z" />
    <glyph glyph-name="scaron" unicode="&#x161;" horiz-adv-x="888" 
d="M791 866l-117 -186q-85 51 -162 51q-58 0 -84 -26q-18 -18 -18 -41q0 -25 28 -41q9 -5 21 -9.5t35 -11.5t32 -10l78 -25q98 -31 152 -80q71 -66 71 -174q0 -145 -94 -239q-105 -105 -297 -105q-225 0 -375 131l125 199q55 -47 101 -68q57 -28 123 -28q65 0 92 20
q30 23 30 60q0 34 -32 53q-25 15 -90 33l-74 22q-92 28 -148 84q-65 68 -65 166q0 130 88 211q99 92 276 92q170 0 304 -78zM469 1292l242 195l135 -139l-377 -293l-375 293l131 139z" />
    <glyph glyph-name="Tcedilla" unicode="&#x162;" horiz-adv-x="942" 
d="M926 1100h-297v-1100h-316v1100h-297v266h910v-266zM418 -94l205 -90l-230 -299l-164 82z" />
    <glyph glyph-name="tcedilla" unicode="&#x163;" horiz-adv-x="612" 
d="M600 676h-182v-676h-295v676h-103v237h103v295h295v-295h182v-237zM236 -94l192 -90l-242 -299l-151 82z" />
    <glyph glyph-name="Tcaron" unicode="&#x164;" horiz-adv-x="942" 
d="M629 1100h297v266h-910v-266h297v-1100h316v1100zM471 1729l252 190l135 -143l-387 -289l-385 289l131 143z" />
    <glyph glyph-name="tcaron" unicode="&#x165;" horiz-adv-x="903" 
d="M600 676h-182v-676h-295v676h-103v237h103v295h295v-295h182v-237zM512 1008l143 426l267 -62l-230 -405z" />
    <glyph glyph-name="Utilde" unicode="&#x168;" horiz-adv-x="1454" 
d="M1305 1366v-809q0 -124 -30.5 -231t-121.5 -201q-89 -92 -193.5 -124t-232.5 -32t-232.5 32t-193.5 124q-48 50 -80 106t-46.5 114.5t-19.5 106t-5 105.5v809h315v-801q0 -155 72 -229q67 -72 190 -72q124 0 191 72q71 73 71 229v801h316zM975 1776l145 -103
q-34 -67 -86 -119q-63 -63 -145 -63q-45 0 -127 33l-84 32q-63 23 -76 23q-62 0 -94 -80l-146 103q34 75 76 120q59 62 150 62q50 0 123 -29l82 -33q4 -1 22.5 -9t32.5 -11.5t29 -3.5q66 0 98 78z" />
    <glyph glyph-name="utilde" unicode="&#x169;" horiz-adv-x="1167" 
d="M115 913h295v-503q0 -101 51 -148q48 -43 123 -43q79 0 125 43q49 47 49 148v503h295v-532q0 -93 -20 -162.5t-83 -130.5q-121 -119 -366 -119q-248 0 -369 119q-58 57 -79 123t-21 151v551zM821 1346l135 -91q-30 -76 -79 -129q-61 -61 -144 -61q-40 0 -121 29l-71 26
q-70 27 -101 27q-60 0 -88 -76l-133 90q23 79 70 129q56 62 145 62q56 0 127 -27l70 -27q73 -28 108 -28q36 0 56 24t26 52z" />
    <glyph glyph-name="Umacron" unicode="&#x16a;" horiz-adv-x="1454" 
d="M1305 1366v-809q0 -124 -30.5 -231t-121.5 -201q-89 -92 -193.5 -124t-232.5 -32t-232.5 32t-193.5 124q-48 50 -80 106t-46.5 114.5t-19.5 106t-5 105.5v809h315v-801q0 -155 72 -229q67 -72 190 -72q124 0 191 72q71 73 71 229v801h316zM322 1542v189h794v-189h-794z
" />
    <glyph glyph-name="umacron" unicode="&#x16b;" horiz-adv-x="1167" 
d="M115 913h295v-503q0 -101 51 -148q48 -43 123 -43q79 0 125 43q49 47 49 148v503h295v-532q0 -93 -20 -162.5t-83 -130.5q-121 -119 -366 -119q-248 0 -369 119q-58 57 -79 123t-21 151v551zM178 1112v184h778v-184h-778z" />
    <glyph glyph-name="Ubreve" unicode="&#x16c;" horiz-adv-x="1454" 
d="M1305 1366v-809q0 -124 -30.5 -231t-121.5 -201q-89 -92 -193.5 -124t-232.5 -32t-232.5 32t-193.5 124q-48 50 -80 106t-46.5 114.5t-19.5 106t-5 105.5v809h315v-801q0 -155 72 -229q67 -72 190 -72q124 0 191 72q71 73 71 229v801h316zM883 1790h196
q-15 -136 -94 -215q-90 -90 -258 -90t-258 90q-79 79 -94 215h196q6 -49 39 -86q40 -43 117 -43t117 43q33 37 39 86z" />
    <glyph glyph-name="ubreve" unicode="&#x16d;" horiz-adv-x="1167" 
d="M115 913h295v-503q0 -101 51 -148q48 -43 123 -43q79 0 125 43q49 47 49 148v503h295v-532q0 -93 -20 -162.5t-83 -130.5q-121 -119 -366 -119q-248 0 -369 119q-58 57 -79 123t-21 151v551zM737 1360h193q-9 -125 -90 -209q-90 -92 -256 -92t-256 92q-81 84 -90 209h192
q8 -51 43 -86q41 -39 111 -39q69 0 110 39q35 35 43 86z" />
    <glyph glyph-name="Uring" unicode="&#x16e;" horiz-adv-x="1454" 
d="M1305 1366v-809q0 -124 -30.5 -231t-121.5 -201q-89 -92 -193.5 -124t-232.5 -32t-232.5 32t-193.5 124q-48 50 -80 106t-46.5 114.5t-19.5 106t-5 105.5v809h315v-801q0 -155 72 -229q67 -72 190 -72q124 0 191 72q71 73 71 229v801h316zM965 1694q0 -79 -56 -135
q-69 -66 -182 -66t-182 66q-56 56 -56 135t56 135q68 65 182 65t182 -65q56 -56 56 -135zM727 1774q-45 0 -70 -25q-24 -24 -24 -55q0 -32 24 -56t70 -24t70 24t24 56q0 31 -24 55q-25 25 -70 25z" />
    <glyph glyph-name="uring" unicode="&#x16f;" horiz-adv-x="1167" 
d="M115 913h295v-503q0 -101 51 -148q48 -43 123 -43q79 0 125 43q49 47 49 148v503h295v-532q0 -93 -20 -162.5t-83 -130.5q-121 -119 -366 -119q-248 0 -369 119q-58 57 -79 123t-21 151v551zM817 1257q0 -78 -55 -133q-67 -63 -178 -63t-178 63q-56 56 -56 133
q0 78 56 134q67 63 178 63t178 -63q55 -55 55 -134zM584 1331q-40 0 -64 -18q-26 -22 -26 -56q0 -33 26 -55q24 -18 64 -18q39 0 63 18q27 23 27 55q0 33 -27 56q-24 18 -63 18z" />
    <glyph glyph-name="Uhungarumlaut" unicode="&#x170;" horiz-adv-x="1454" 
d="M1305 1366v-809q0 -124 -30.5 -231t-121.5 -201q-89 -92 -193.5 -124t-232.5 -32t-232.5 32t-193.5 124q-48 50 -80 106t-46.5 114.5t-19.5 106t-5 105.5v809h315v-801q0 -155 72 -229q67 -72 190 -72q124 0 191 72q71 73 71 229v801h316zM655 1894l176 -135l-286 -276
l-113 98zM1036 1894l178 -135l-286 -276l-115 98z" />
    <glyph glyph-name="uhungarumlaut" unicode="&#x171;" horiz-adv-x="1167" 
d="M115 913h295v-503q0 -101 51 -148q48 -43 123 -43q79 0 125 43q49 47 49 148v503h295v-532q0 -93 -20 -162.5t-83 -130.5q-121 -119 -366 -119q-248 0 -369 119q-58 57 -79 123t-21 151v551zM463 1454l168 -135l-275 -277l-106 99zM831 1452l170 -133l-274 -277l-109 99z
" />
    <glyph glyph-name="Uogonek" unicode="&#x172;" horiz-adv-x="1454" 
d="M1305 1366v-809q0 -198 -64 -317q-59 -113 -209 -205q-8 -5 -33 -20t-39 -24t-35.5 -26.5t-37.5 -36.5q-39 -45 -39 -94q0 -30 22 -49q21 -18 58 -18q57 0 102 30l-37 -157q-59 -35 -133 -35q-88 0 -141 49q-47 44 -47 115q0 58 33 114q24 41 67 88q-23 -2 -65 -2
q-250 0 -406 156q-91 95 -121 201t-30 231v809h315v-801q0 -155 72 -229q67 -72 190 -72q124 0 191 72q71 73 71 229v801h316z" />
    <glyph glyph-name="uogonek" unicode="&#x173;" horiz-adv-x="1167" 
d="M115 913h295v-503q0 -101 51 -148q48 -43 123 -43q79 0 125 43q49 47 49 148v503h295v-532q0 -39 -2.5 -65.5t-11 -66t-30.5 -77.5t-57 -74q-28 -30 -104 -84q-69 -42 -109 -84q-41 -41 -41 -77t25 -58q20 -20 59 -20q48 0 103 30l-37 -157q-59 -35 -137 -35
q-89 0 -138 49q-47 47 -47 117q0 46 31 102q24 47 70 90q-18 -2 -60 -2q-228 0 -352 119q-58 57 -79 123t-21 151v551z" />
    <glyph glyph-name="Ydieresis" unicode="&#x178;" horiz-adv-x="1294" 
d="M489 0v637l-489 729h373l274 -424l275 424h372l-489 -729v-637h-316zM262 1661q0 66 48 114t114 48t114 -48t48 -114t-48 -114t-114 -48t-114 48t-48 114zM709 1661q0 66 47.5 114t113.5 48t114 -48t48 -114t-48 -114t-114 -48t-113.5 48t-47.5 114z" />
    <glyph glyph-name="Zacute" unicode="&#x179;" horiz-adv-x="1261" 
d="M1217 1366l-654 -1100h586v-266h-1104l655 1100h-548v266h1065zM764 1894l194 -147l-335 -264l-134 108z" />
    <glyph glyph-name="zacute" unicode="&#x17a;" horiz-adv-x="1021" 
d="M997 913l-473 -667h432v-246h-931l475 668h-404v245h901zM637 1464l192 -133l-311 -276l-133 98z" />
    <glyph glyph-name="Zdotaccent" unicode="&#x17b;" horiz-adv-x="1261" 
d="M1217 1366l-654 -1100h586v-266h-1104l655 1100h-548v266h1065zM481 1669q0 73 50.5 123.5t123.5 50.5t123.5 -50.5t50.5 -123.5t-50.5 -123.5t-123.5 -50.5t-123.5 50.5t-50.5 123.5z" />
    <glyph glyph-name="zdotaccent" unicode="&#x17c;" horiz-adv-x="1021" 
d="M997 913l-473 -667h432v-246h-931l475 668h-404v245h901zM328 1235q0 72 49 121t121 49t121 -49t49 -121t-49 -121t-121 -49t-121 49t-49 121z" />
    <glyph glyph-name="Zcaron" unicode="&#x17d;" horiz-adv-x="1261" 
d="M1217 1366l-654 -1100h586v-266h-1104l655 1100h-548v266h1065zM643 1729l252 190l135 -143l-387 -289l-385 289l131 143z" />
    <glyph glyph-name="zcaron" unicode="&#x17e;" horiz-adv-x="1021" 
d="M997 913l-473 -667h432v-246h-931l475 668h-404v245h901zM510 1292l242 195l135 -139l-377 -293l-375 293l131 139z" />
    <glyph glyph-name="uni018F" unicode="&#x18f;" horiz-adv-x="1566" 
d="M86 768h1065q-2 22 -8.5 51.5t-32.5 87t-66 97.5q-100 102 -274 102q-121 0 -205 -47q-82 -45 -135 -133l-291 112q95 162 236 250q170 109 422 109q298 0 485 -185q199 -194 199 -522q0 -339 -209 -543q-106 -102 -224 -140t-266 -38q-150 0 -259 38.5t-206 135.5
q-119 121 -175 291.5t-56 325.5v8zM1145 547h-709q15 -121 90 -199q92 -96 260 -96q155 0 250 86q90 82 109 209z" />
    <glyph glyph-name="florin" unicode="&#x192;" horiz-adv-x="1228" 
d="M375 242l88 487h-139l30 184h142l41 236q13 73 45 146t77 120q96 101 263 101q115 0 202 -41l-47 -252q-52 34 -119 34q-55 0 -88 -30q-43 -40 -61 -156l-27 -158h209l-33 -184h-208l-99 -549q-10 -51 -16.5 -83t-22.5 -89.5t-33.5 -98.5t-46 -87.5t-63.5 -79.5
q-127 -119 -360 -119q-57 0 -125 15l47 262q42 -11 84 -11q106 0 157 58q63 70 103 295z" />
    <glyph glyph-name="uni01CF" unicode="&#x1cf;" horiz-adv-x="626" 
d="M156 1366h315v-1366h-315v1366zM313 1729l252 190l135 -143l-387 -289l-385 289l131 143z" />
    <glyph glyph-name="uni01D0" unicode="&#x1d0;" horiz-adv-x="565" 
d="M135 913h295v-913h-295v913zM283 1309l190 178l135 -141l-325 -291l-326 291l133 141z" />
    <glyph glyph-name="uni01DD" unicode="&#x1dd;" horiz-adv-x="1120" 
d="M741 344h-399q12 -70 59 -113q55 -51 142 -51q89 0 147 60q41 48 51 104zM70 477v37h680q0 87 -54 148q-52 59 -147 59q-82 0 -123 -27q-4 -2 -12.5 -9t-24.5 -25.5t-27 -41.5l-278 29q48 150 176 230q108 67 291 67q112 0 200 -28.5t162 -102.5q138 -141 138 -348
q0 -105 -36 -201t-104 -164q-131 -131 -354 -131q-229 0 -358 137q-129 136 -129 371z" />
    <glyph glyph-name="Gcaron" unicode="&#x1e6;" horiz-adv-x="1570" 
d="M807 492v253h678v-14q0 -142 -53 -304t-158 -271q-104 -108 -224.5 -147.5t-263.5 -39.5q-146 0 -268 39.5t-231 151.5q-201 206 -201 520q0 161 53 293.5t144 224.5q60 62 130 104t142.5 61.5t133 26.5t130.5 7q227 0 383 -103q66 -44 124 -109t97 -134l-284 -154
q-47 93 -121 147q-89 66 -209 66q-178 0 -283 -111q-116 -122 -116 -323q0 -200 114 -314q103 -106 277 -106q152 0 237 74q11 9 25 23.5t38 54t36 84.5h-330zM786 1729l252 190l136 -143l-388 -289l-385 289l131 143z" />
    <glyph glyph-name="gcaron" unicode="&#x1e7;" horiz-adv-x="1218" 
d="M809 807v106h295v-858q0 -125 -21 -218.5t-92 -170.5q-126 -135 -385 -135q-244 0 -381 117q-112 96 -137 241h322q15 -58 65 -90q46 -30 127 -30q94 0 148 49q59 57 59 190v105q-85 -138 -272 -138q-205 0 -334 129q-133 137 -133 345q0 112 37 206.5t98 157.5
q126 131 332 131q180 0 272 -137zM604 688q-100 0 -162 -59q-32 -31 -50.5 -78.5t-18.5 -91.5q0 -98 63 -164t166 -66q96 0 160 60q72 69 72 174q0 102 -70 168q-63 57 -160 57zM559 1292l242 195l135 -139l-377 -293l-375 293l131 139z" />
    <glyph glyph-name="AEacute" unicode="&#x1fc;" horiz-adv-x="1884" 
d="M1069 0l-104 264h-523l-102 -264h-328l559 1366h777l98 -266h-475l104 -264h471l103 -267h-473l120 -303h476l100 -266h-803zM535 506h344l-168 448zM1055 1894l194 -147l-336 -264l-133 108z" />
    <glyph glyph-name="aeacute" unicode="&#x1fd;" horiz-adv-x="1720" 
d="M1364 295l276 -19q-50 -153 -178 -237q-108 -70 -278 -70q-141 0 -223 41q-68 33 -132 109q-59 -79 -153 -117q-84 -33 -219 -33q-206 0 -307 101q-80 80 -80 204q0 116 75 191q106 106 322 106q125 0 215 -55v19q0 38 -14.5 74.5t-38.5 60.5q-57 57 -178 57
q-103 0 -236 -45v225q129 37 268 37q94 0 163.5 -22t107.5 -55t67 -81q47 62 116 99.5t123.5 48t110.5 10.5q228 0 357 -139q123 -134 123 -371v-28h-668q3 -97 61 -158q53 -58 150 -58q64 0 104 25q47 28 66 80zM506 391q-91 0 -135 -47q-27 -27 -27 -63q0 -34 27 -64
q47 -47 133 -47q96 0 143 47q27 27 27 64q0 33 -27 63q-47 47 -141 47zM991 582h383q-12 67 -59 110q-52 47 -131 47q-82 0 -127 -43q-47 -42 -66 -114zM997 1464l193 -133l-311 -276l-134 98z" />
    <glyph glyph-name="Scommaaccent" unicode="&#x218;" horiz-adv-x="1126" 
d="M995 1262l-141 -230q-109 98 -229 98q-91 0 -133 -47q-35 -35 -35 -86q0 -48 30 -75q10 -9 21 -16t28.5 -15t30.5 -13t42.5 -16t49.5 -18l103 -39q129 -50 186 -105q101 -96 101 -254q0 -103 -32.5 -191.5t-88.5 -145.5q-133 -140 -387 -140q-155 0 -271 58
q-102 51 -200 149l163 225q66 -66 127 -104q79 -49 172 -49q90 0 144 47q49 42 49 111q0 57 -47 98q-39 32 -160 76l-112 38q-41 15 -67.5 26.5t-62.5 33.5t-61 49q-82 87 -82 238q0 185 119 307q122 125 338 125q223 0 405 -135zM289 -508l114 406l275 -33l-201 -397z" />
    <glyph glyph-name="scommaaccent" unicode="&#x219;" horiz-adv-x="888" 
d="M791 866l-117 -186q-85 51 -162 51q-58 0 -84 -26q-18 -18 -18 -41q0 -25 28 -41q9 -5 21 -9.5t35 -11.5t32 -10l78 -25q98 -31 152 -80q71 -66 71 -174q0 -145 -94 -239q-105 -105 -297 -105q-225 0 -375 131l125 199q55 -47 101 -68q57 -28 123 -28q65 0 92 20
q30 23 30 60q0 34 -32 53q-25 15 -90 33l-74 22q-92 28 -148 84q-65 68 -65 166q0 130 88 211q99 92 276 92q170 0 304 -78zM233 -487l115 385l275 -33l-201 -377z" />
    <glyph glyph-name="Tcommaaccent" unicode="&#x21a;" horiz-adv-x="942" 
d="M926 1100h-297v-1100h-316v1100h-297v266h910v-266zM225 -508l115 406l274 -33l-200 -397z" />
    <glyph glyph-name="tcommaaccent" unicode="&#x21b;" horiz-adv-x="612" 
d="M600 676h-182v-676h-295v676h-103v237h103v295h295v-295h182v-237zM72 -487l114 385l275 -33l-201 -377z" />
    <glyph glyph-name="uni0228" unicode="&#x228;" horiz-adv-x="1028" 
d="M922 1366v-266h-457v-264h434v-267h-434v-303h457v-266h-772v1366h772zM520 -94l205 -90l-229 -299l-164 82z" />
    <glyph glyph-name="uni0229" unicode="&#x229;" horiz-adv-x="1120" 
d="M379 582h399q-16 65 -59 106q-54 51 -139 51q-91 0 -150 -59q-40 -44 -51 -98zM1051 436v-30h-682q0 -40 14.5 -83.5t40.5 -72.5q52 -57 151 -57q74 0 119 26q4 2 12.5 9t24.5 25.5t27 41.5l278 -29q-47 -149 -176 -229q-113 -68 -289 -68q-114 0 -202 28.5t-162 102.5
q-137 137 -137 353q0 101 36 196t103 164q131 131 350 131q233 0 363 -137q129 -136 129 -371zM535 -94l192 -90l-242 -299l-151 82z" />
    <glyph glyph-name="uni0237" unicode="&#x237;" horiz-adv-x="565" 
d="M135 913h295v-1382h-295v1382z" />
    <glyph glyph-name="uni0259" unicode="&#x259;" horiz-adv-x="1120" 
d="M741 344h-399q12 -70 59 -113q55 -51 142 -51q89 0 147 60q41 48 51 104zM70 477v37h680q0 87 -54 148q-52 59 -147 59q-82 0 -123 -27q-4 -2 -12.5 -9t-24.5 -25.5t-27 -41.5l-278 29q48 150 176 230q108 67 291 67q112 0 200 -28.5t162 -102.5q138 -141 138 -348
q0 -105 -36 -201t-104 -164q-131 -131 -354 -131q-229 0 -358 137q-129 136 -129 371z" />
    <glyph glyph-name="afii57929" unicode="&#x2bc;" 
d="M246 1008l143 426l266 -62l-229 -405z" />
    <glyph glyph-name="circumflex" unicode="&#x2c6;" 
d="M510 1249l-244 -194l-131 141l375 291l377 -291l-135 -141z" />
    <glyph glyph-name="caron" unicode="&#x2c7;" 
d="M510 1292l242 195l135 -139l-377 -293l-375 293l131 139z" />
    <glyph glyph-name="uni02C9" unicode="&#x2c9;" 
d="M123 1112v184h778v-184h-778z" />
    <glyph glyph-name="breve" unicode="&#x2d8;" 
d="M666 1360h192q-9 -125 -90 -209q-90 -92 -256 -92t-256 92q-81 84 -90 209h192q8 -51 43 -86q41 -39 111 -39t111 39q35 35 43 86z" />
    <glyph glyph-name="dotaccent" unicode="&#x2d9;" 
d="M342 1235q0 72 49 121t121 49t121 -49t49 -121t-49 -121t-121 -49t-121 49t-49 121z" />
    <glyph glyph-name="ring" unicode="&#x2da;" 
d="M745 1257q0 -78 -55 -133q-67 -63 -178 -63t-178 63q-55 55 -55 133q0 79 55 134q67 63 178 63t178 -63q55 -55 55 -134zM512 1331q-39 0 -63 -18q-27 -23 -27 -56q0 -32 27 -55q24 -18 63 -18t63 18q27 23 27 55q0 33 -27 56q-24 18 -63 18z" />
    <glyph glyph-name="ogonek" unicode="&#x2db;" 
d="M772 -195l-37 -157q-59 -35 -135 -35q-90 0 -139 49q-47 47 -47 115q0 63 43 125q35 49 88 98h135q-43 -43 -55 -57q-39 -45 -39 -90q0 -37 24 -58q23 -20 60 -20q47 0 102 30z" />
    <glyph glyph-name="tilde" unicode="&#x2dc;" 
d="M745 1346l136 -91q-12 -31 -35 -68.5t-45 -60.5q-61 -61 -144 -61q-39 0 -120 29l-72 26q-71 27 -100 27q-61 0 -89 -76l-133 90q23 79 70 129q56 62 145 62q56 0 127 -27l70 -27q73 -28 109 -28t55.5 23.5t25.5 52.5z" />
    <glyph glyph-name="hungarumlaut" unicode="&#x2dd;" 
d="M430 1454l168 -135l-274 -277l-107 99zM799 1452l170 -133l-275 -277l-108 99z" />
    <glyph glyph-name="acutecomb" unicode="&#x301;" horiz-adv-x="4" 
d="M-414 1464l193 -133l-311 -276l-134 98z" />
    <glyph glyph-name="uni0394" unicode="&#x394;" horiz-adv-x="1370" 
d="M1333 0h-1296l506 1366h278zM684 991l-264 -753h526z" />
    <glyph glyph-name="uni0394" unicode="&#x2206;" horiz-adv-x="1370" 
d="M1333 0h-1296l506 1366h278zM684 991l-264 -753h526z" />
    <glyph glyph-name="uni03A9" unicode="&#x3a9;" horiz-adv-x="1409" 
d="M780 0v221q130 58 201 193q68 128 68 297q0 225 -121 342q-42 41 -101.5 63.5t-121.5 22.5t-122 -22.5t-102 -63.5q-121 -117 -121 -342q0 -169 68 -297q71 -135 201 -193v-221h-549v238h272q-62 35 -114 84q-90 89 -127 204t-37 222q0 144 48 265.5t132 205.5
q178 178 451 178q272 0 450 -178q84 -84 132 -205.5t48 -265.5q0 -107 -37 -222t-127 -204q-52 -49 -114 -84h272v-238h-549z" />
    <glyph glyph-name="uni03A9" unicode="&#x2126;" horiz-adv-x="1409" 
d="M780 0v221q130 58 201 193q68 128 68 297q0 225 -121 342q-42 41 -101.5 63.5t-121.5 22.5t-122 -22.5t-102 -63.5q-121 -117 -121 -342q0 -169 68 -297q71 -135 201 -193v-221h-549v238h272q-62 35 -114 84q-90 89 -127 204t-37 222q0 144 48 265.5t132 205.5
q178 178 451 178q272 0 450 -178q84 -84 132 -205.5t48 -265.5q0 -107 -37 -222t-127 -204q-52 -49 -114 -84h272v-238h-549z" />
    <glyph glyph-name="pi" unicode="&#x3c0;" horiz-adv-x="1384" 
d="M586 0h-295v676h-156v237h1237v-237h-155v-676h-295v676h-336v-676z" />
    <glyph glyph-name="afii10023" unicode="&#x401;" horiz-adv-x="1028" 
d="M922 1366v-266h-457v-264h434v-267h-434v-303h457v-266h-772v1366h772zM170 1636q0 64 45 109t109 45t108.5 -44.5t44.5 -109.5q0 -64 -44.5 -108.5t-108.5 -44.5q-65 0 -109.5 44.5t-44.5 108.5zM598 1636q0 64 45 109t109 45t108.5 -44.5t44.5 -109.5
q0 -64 -44.5 -108.5t-108.5 -44.5q-65 0 -109.5 44.5t-44.5 108.5z" />
    <glyph glyph-name="afii10051" unicode="&#x402;" horiz-adv-x="1384" 
d="M283 0v1100h-267v266h1033v-266h-451v-297q123 47 246 47q170 0 289 -64q198 -109 198 -370q0 -134 -48 -220.5t-118 -132.5q-58 -37 -145.5 -56t-173.5 -19q-43 0 -117 12v250q55 -12 111 -12q73 0 114 32q54 43 54 136q0 112 -76 153q-45 25 -129 25q-99 0 -205 -47
v-537h-315z" />
    <glyph glyph-name="afii10052" unicode="&#x403;" horiz-adv-x="940" 
d="M915 1366v-266h-450v-1100h-315v1366h765zM666 1894l194 -147l-336 -264l-133 108z" />
    <glyph glyph-name="afii10053" unicode="&#x404;" horiz-adv-x="1275" 
d="M1174 397v-331q-165 -97 -406 -97q-93 0 -166.5 11.5t-161 53.5t-159.5 116q-195 199 -195 536q0 335 197 528q185 183 499 183q201 0 392 -99v-335q-75 65 -142 96q-102 51 -225 51q-173 0 -272 -90q-87 -77 -111 -203h524v-254h-526q17 -141 125 -227q97 -80 268 -80
q128 0 219 45q69 32 140 96z" />
    <glyph glyph-name="afii10054" unicode="&#x405;" horiz-adv-x="1126" 
d="M995 1262l-141 -230q-109 98 -229 98q-91 0 -133 -47q-35 -35 -35 -86q0 -48 30 -75q10 -9 21 -16t28.5 -15t30.5 -13t42.5 -16t49.5 -18l103 -39q129 -50 186 -105q101 -96 101 -254q0 -103 -32.5 -191.5t-88.5 -145.5q-133 -140 -387 -140q-155 0 -271 58
q-102 51 -200 149l163 225q66 -66 127 -104q79 -49 172 -49q90 0 144 47q49 42 49 111q0 57 -47 98q-39 32 -160 76l-112 38q-41 15 -67.5 26.5t-62.5 33.5t-61 49q-82 87 -82 238q0 185 119 307q122 125 338 125q223 0 405 -135z" />
    <glyph glyph-name="afii10055" unicode="&#x406;" horiz-adv-x="626" 
d="M156 1366h315v-1366h-315v1366z" />
    <glyph glyph-name="afii10056" unicode="&#x407;" horiz-adv-x="690" 
d="M188 1366h316v-1366h-316v1366zM385 1661q0 66 42.5 114t100.5 48q59 0 101.5 -48t42.5 -114t-42.5 -114t-101.5 -48q-58 0 -100.5 48t-42.5 114zM18 1661q0 66 42.5 114t101.5 48q58 0 100.5 -48t42.5 -114t-42.5 -114t-100.5 -48q-59 0 -101.5 48t-42.5 114z" />
    <glyph glyph-name="afii10057" unicode="&#x408;" horiz-adv-x="849" 
d="M385 1366h315v-930q0 -50 -3 -86.5t-13.5 -89.5t-36 -101t-65.5 -87q-103 -103 -289 -103q-135 0 -217 49q-72 45 -129 115l196 221q23 -48 50 -75q31 -31 77 -31t74 28q41 41 41 162v928z" />
    <glyph glyph-name="afii10058" unicode="&#x409;" horiz-adv-x="2013" 
d="M963 0v1100h-371v-469q0 -192 -30 -326.5t-107 -212.5q-108 -108 -308 -108q-65 0 -127 16v283q37 -13 78 -13q80 0 125 45q38 38 50 110.5t12 176.5v764h993v-532h192q252 0 375 -115q115 -108 115 -303t-111 -301q-52 -49 -128 -76.5t-132 -33t-129 -5.5h-497z
M1278 580v-326h139q113 0 164 37q59 38 59 127q0 39 -13 70t-24 42.5t-20 16.5q-47 33 -164 33h-141z" />
    <glyph glyph-name="afii10059" unicode="&#x40a;" horiz-adv-x="2060" 
d="M1010 0v580h-545v-580h-315v1366h315v-520h545v520h315v-532h193q251 0 374 -115q115 -108 115 -303t-111 -301q-52 -49 -128 -76.5t-132 -33t-129 -5.5h-497zM1325 580v-326h139q113 0 164 37q60 38 60 127q0 39 -13.5 70t-24.5 42.5t-20 16.5q-47 33 -164 33h-141z" />
    <glyph glyph-name="afii10060" unicode="&#x40b;" horiz-adv-x="1476" 
d="M283 0v1100h-267v266h1033v-266h-451v-271q155 21 272 21q286 0 406 -115q102 -95 102 -278v-457h-315v360q0 121 -49 168q-56 56 -215 56q-102 0 -201 -17v-567h-315z" />
    <glyph glyph-name="afii10061" unicode="&#x40c;" horiz-adv-x="1372" 
d="M465 1366v-569l467 569h385l-553 -647l596 -719h-406l-489 606v-606h-315v1366h315zM799 1894l194 -147l-336 -264l-133 108z" />
    <glyph glyph-name="afii10062" unicode="&#x40e;" horiz-adv-x="1273" 
d="M8 1366h352l287 -631l275 631h340l-625 -1366h-340l199 393zM821 1817l217 -93q-50 -117 -155 -184q-95 -57 -252 -57q-155 0 -250 57q-107 68 -156 184l217 93q26 -68 68 -99q47 -35 125 -35q75 0 121 35q46 37 65 99z" />
    <glyph glyph-name="afii10145" unicode="&#x40f;" horiz-adv-x="1435" 
d="M150 0v1366h315v-1100h506v1100h315v-1366h-426v-340h-282v340h-428z" />
    <glyph glyph-name="afii10017" unicode="&#x410;" horiz-adv-x="1386" 
d="M1055 0l-103 258h-516l-104 -258h-328l551 1366h289l538 -1366h-327zM528 500h338l-168 458z" />
    <glyph glyph-name="afii10018" unicode="&#x411;" horiz-adv-x="1222" 
d="M150 0v1366h843v-266h-528v-273h176q52 0 95.5 -4.5t96.5 -16.5t102.5 -39t90.5 -67q111 -111 111 -284q0 -182 -111 -293q-70 -70 -171.5 -96.5t-240.5 -26.5h-464zM465 254h125q116 0 170 43q53 46 53 121q0 85 -61 127q-52 37 -162 37h-125v-328z" />
    <glyph glyph-name="afii10019" unicode="&#x412;" horiz-adv-x="1216" 
d="M150 1366h417q238 0 348 -104q99 -94 99 -258q0 -103 -45 -175q-43 -69 -115 -100q113 -17 188 -92q88 -88 88 -244q0 -170 -106 -276q-121 -117 -360 -117h-514v1366zM461 1120v-309h51q107 0 160 39q55 38 55 121q0 76 -53 114q-21 16 -52 24.5t-52 9.5t-60 1h-49z
M461 578v-332h76q52 0 85.5 2t77.5 15t70 38q45 42 45 115q0 71 -43 110q-56 52 -225 52h-86z" />
    <glyph glyph-name="afii10020" unicode="&#x413;" horiz-adv-x="940" 
d="M915 1366v-266h-450v-1100h-315v1366h765z" />
    <glyph glyph-name="afii10021" unicode="&#x414;" horiz-adv-x="1435" 
d="M283 1366h979v-1104h153v-569h-282v307h-838v-307h-283v569q95 17 154 76q41 38 66.5 90.5t35.5 121.5t12.5 116t2.5 122v578zM586 1104v-305q0 -221 -27 -320q-34 -126 -123 -217h514v842h-364z" />
    <glyph glyph-name="afii10022" unicode="&#x415;" horiz-adv-x="1028" 
d="M922 1366v-266h-457v-264h434v-267h-434v-303h457v-266h-772v1366h772z" />
    <glyph glyph-name="afii10024" unicode="&#x416;" horiz-adv-x="1927" 
d="M805 0v612l-412 -612h-381l512 709l-483 657h360l404 -586v586h315v-586l404 586h360l-483 -657l514 -709h-381l-414 612v-612h-315z" />
    <glyph glyph-name="afii10025" unicode="&#x417;" horiz-adv-x="1208" 
d="M262 1001l-139 242q83 67 186 105q128 49 266 49q240 0 367 -125q105 -102 105 -268q0 -103 -54 -179q-49 -68 -131 -100q104 -29 168 -96q92 -92 92 -244q0 -161 -110 -274q-140 -142 -412 -142q-195 0 -328 60q-108 46 -211 143l177 231q61 -71 139 -112
q82 -43 186 -43q99 0 158 41q65 47 65 127q0 69 -49 108q-65 51 -260 51h-51v254h47q166 0 225 54q39 35 39 92q0 64 -55 106q-48 37 -143 37q-79 0 -154 -35q-60 -26 -123 -82z" />
    <glyph glyph-name="afii10026" unicode="&#x418;" horiz-adv-x="1525" 
d="M150 1366h315v-893l633 909h278v-1382h-315v895l-633 -911h-278v1382z" />
    <glyph glyph-name="afii10027" unicode="&#x419;" horiz-adv-x="1525" 
d="M150 1366h315v-893l633 909h278v-1382h-315v895l-633 -911h-278v1382zM952 1817l217 -93q-50 -117 -155 -184q-95 -57 -252 -57q-155 0 -250 57q-107 68 -156 184l217 93q26 -68 68 -99q47 -35 125 -35q75 0 121 35q46 37 65 99z" />
    <glyph glyph-name="afii10028" unicode="&#x41a;" horiz-adv-x="1372" 
d="M465 1366v-569l467 569h385l-553 -647l596 -719h-406l-489 606v-606h-315v1366h315z" />
    <glyph glyph-name="afii10029" unicode="&#x41b;" horiz-adv-x="1427" 
d="M285 1366h993v-1366h-315v1100h-371v-469q0 -192 -30 -326.5t-107 -212.5q-108 -108 -308 -108q-65 0 -127 16v283q37 -13 78 -13q80 0 125 45q38 38 50 110.5t12 176.5v764z" />
    <glyph glyph-name="afii10030" unicode="&#x41c;" horiz-adv-x="1814" 
d="M401 0h-315l219 1366h262l340 -817l340 817h262l220 -1366h-316l-108 815l-342 -815h-111l-342 815z" />
    <glyph glyph-name="afii10031" unicode="&#x41d;" horiz-adv-x="1474" 
d="M465 1366v-520h545v520h315v-1366h-315v580h-545v-580h-315v1366h315z" />
    <glyph glyph-name="afii10032" unicode="&#x41e;" horiz-adv-x="1658" 
d="M831 1397q324 0 529 -199q100 -97 156.5 -229.5t56.5 -286.5q0 -142 -53 -275t-160 -237q-208 -201 -529 -201q-176 0 -309 57.5t-223 143.5q-100 94 -156.5 226.5t-56.5 281.5q0 145 58 284t153 234q84 84 216.5 142.5t317.5 58.5zM829 1106q-182 0 -299 -117
q-120 -116 -120 -309q0 -185 125 -307q118 -113 292 -113q186 0 303 117q119 115 119 305q0 98 -34 177t-85 130q-54 52 -132.5 84.5t-168.5 32.5z" />
    <glyph glyph-name="afii10033" unicode="&#x41f;" horiz-adv-x="1447" 
d="M150 1366h1148v-1366h-315v1100h-518v-1100h-315v1366z" />
    <glyph glyph-name="afii10034" unicode="&#x420;" horiz-adv-x="1171" 
d="M150 1366h481q230 0 358 -113q133 -116 133 -331q0 -201 -116 -322q-119 -121 -349 -121h-192v-479h-315v1366zM465 1108v-371h113q117 0 170 51q51 51 51 136t-51 133q-53 51 -177 51h-106z" />
    <glyph glyph-name="afii10035" unicode="&#x421;" horiz-adv-x="1239" 
d="M1137 406v-363q-147 -74 -301 -74q-334 0 -537 199q-97 94 -155 227.5t-58 290.5q0 155 58 287.5t155 226.5q95 92 225.5 144.5t284.5 52.5q151 0 328 -76v-365q-138 146 -320 146q-168 0 -278 -107q-129 -126 -129 -315q0 -187 118 -301q16 -16 36.5 -31t57.5 -36.5
t89.5 -34.5t111.5 -13q170 0 314 142z" />
    <glyph glyph-name="afii10036" unicode="&#x422;" horiz-adv-x="942" 
d="M926 1100h-297v-1100h-316v1100h-297v266h910v-266z" />
    <glyph glyph-name="afii10037" unicode="&#x423;" horiz-adv-x="1273" 
d="M8 1366h352l287 -631l275 631h340l-625 -1366h-340l199 393z" />
    <glyph glyph-name="afii10038" unicode="&#x424;" horiz-adv-x="1744" 
d="M715 0v190h-17q-45 0 -94.5 5.5t-122.5 20.5t-144 52t-122 92q-129 139 -129 375q0 226 133 367q51 55 122 92t142.5 53t121 21.5t93.5 5.5h17v188h315v-188h17q44 0 93.5 -5.5t121 -21.5t142.5 -53t122 -92q133 -141 133 -367q0 -236 -129 -375q-51 -55 -122 -92
t-144 -52t-122.5 -20.5t-94.5 -5.5h-17v-190h-315zM727 1020h-12q-160 0 -240 -80q-74 -74 -74 -209q0 -133 74 -207q80 -80 240 -80h12v576zM1018 1020v-576h12q160 0 240 80q73 73 73 207q0 136 -73 209q-80 80 -240 80h-12z" />
    <glyph glyph-name="afii10039" unicode="&#x425;" horiz-adv-x="1404" 
d="M20 0l502 725l-424 641h379l225 -389l226 389h379l-424 -641l501 -725h-378l-304 473l-303 -473h-379z" />
    <glyph glyph-name="afii10040" unicode="&#x426;" horiz-adv-x="1490" 
d="M150 0v1366h315v-1100h506v1100h315v-1100h184v-573h-282v307h-1038z" />
    <glyph glyph-name="afii10041" unicode="&#x427;" horiz-adv-x="1323" 
d="M858 0v545q-126 -21 -231 -21q-295 0 -424 121q-64 61 -84.5 134t-20.5 167v420h316v-356q0 -33 1.5 -52.5t15.5 -55.5t42 -58q56 -45 199 -45q98 0 186 16v551h316v-1366h-316z" />
    <glyph glyph-name="afii10042" unicode="&#x428;" horiz-adv-x="2019" 
d="M150 0v1366h315v-1100h387v1100h315v-1100h387v1100h316v-1366h-1720z" />
    <glyph glyph-name="afii10043" unicode="&#x429;" horiz-adv-x="2074" 
d="M1772 0h-1622v1366h315v-1100h387v1100h315v-1100h387v1100h316v-1100h184v-573h-282v307z" />
    <glyph glyph-name="afii10044" unicode="&#x42a;" horiz-adv-x="1351" 
d="M301 0v1100h-285v266h600v-532h193q252 0 375 -115q114 -107 114 -301q0 -195 -110 -303q-52 -49 -128 -76.5t-132 -33t-129 -5.5h-498zM616 580v-326h140q113 0 164 37q59 38 59 127q0 39 -13 70t-24 42.5t-20 16.5q-47 33 -164 33h-142z" />
    <glyph glyph-name="afii10045" unicode="&#x42b;" horiz-adv-x="1734" 
d="M1270 1366h315v-1366h-315v1366zM150 0v1366h315v-532h188q252 0 375 -115q115 -108 115 -303t-111 -301q-52 -49 -128 -76.5t-132 -33t-129 -5.5h-493zM465 580v-326h139q113 0 164 37q59 38 59 127q0 39 -13 70t-24 42.5t-20 16.5q-47 33 -164 33h-141z" />
    <glyph glyph-name="afii10046" unicode="&#x42c;" horiz-adv-x="1200" 
d="M150 0v1366h315v-532h192q252 0 375 -115q115 -108 115 -303t-111 -301q-52 -49 -128 -76.5t-132 -33t-129 -5.5h-497zM465 580v-326h139q113 0 164 37q59 38 59 127q0 39 -13 70t-24 42.5t-20 16.5q-47 33 -164 33h-141z" />
    <glyph glyph-name="afii10047" unicode="&#x42d;" horiz-adv-x="1275" 
d="M102 66v331q71 -64 140 -96q91 -45 219 -45q171 0 268 80q106 86 129 227h-530v254h528q-24 123 -115 203q-99 90 -272 90q-123 0 -225 -51q-67 -31 -142 -96v335q191 99 392 99q314 0 499 -183q197 -193 197 -528q0 -337 -195 -536q-72 -74 -159.5 -116t-161 -53.5
t-166.5 -11.5q-241 0 -406 97z" />
    <glyph glyph-name="afii10048" unicode="&#x42e;" horiz-adv-x="2166" 
d="M465 844h182q41 214 193 362q109 107 236 149t276 42q322 0 522 -197q207 -203 207 -508q0 -159 -55.5 -294.5t-151.5 -229.5q-199 -199 -524 -199q-319 0 -519 203q-168 170 -188 406h-178v-578h-315v1366h315v-522zM1356 1106q-172 0 -281 -109q-125 -125 -125 -315
q0 -179 111 -299q114 -123 299 -123q159 0 268 102q129 120 129 326q0 186 -115 305q-109 113 -286 113z" />
    <glyph glyph-name="afii10049" unicode="&#x42f;" horiz-adv-x="1232" 
d="M1083 1366v-1366h-315v498h-41l-321 -498h-365l393 535q-115 21 -194 96q-115 108 -115 303q0 183 111 299q75 78 169.5 105.5t208.5 27.5h469zM768 739v369h-74q-127 0 -186 -49q-59 -51 -59 -137q0 -82 53 -131q58 -52 192 -52h74z" />
    <glyph glyph-name="afii10065" unicode="&#x430;" horiz-adv-x="1224" 
d="M815 811v102h295v-913h-295v111q-92 -142 -270 -142q-104 0 -187 32t-155 108q-133 141 -133 342q0 112 38 207.5t103 160.5q125 125 317 125q190 0 287 -133zM602 690q-97 0 -162 -65q-67 -67 -67 -166q0 -98 61 -164q69 -72 174 -72q90 0 154 64q72 68 72 172
q0 103 -68 168q-66 63 -164 63z" />
    <glyph glyph-name="afii10066" unicode="&#x431;" horiz-adv-x="1230" 
d="M864 1495h258q-6 -65 -35 -131t-73 -109q-66 -66 -221 -110l-103 -29q-4 -1 -34 -9.5t-39.5 -11.5t-36 -11.5t-39.5 -14.5t-33.5 -15.5t-36 -20.5t-29.5 -23q-83 -76 -94 -193h10q115 125 314 125q222 0 354 -129q61 -60 98 -147t37 -189q0 -106 -37.5 -201t-109.5 -165
q-144 -142 -389 -142q-236 0 -377 135q-162 160 -162 471q0 106 12.5 206t55 218.5t112.5 192.5q36 39 77.5 67.5t89.5 46.5t79.5 27t81.5 21l55 12q62 14 87 20t57 20t49 32q22 25 22 57zM623 692q-99 0 -164 -65q-70 -70 -70 -172q0 -98 68 -166q66 -66 170 -66
q86 0 153 60q78 71 78 180q0 92 -67 162q-67 67 -168 67z" />
    <glyph glyph-name="afii10067" unicode="&#x432;" horiz-adv-x="1028" 
d="M115 913h489q157 0 227 -59q74 -64 74 -178q0 -93 -55 -148q-29 -33 -76 -49q81 -16 133 -65q60 -60 60 -156q0 -108 -68 -176q-82 -82 -227 -82h-557v913zM410 549h120q46 0 74 18q31 22 31 68q0 41 -27 63q-24 19 -82 19h-116v-168zM410 197h133q62 0 88 24
q28 25 28 72q0 39 -28 63q-29 25 -101 25h-120v-184z" />
    <glyph glyph-name="afii10068" unicode="&#x433;" horiz-adv-x="749" 
d="M115 0v913h614v-241h-319v-672h-295z" />
    <glyph glyph-name="afii10069" unicode="&#x434;" horiz-adv-x="1173" 
d="M213 913h809v-688h135v-483h-262v258h-625v-258h-262v483q70 7 125 58q36 33 54.5 82.5t22 89.5t3.5 104v354zM727 225v463h-244v-174q0 -100 -20 -168q-20 -65 -82 -121h346z" />
    <glyph glyph-name="afii10070" unicode="&#x435;" horiz-adv-x="1120" 
d="M379 582h399q-16 65 -59 106q-54 51 -139 51q-91 0 -150 -59q-40 -44 -51 -98zM1051 436v-30h-682q0 -40 14.5 -83.5t40.5 -72.5q52 -57 151 -57q74 0 119 26q4 2 12.5 9t24.5 25.5t27 41.5l278 -29q-47 -149 -176 -229q-113 -68 -289 -68q-114 0 -202 28.5t-162 102.5
q-137 137 -137 353q0 101 36 196t103 164q131 131 350 131q233 0 363 -137q129 -136 129 -371z" />
    <glyph glyph-name="afii10072" unicode="&#x436;" horiz-adv-x="1560" 
d="M637 913h287v-366l260 366h336l-332 -428l368 -485h-360l-272 395v-395h-287v395l-272 -395h-361l369 485l-332 428h336l260 -366v366z" />
    <glyph glyph-name="afii10073" unicode="&#x437;" horiz-adv-x="948" 
d="M197 639l-113 197q70 45 152 75q92 33 215 33q213 0 309 -94q67 -64 67 -168q0 -99 -55 -156q-37 -37 -78 -51q76 -18 123 -65q62 -59 62 -152q0 -110 -80 -190q-56 -55 -136 -77t-200 -22q-142 0 -250 41q-85 33 -164 96l125 195q56 -49 113 -74q68 -28 141 -28
q67 0 107 22q40 23 40 70q0 42 -43 61q-43 17 -106 17h-111v200h84q70 0 111 17q43 20 43 61t-45 60q-37 16 -92 16q-60 0 -121 -25q-56 -23 -98 -59z" />
    <glyph glyph-name="afii10074" unicode="&#x438;" horiz-adv-x="1187" 
d="M115 913h295v-522l389 522h274v-913h-295v530l-389 -530h-274v913z" />
    <glyph glyph-name="afii10075" unicode="&#x439;" horiz-adv-x="1187" 
d="M115 913h295v-522l389 522h274v-913h-295v530l-389 -530h-274v913zM760 1362l205 -80q-38 -114 -131 -174q-87 -57 -240 -57t-240 57q-93 60 -131 174l205 80q12 -61 53 -94q43 -37 113 -37t113 37q41 33 53 94z" />
    <glyph glyph-name="afii10076" unicode="&#x43a;" horiz-adv-x="1105" 
d="M115 0v913h295v-362l299 362h366l-391 -424l418 -489h-381l-311 406v-406h-295z" />
    <glyph glyph-name="afii10077" unicode="&#x43b;" horiz-adv-x="1122" 
d="M1008 913v-913h-295v676h-240v-281q0 -209 -90 -311q-53 -58 -115 -77t-137 -19q-60 0 -115 14v234q22 -6 45.5 -7.5t51.5 6.5t45 27q37 49 37 146v505h813z" />
    <glyph glyph-name="afii10078" unicode="&#x43c;" horiz-adv-x="1359" 
d="M49 0l160 913h233l238 -507l238 507h233l160 -913h-283l-74 485l-225 -485h-98l-225 485l-74 -485h-283z" />
    <glyph glyph-name="afii10079" unicode="&#x43d;" horiz-adv-x="1148" 
d="M115 0v913h295v-317h329v317h295v-913h-295v358h-329v-358h-295z" />
    <glyph glyph-name="afii10080" unicode="&#x43e;" horiz-adv-x="1212" 
d="M1143 457q0 -91 -35 -182t-102 -158q-66 -66 -169.5 -107t-230.5 -41t-230 41t-169 107q-67 67 -102 158t-35 182t35 182t102 158q66 66 169 106.5t230 40.5t230.5 -40.5t169.5 -106.5q67 -67 102 -158t35 -182zM606 694q-101 0 -166 -65q-67 -67 -67 -172t67 -172
q66 -66 168 -66q98 0 164 66q68 68 68 172t-68 172q-65 65 -166 65z" />
    <glyph glyph-name="afii10081" unicode="&#x43f;" horiz-adv-x="1136" 
d="M115 0v913h907v-913h-295v676h-317v-676h-295z" />
    <glyph glyph-name="afii10082" unicode="&#x440;" horiz-adv-x="1224" 
d="M410 104v-573h-295v1382h295v-108q107 139 284 139q195 0 324 -129q64 -64 100.5 -155.5t36.5 -200.5q0 -222 -145 -367q-123 -123 -310 -123q-193 0 -290 135zM623 690q-97 0 -164 -67q-34 -34 -52 -79.5t-18 -88.5q0 -93 66 -162q70 -70 168 -70q90 0 157 64
q34 33 53 80.5t19 93.5q0 99 -70 166q-66 63 -159 63z" />
    <glyph glyph-name="afii10083" unicode="&#x441;" horiz-adv-x="882" 
d="M801 893v-268q-84 69 -193 69q-103 0 -168 -65q-67 -67 -67 -172q0 -100 61 -164q68 -74 178 -74q103 0 189 72v-266q-102 -56 -234 -56q-214 0 -354 137q-143 139 -143 349q0 216 151 360q137 129 348 129q124 0 232 -51z" />
    <glyph glyph-name="afii10084" unicode="&#x442;" horiz-adv-x="819" 
d="M803 676h-246v-676h-295v676h-246v237h787v-237z" />
    <glyph glyph-name="afii10085" unicode="&#x443;" horiz-adv-x="1198" 
d="M119 -469l321 586l-436 796h340l258 -495l252 495h332l-735 -1382h-332z" />
    <glyph glyph-name="afii10086" unicode="&#x444;" horiz-adv-x="1470" 
d="M883 -469h-295v455h-13q-232 0 -374 137q-131 125 -131 338q0 124 45 213.5t112 142.5q66 53 159.5 82t186.5 29h15v438h295v-438h14q93 0 186.5 -29t159.5 -82q67 -54 112.5 -143t45.5 -213q0 -213 -131 -338q-142 -137 -375 -137h-12v-455zM868 690v-467
q56 -1 105.5 18t79.5 52q59 62 59 168q0 107 -59 166q-32 32 -82 49t-103 14zM602 223v467q-53 3 -102.5 -14t-81.5 -49q-60 -60 -60 -166q0 -105 60 -168q30 -33 79 -52t105 -18z" />
    <glyph glyph-name="afii10087" unicode="&#x445;" horiz-adv-x="1269" 
d="M4 0l447 498l-363 415h377l170 -211l170 211h377l-363 -415l447 -498h-381l-250 295l-250 -295h-381z" />
    <glyph glyph-name="afii10088" unicode="&#x446;" horiz-adv-x="1177" 
d="M115 0v913h295v-675h311v675h295v-675h149v-496h-262v258h-788z" />
    <glyph glyph-name="afii10089" unicode="&#x447;" horiz-adv-x="1060" 
d="M651 0v307q-91 -22 -184 -22q-208 0 -301 88q-84 80 -84 235v305h291v-264q0 -67 37 -100q36 -31 118 -31q67 0 123 19v376h295v-913h-295z" />
    <glyph glyph-name="afii10090" unicode="&#x448;" horiz-adv-x="1646" 
d="M115 0v913h295v-675h266v675h295v-675h266v675h295v-913h-1417z" />
    <glyph glyph-name="afii10091" unicode="&#x449;" horiz-adv-x="1693" 
d="M1419 0h-1304v913h295v-675h266v675h295v-675h266v675h295v-675h149v-496h-262v258z" />
    <glyph glyph-name="afii10092" unicode="&#x44a;" horiz-adv-x="1130" 
d="M543 600h213q166 0 252 -86q73 -73 73 -207q0 -147 -82 -227q-51 -49 -114 -64.5t-142 -15.5h-495v676h-236v237h531v-313zM543 209h121q64 0 90 24q28 25 28 70q0 44 -28 66q-30 22 -88 22h-123v-182z" />
    <glyph glyph-name="afii10093" unicode="&#x44b;" horiz-adv-x="1439" 
d="M1034 913h291v-913h-291v913zM410 600h202q162 0 248 -86q76 -76 76 -209q0 -145 -82 -225q-51 -49 -113.5 -64.5t-138.5 -15.5h-487v913h295v-313zM410 209h120q65 0 91 24q28 25 28 70q0 44 -28 66q-30 22 -89 22h-122v-182z" />
    <glyph glyph-name="afii10094" unicode="&#x44c;" horiz-adv-x="997" 
d="M410 600h217q161 0 247 -86q74 -74 74 -207q0 -147 -82 -227q-51 -49 -113.5 -64.5t-138.5 -15.5h-499v913h295v-313zM410 209h120q65 0 91 24q28 25 28 70q0 44 -28 66q-30 22 -89 22h-122v-182z" />
    <glyph glyph-name="afii10095" unicode="&#x44d;" horiz-adv-x="942" 
d="M78 25v274q102 -92 250 -92q99 0 155 37q61 38 82 116h-348v201h348q-25 71 -90 111q-57 35 -149 35q-136 0 -248 -95v269q141 63 297 63q235 0 366 -131q131 -137 131 -346q0 -120 -38.5 -214.5t-100.5 -156.5q-42 -42 -90.5 -69.5t-100 -39t-90.5 -15t-90 -3.5
q-150 0 -284 56z" />
    <glyph glyph-name="afii10096" unicode="&#x44e;" horiz-adv-x="1615" 
d="M410 584h114q22 121 111 213q143 147 381 147q242 0 391 -145q63 -62 101 -149.5t38 -190.5t-35.5 -195t-101.5 -158q-82 -82 -177.5 -109.5t-205.5 -27.5q-244 0 -377 127q-20 19 -40.5 44t-49 83t-39.5 123h-110v-346h-295v913h295v-329zM1016 694q-97 0 -158 -57
q-72 -68 -72 -182q0 -99 64 -166q67 -70 166 -70q92 0 155 60q72 69 72 182q0 105 -65 170q-63 63 -162 63z" />
    <glyph glyph-name="afii10097" unicode="&#x44f;" horiz-adv-x="1007" 
d="M37 0l262 330q-94 16 -158 80q-69 67 -69 184q0 141 84 225q96 94 301 94h436v-913h-295v305h-29l-213 -305h-319zM598 498v207h-104q-62 0 -93 -23q-34 -27 -34 -84q0 -44 28 -72q32 -28 105 -28h98z" />
    <glyph glyph-name="afii10071" unicode="&#x451;" horiz-adv-x="1120" 
d="M1051 436v-30h-682q0 -40 14.5 -83.5t40.5 -72.5q52 -57 151 -57q74 0 119 26q4 2 12.5 9t24.5 25.5t27 41.5l278 -29q-47 -149 -176 -229q-113 -68 -289 -68q-114 0 -202 28.5t-162 102.5q-137 137 -137 353q0 101 36 196t103 164q131 131 350 131q233 0 363 -137
q129 -136 129 -371zM379 582h399q-16 65 -59 106q-54 51 -139 51q-91 0 -150 -59q-40 -44 -51 -98zM180 1229q0 67 46 113.5t114 46.5t114 -46.5t46 -113.5t-46 -113.5t-114 -46.5t-114 46.5t-46 113.5zM618 1229q0 67 46 113.5t114 46.5t114 -46.5t46 -113.5t-46 -113.5
t-114 -46.5t-114 46.5t-46 113.5z" />
    <glyph glyph-name="afii10099" unicode="&#x452;" horiz-adv-x="1193" 
d="M143 0v1028h-163v193h163v272h295v-272h393v-193h-393v-305q53 64 111 94q72 39 178 39q168 0 258 -92q90 -90 90 -266v-600q0 -201 -76 -281q-81 -86 -258 -86q-73 0 -163 20v234q28 -12 75 -12q60 0 92 32q16 16 24.5 45t9.5 49.5t1 55.5v432q0 41 -2 67t-13.5 60
t-33.5 55q-41 41 -115 41q-71 0 -116 -45q-62 -60 -62 -190v-375h-295z" />
    <glyph glyph-name="afii10100" unicode="&#x453;" horiz-adv-x="749" 
d="M115 0v913h614v-241h-319v-672h-295zM522 1464l193 -133l-312 -276l-133 98z" />
    <glyph glyph-name="afii10101" unicode="&#x454;" horiz-adv-x="942" 
d="M864 299v-274q-134 -56 -284 -56q-51 0 -90 3.5t-90.5 15t-100 39t-90.5 69.5q-62 62 -100.5 156.5t-38.5 214.5q0 209 131 346q131 131 366 131q156 0 297 -63v-269q-112 95 -248 95q-92 0 -149 -35q-65 -40 -90 -111h348v-201h-348q21 -78 82 -116q56 -37 155 -37
q148 0 250 92z" />
    <glyph glyph-name="afii10102" unicode="&#x455;" horiz-adv-x="888" 
d="M791 866l-117 -186q-85 51 -162 51q-58 0 -84 -26q-18 -18 -18 -41q0 -25 28 -41q9 -5 21 -9.5t35 -11.5t32 -10l78 -25q98 -31 152 -80q71 -66 71 -174q0 -145 -94 -239q-105 -105 -297 -105q-225 0 -375 131l125 199q55 -47 101 -68q57 -28 123 -28q65 0 92 20
q30 23 30 60q0 34 -32 53q-25 15 -90 33l-74 22q-92 28 -148 84q-65 68 -65 166q0 130 88 211q99 92 276 92q170 0 304 -78z" />
    <glyph glyph-name="afii10103" unicode="&#x456;" horiz-adv-x="565" 
d="M135 913h295v-913h-295v913zM111 1303q0 72 50 122t122 50t122 -50t50 -122t-50 -122.5t-122 -50.5t-122 50.5t-50 122.5z" />
    <glyph glyph-name="afii10104" unicode="&#x457;" horiz-adv-x="696" 
d="M199 913h295v-913h-295v913zM520 1475q54 0 94.5 -43.5t40.5 -118.5t-40.5 -118.5t-94.5 -43.5t-94.5 43.5t-40.5 118.5t40.5 118.5t94.5 43.5zM176 1475q54 0 94.5 -43.5t40.5 -118.5t-40.5 -118.5t-94.5 -43.5t-94.5 43.5t-40.5 118.5t40.5 118.5t94.5 43.5z" />
    <glyph glyph-name="afii10105" unicode="&#x458;" horiz-adv-x="565" 
d="M135 913h295v-1382h-295v1382zM111 1303q0 72 50 122t122 50t122 -50t50 -122t-50 -122.5t-122 -50.5t-122 50.5t-50 122.5z" />
    <glyph glyph-name="afii10106" unicode="&#x459;" horiz-adv-x="1595" 
d="M1008 600h217q162 0 248 -86q73 -73 73 -207q0 -147 -82 -227q-51 -49 -113.5 -64.5t-138.5 -15.5h-499v676h-240v-281q0 -209 -90 -311q-53 -58 -115 -77t-137 -19q-60 0 -115 14v234q22 -6 45.5 -7.5t51.5 6.5t45 27q37 49 37 146v505h813v-313zM1008 209h120
q65 0 91 24q28 25 28 70q0 44 -28 66q-30 22 -89 22h-122v-182z" />
    <glyph glyph-name="afii10107" unicode="&#x45a;" horiz-adv-x="1622" 
d="M1034 600h217q162 0 248 -86q74 -74 74 -207q0 -147 -82 -227q-51 -49 -113.5 -64.5t-138.5 -15.5h-500v391h-329v-391h-295v913h295v-313h329v313h295v-313zM1034 209h121q64 0 90 24q29 26 29 70q0 43 -29 66q-30 22 -88 22h-123v-182z" />
    <glyph glyph-name="afii10108" unicode="&#x45b;" horiz-adv-x="1189" 
d="M143 0v1028h-163v193h163v272h295v-272h393v-193h-393v-305q53 64 111 94q72 39 178 39q168 0 258 -92q90 -90 90 -266v-498h-295v387q0 41 -2 67t-13.5 60t-33.5 55q-41 41 -115 41q-71 0 -116 -45q-62 -60 -62 -190v-375h-295z" />
    <glyph glyph-name="afii10109" unicode="&#x45c;" horiz-adv-x="1105" 
d="M115 0v913h295v-362l299 362h366l-391 -424l418 -489h-381l-311 406v-406h-295zM678 1464l192 -133l-311 -276l-133 98z" />
    <glyph glyph-name="afii10110" unicode="&#x45e;" horiz-adv-x="1198" 
d="M119 -469l321 586l-436 796h340l258 -495l252 495h332l-735 -1382h-332zM791 1362l204 -80q-38 -114 -131 -174q-87 -57 -239 -57q-153 0 -240 57q-93 60 -131 174l205 80q12 -61 53 -94q43 -37 113 -37q69 0 112 37q42 34 54 94z" />
    <glyph glyph-name="afii10193" unicode="&#x45f;" horiz-adv-x="1130" 
d="M115 0v913h295v-675h311v675h295v-913h-320v-279h-262v279h-319z" />
    <glyph glyph-name="afii10146" unicode="&#x462;" horiz-adv-x="1312" 
d="M262 0v985h-246v246h246v231h316v-231h340v-246h-340v-151h192q252 0 375 -115q115 -108 115 -303t-111 -301q-52 -49 -128 -76.5t-132 -33t-129 -5.5h-498zM578 580v-326h139q113 0 164 37q59 38 59 127q0 39 -13 70t-24 42.5t-20 16.5q-47 33 -164 33h-141z" />
    <glyph glyph-name="afii10194" unicode="&#x463;" horiz-adv-x="1091" 
d="M504 721v-133h217q162 0 248 -86q73 -73 73 -207q0 -136 -81 -215q-51 -49 -113.5 -64.5t-138.5 -15.5h-500v721h-197v192h197v453h295v-453h315v-192h-315zM504 209h121q64 0 90 24q28 25 28 70q0 44 -28 66q-30 22 -88 22h-123v-182z" />
    <glyph glyph-name="afii10147" unicode="&#x472;" horiz-adv-x="1658" 
d="M831 1397q324 0 529 -199q100 -97 156.5 -229.5t56.5 -286.5q0 -142 -53 -275t-160 -237q-208 -201 -529 -201q-176 0 -309 57.5t-223 143.5q-100 94 -156.5 226.5t-56.5 281.5q0 145 58 284t153 234q84 84 216.5 142.5t317.5 58.5zM430 817h799q-33 134 -142 213
q-102 76 -260 76q-155 0 -264 -88q-94 -76 -133 -201zM1231 551h-805q37 -135 135 -209q103 -82 270 -82q164 0 265 78q104 80 135 213z" />
    <glyph glyph-name="afii10195" unicode="&#x473;" horiz-adv-x="1212" 
d="M1143 457q0 -91 -35 -182t-102 -158q-66 -66 -169.5 -107t-230.5 -41t-230 41t-169 107q-67 67 -102 158t-35 182t35 182t102 158q66 66 169 106.5t230 40.5t230.5 -40.5t169.5 -106.5q67 -67 102 -158t35 -182zM387 545h438q-22 74 -73 117q-57 45 -146 45
q-102 0 -162 -60q-39 -39 -57 -102zM829 385h-446q15 -76 68 -125q57 -53 155 -53q92 0 148 47q57 48 75 131z" />
    <glyph glyph-name="afii10148" unicode="&#x474;" horiz-adv-x="1388" 
d="M8 1366h340l346 -874l346 874h340l-579 -1366h-213z" />
    <glyph glyph-name="afii10196" unicode="&#x475;" horiz-adv-x="1118" 
d="M4 913h324l231 -489l232 489h323l-463 -913h-184z" />
    <glyph glyph-name="afii10050" unicode="&#x490;" horiz-adv-x="987" 
d="M150 1366h524v307h282v-571v-2h-491v-1100h-315v1366z" />
    <glyph glyph-name="afii10098" unicode="&#x491;" horiz-adv-x="841" 
d="M115 0v913h434v258h262v-499h-401v-672h-295z" />
    <glyph glyph-name="uni0492" unicode="&#x492;" horiz-adv-x="1028" 
d="M967 1366v-266h-451v-264h332v-254h-332v-582h-315v582h-201v254h201v530h766z" />
    <glyph glyph-name="uni0493" unicode="&#x493;" horiz-adv-x="794" 
d="M160 0v291h-150v196h150v426h614v-241h-319v-185h219v-196h-219v-291h-295z" />
    <glyph glyph-name="uni0494" unicode="&#x494;" horiz-adv-x="1251" 
d="M956 1366v-266h-491v-297q119 47 240 47q173 0 294 -64q199 -106 199 -370q0 -134 -48 -220.5t-118 -132.5q-58 -37 -145.5 -56t-173.5 -19q-43 0 -117 12v250q56 -12 111 -12q73 0 114 32q53 42 53 136q0 112 -75 153q-45 25 -129 25q-99 0 -205 -47v-537h-315v1366h806
z" />
    <glyph glyph-name="uni0495" unicode="&#x495;" horiz-adv-x="991" 
d="M115 0v913h614v-241h-319v-185h28q129 0 221.5 -25t161.5 -97q109 -111 109 -291q0 -228 -144 -361q-67 -63 -164.5 -98.5t-193.5 -40.5v229q75 7 137 64q70 70 70 186q0 104 -60 160q-53 49 -155 49h-10v-262h-295z" />
    <glyph glyph-name="uni0496" unicode="&#x496;" horiz-adv-x="1929" 
d="M805 0v612l-412 -612h-381l512 709l-483 657h360l404 -586v586h315v-586l404 586h360l-483 -657l323 -443h185v-573h-283v307h-92l-414 612v-612h-315z" />
    <glyph glyph-name="uni0497" unicode="&#x497;" horiz-adv-x="1570" 
d="M637 913h287v-366l260 366h336l-332 -428l180 -247h162v-496h-262v258h-72l-272 395v-395h-287v395l-272 -395h-361l369 485l-332 428h336l260 -366v366z" />
    <glyph glyph-name="uni0498" unicode="&#x498;" horiz-adv-x="1208" 
d="M262 1001l-139 242q83 67 186 105q128 49 266 49q240 0 367 -125q105 -102 105 -268q0 -103 -54 -179q-49 -68 -131 -100q104 -29 168 -96q92 -92 92 -240q0 -163 -110 -278q-109 -115 -273 -131v-320h-282v315q-212 25 -396 197l177 231q61 -71 139 -112q82 -43 186 -43
q99 0 158 41q65 47 65 127q0 69 -49 108q-65 51 -260 51h-51v254h47q166 0 225 54q39 35 39 92q0 64 -55 106q-48 37 -143 37q-79 0 -154 -35q-60 -26 -123 -82z" />
    <glyph glyph-name="uni0499" unicode="&#x499;" horiz-adv-x="948" 
d="M197 639l-113 197q70 45 152 75q92 33 215 33q187 0 284 -76q92 -72 92 -196q0 -88 -55 -146q-31 -34 -78 -51q75 -17 123 -65q62 -62 62 -150q0 -112 -80 -192q-77 -80 -195 -88v-259h-262v256q-160 17 -293 129l125 195q56 -49 113 -74q68 -28 141 -28q67 0 107 22
q40 23 40 70q0 42 -43 61q-43 17 -106 17h-111v200h84q70 0 111 17q43 20 43 61t-45 60q-37 16 -92 16q-60 0 -121 -25q-56 -23 -98 -59z" />
    <glyph glyph-name="uni049A" unicode="&#x49a;" horiz-adv-x="1339" 
d="M465 1366v-569l467 569h385l-553 -647l371 -453h184v-573h-283v307h-82l-489 606v-606h-315v1366h315z" />
    <glyph glyph-name="uni049B" unicode="&#x49b;" horiz-adv-x="1079" 
d="M115 0v913h295v-362l299 362h366l-391 -424l215 -251h162v-496h-262v258h-78l-311 406v-406h-295z" />
    <glyph glyph-name="uni049C" unicode="&#x49c;" horiz-adv-x="1579" 
d="M150 1366h315v-545h121v307h213v-307l385 545h356l-469 -639l496 -727h-377l-391 612v-317h-213v317h-121v-612h-315v1366z" />
    <glyph glyph-name="uni049D" unicode="&#x49d;" horiz-adv-x="1257" 
d="M115 913h295v-358h98v203h168v-213l242 368h323l-317 -430l329 -483h-335l-242 397v-245h-168v231h-98v-383h-295v913z" />
    <glyph glyph-name="uni04A0" unicode="&#x4a0;" horiz-adv-x="1529" 
d="M623 1366v-569l467 569h385l-553 -647l596 -719h-406l-489 606v-606h-316v1100h-295v266h611z" />
    <glyph glyph-name="uni04A1" unicode="&#x4a1;" horiz-adv-x="1228" 
d="M238 0v672h-226v241h520v-362l299 362h367l-391 -424l418 -489h-381l-312 406v-406h-294z" />
    <glyph glyph-name="uni04A2" unicode="&#x4a2;" horiz-adv-x="1529" 
d="M465 1366v-520h545v520h315v-1100h184v-573h-282v307h-217v580h-545v-580h-315v1366h315z" />
    <glyph glyph-name="uni04A3" unicode="&#x4a3;" horiz-adv-x="1196" 
d="M115 0v913h295v-317h329v317h295v-675h150v-496h-262v258h-183v358h-329v-358h-295z" />
    <glyph glyph-name="uni04A4" unicode="&#x4a4;" horiz-adv-x="1769" 
d="M1745 1366v-266h-420v-1100h-315v580h-545v-580h-315v1366h315v-520h545v520h735z" />
    <glyph glyph-name="uni04A5" unicode="&#x4a5;" horiz-adv-x="1341" 
d="M739 0v358h-329v-358h-295v913h295v-317h329v317h586v-241h-291v-672h-295z" />
    <glyph glyph-name="uni04AA" unicode="&#x4aa;" horiz-adv-x="1239" 
d="M1137 406v-363q-80 -42 -172 -61v-322h-283v322q-226 32 -383 186q-97 94 -155 227.5t-58 290.5q0 155 58 287.5t155 226.5q95 92 225.5 144.5t284.5 52.5q151 0 328 -76v-365q-138 146 -320 146q-168 0 -278 -107q-129 -126 -129 -315q0 -187 118 -301q16 -16 36.5 -31
t57.5 -36.5t89.5 -34.5t111.5 -13q170 0 314 142z" />
    <glyph glyph-name="uni04AB" unicode="&#x4ab;" horiz-adv-x="882" 
d="M801 893v-268q-84 69 -193 69q-103 0 -168 -65q-67 -67 -67 -172q0 -100 61 -164q68 -74 178 -74q103 0 189 72v-266q-48 -32 -103 -41v-263h-262v265q-129 26 -223 120q-143 143 -143 349q0 216 151 360q137 129 348 129q124 0 232 -51z" />
    <glyph glyph-name="uni04AE" unicode="&#x4ae;" horiz-adv-x="1294" 
d="M489 0v637l-489 729h373l274 -424l275 424h372l-489 -729v-637h-316z" />
    <glyph glyph-name="uni04AF" unicode="&#x4af;" horiz-adv-x="1064" 
d="M4 913h311l217 -505l218 505h311l-381 -809v-573h-295v571z" />
    <glyph glyph-name="uni04B0" unicode="&#x4b0;" horiz-adv-x="1294" 
d="M489 0v367h-366v245h366v25l-489 729h373l274 -424l275 424h372l-489 -729v-25h366v-245h-366v-367h-316z" />
    <glyph glyph-name="uni04B1" unicode="&#x4b1;" horiz-adv-x="1064" 
d="M4 913h311l217 -505l218 505h311l-381 -809v-61h287v-205h-287v-307h-295v307h-285v205h285v59z" />
    <glyph glyph-name="uni04B2" unicode="&#x4b2;" horiz-adv-x="1400" 
d="M20 0l502 725l-424 641h379l225 -389l226 389h379l-424 -641l313 -459h184v-573h-282v307h-92l-304 473l-303 -473h-379z" />
    <glyph glyph-name="uni04B3" unicode="&#x4b3;" horiz-adv-x="1218" 
d="M4 0l447 498l-363 415h377l170 -211l170 211h377l-363 -415l234 -260h161v-496h-262v258h-75l-242 295l-250 -295h-381z" />
    <glyph glyph-name="uni04B6" unicode="&#x4b6;" horiz-adv-x="1378" 
d="M414 1366v-356q0 -33 1.5 -52.5t15.5 -55.5t42 -58q56 -45 199 -45q98 0 186 16v551h316v-1100h184v-573h-283v307h-217v545q-126 -21 -231 -21q-295 0 -424 121q-64 61 -84.5 134t-20.5 167v420h316z" />
    <glyph glyph-name="uni04B7" unicode="&#x4b7;" horiz-adv-x="1107" 
d="M834 0h-183v307q-91 -22 -184 -22q-208 0 -301 88q-84 80 -84 235v305h291v-264q0 -67 37 -100q36 -31 118 -31q67 0 123 19v376h295v-675h150v-496h-262v258z" />
    <glyph glyph-name="uni04B8" unicode="&#x4b8;" horiz-adv-x="1435" 
d="M971 0v561q-85 -16 -158 -16v-289h-213v285q-105 -2 -214.5 25t-184.5 102q-62 62 -82.5 133t-20.5 155v410h316v-356q0 -121 47 -170q23 -24 60.5 -38t78.5 -11v337h213v-340q74 -3 158 13v565h315v-1366h-315z" />
    <glyph glyph-name="uni04B9" unicode="&#x4b9;" horiz-adv-x="1173" 
d="M764 0v332q-50 -12 -107 -15v-180h-168v168q-91 -3 -180.5 19.5t-144.5 72.5q-82 74 -82 203v313h287v-274q0 -69 37 -100q34 -27 83 -27v236h168v-236q46 0 107 14v387h295v-913h-295z" />
    <glyph glyph-name="uni04BA" unicode="&#x4ba;" horiz-adv-x="1343" 
d="M465 1366v-522q148 20 272 20q287 0 406 -114q102 -95 102 -279v-471h-315v375q0 121 -49 168q-55 55 -215 55q-108 0 -201 -16v-582h-315v1366h315z" />
    <glyph glyph-name="uni04BB" unicode="&#x4bb;" horiz-adv-x="1169" 
d="M123 0v1493h295v-688q53 65 110 94q72 39 179 39q168 0 258 -92q90 -90 90 -266v-580h-295v469q0 41 -2 67t-13.5 60t-33.5 55q-41 41 -115 41q-72 0 -117 -45q-61 -59 -61 -190v-457h-295z" />
    <glyph glyph-name="uni04C0" unicode="&#x4c0;" horiz-adv-x="626" 
d="M156 1366h315v-1366h-315v1366z" />
    <glyph glyph-name="uni04C1" unicode="&#x4c1;" horiz-adv-x="1927" 
d="M805 0v612l-412 -612h-381l512 709l-483 657h360l404 -586v586h315v-586l404 586h360l-483 -657l514 -709h-381l-414 612v-612h-315zM1153 1817l217 -93q-49 -116 -156 -184q-95 -57 -251 -57q-155 0 -250 57q-107 68 -156 184l217 93q26 -68 68 -99q47 -35 125 -35
q74 0 120 35q48 38 66 99z" />
    <glyph glyph-name="uni04C2" unicode="&#x4c2;" horiz-adv-x="1560" 
d="M637 913h287v-366l260 366h336l-332 -428l368 -485h-360l-272 395v-395h-287v395l-272 -395h-361l369 485l-332 428h336l260 -366v366zM946 1362l205 -80q-38 -114 -131 -174q-87 -57 -240 -57q-152 0 -239 57q-93 60 -131 174l204 80q12 -60 54 -94q43 -37 112 -37
q70 0 113 37q41 33 53 94z" />
    <glyph glyph-name="uni04C3" unicode="&#x4c3;" horiz-adv-x="1316" 
d="M465 1366v-569l467 569h373l-474 -547q90 0 176.5 -32t143.5 -89q102 -102 102 -276q0 -203 -110 -318q-113 -118 -307 -118q-103 0 -189 34l35 242q42 -26 94 -26q79 0 119 51q35 43 35 110q0 96 -64 148q-62 51 -188 51q-86 0 -213 -25v-571h-315v1366h315z" />
    <glyph glyph-name="uni04C4" unicode="&#x4c4;" horiz-adv-x="1046" 
d="M115 0v913h295v-362l282 362h350l-383 -452q68 -10 127 -40.5t99 -72.5q98 -100 98 -274q0 -232 -143 -361q-67 -63 -165 -98.5t-194 -40.5v229q76 5 137 66q70 70 70 184q0 110 -63 170q-60 60 -164 60h-51v-283h-295z" />
    <glyph glyph-name="uni04C7" unicode="&#x4c7;" horiz-adv-x="1474" 
d="M465 1366v-520h545v520h315v-1507q0 -49 -3.5 -84t-23 -84.5t-55.5 -83.5q-48 -47 -112.5 -61.5t-149.5 -14.5q-98 0 -172 20v238q31 -16 78 -16q66 0 94 30q29 31 29 117v660h-545v-580h-315v1366h315z" />
    <glyph glyph-name="uni04C8" unicode="&#x4c8;" horiz-adv-x="1148" 
d="M115 0v913h295v-317h329v317h295v-1015q0 -201 -76 -281q-81 -86 -258 -86q-73 0 -163 20v234q42 -12 75 -12q61 0 93 32q16 16 24 45.5t9 48.5t1 56v403h-329v-358h-295z" />
    <glyph glyph-name="uni04D0" unicode="&#x4d0;" horiz-adv-x="1386" 
d="M1055 0l-103 258h-516l-104 -258h-328l551 1366h289l538 -1366h-327zM528 500h338l-168 458zM883 1817l217 -93q-49 -116 -156 -184q-95 -57 -252 -57q-155 0 -250 57q-105 67 -155 184l217 93q26 -69 67 -99q47 -35 125 -35q75 0 121 35q48 38 66 99z" />
    <glyph glyph-name="uni04D1" unicode="&#x4d1;" horiz-adv-x="1224" 
d="M815 811v102h295v-913h-295v111q-92 -142 -270 -142q-104 0 -187 32t-155 108q-133 141 -133 342q0 112 38 207.5t103 160.5q125 125 317 125q190 0 287 -133zM602 690q-97 0 -162 -65q-67 -67 -67 -166q0 -98 61 -164q69 -72 174 -72q90 0 154 64q72 68 72 172
q0 103 -68 168q-66 63 -164 63zM778 1362l205 -80q-38 -114 -131 -174q-87 -57 -240 -57q-152 0 -239 57q-93 60 -131 174l204 80q12 -60 54 -94q43 -37 112 -37q70 0 113 37q41 33 53 94z" />
    <glyph glyph-name="uni04D2" unicode="&#x4d2;" horiz-adv-x="1386" 
d="M1055 0l-103 258h-516l-104 -258h-328l551 1366h289l538 -1366h-327zM528 500h338l-168 458zM307 1661q0 66 48 114t114 48t114 -48t48 -114t-48 -114t-114 -48t-114 48t-48 114zM754 1661q0 66 47.5 114t113.5 48t114 -48t48 -114t-48 -114t-114 -48t-113.5 48
t-47.5 114z" />
    <glyph glyph-name="uni04D3" unicode="&#x4d3;" horiz-adv-x="1224" 
d="M815 811v102h295v-913h-295v111q-92 -142 -270 -142q-104 0 -187 32t-155 108q-133 141 -133 342q0 112 38 207.5t103 160.5q125 125 317 125q190 0 287 -133zM602 690q-97 0 -162 -65q-67 -67 -67 -166q0 -98 61 -164q69 -72 174 -72q90 0 154 64q72 68 72 172
q0 103 -68 168q-66 63 -164 63zM674 1227q0 66 48 114t114 48t113.5 -48t47.5 -114t-47.5 -114t-113.5 -48t-114 48t-48 114zM227 1227q0 66 48 114t114 48t114 -48t48 -114t-48 -114t-114 -48t-114 48t-48 114z" />
    <glyph glyph-name="uni04D4" unicode="&#x4d4;" horiz-adv-x="1884" 
d="M1069 0l-104 264h-523l-102 -264h-328l559 1366h777l98 -266h-475l104 -264h471l103 -267h-473l120 -303h476l100 -266h-803zM535 506h344l-168 448z" />
    <glyph glyph-name="uni04D5" unicode="&#x4d5;" horiz-adv-x="1720" 
d="M1364 295l276 -19q-50 -153 -178 -237q-108 -70 -278 -70q-141 0 -223 41q-68 33 -132 109q-59 -79 -153 -117q-84 -33 -219 -33q-206 0 -307 101q-80 80 -80 204q0 116 75 191q106 106 322 106q125 0 215 -55v19q0 38 -14.5 74.5t-38.5 60.5q-57 57 -178 57
q-103 0 -236 -45v225q129 37 268 37q94 0 163.5 -22t107.5 -55t67 -81q47 62 116 99.5t123.5 48t110.5 10.5q228 0 357 -139q123 -134 123 -371v-28h-668q3 -97 61 -158q53 -58 150 -58q64 0 104 25q47 28 66 80zM506 391q-91 0 -135 -47q-27 -27 -27 -63q0 -34 27 -64
q47 -47 133 -47q96 0 143 47q27 27 27 64q0 33 -27 63q-47 47 -141 47zM991 582h383q-12 67 -59 110q-52 47 -131 47q-82 0 -127 -43q-47 -42 -66 -114z" />
    <glyph glyph-name="uni04D6" unicode="&#x4d6;" horiz-adv-x="1028" 
d="M922 1366v-266h-457v-264h434v-267h-434v-303h457v-266h-772v1366h772zM715 1817l217 -93q-49 -116 -156 -184q-95 -57 -252 -57q-155 0 -250 57q-105 67 -155 184l217 93q26 -69 67 -99q47 -35 125 -35q75 0 121 35q48 38 66 99z" />
    <glyph glyph-name="uni04D7" unicode="&#x4d7;" horiz-adv-x="1120" 
d="M379 582h399q-16 65 -59 106q-54 51 -139 51q-91 0 -150 -59q-40 -44 -51 -98zM1051 436v-30h-682q0 -40 14.5 -83.5t40.5 -72.5q52 -57 151 -57q74 0 119 26q4 2 12.5 9t24.5 25.5t27 41.5l278 -29q-47 -149 -176 -229q-113 -68 -289 -68q-114 0 -202 28.5t-162 102.5
q-137 137 -137 353q0 101 36 196t103 164q131 131 350 131q233 0 363 -137q129 -136 129 -371zM725 1362l205 -80q-38 -114 -131 -174q-87 -57 -240 -57t-240 57q-93 60 -131 174l205 80q12 -61 53 -94q43 -37 113 -37t113 37q41 33 53 94z" />
    <glyph glyph-name="uni04D8" unicode="&#x4d8;" horiz-adv-x="1566" 
d="M86 768h1065q-2 22 -8.5 51.5t-32.5 87t-66 97.5q-100 102 -274 102q-121 0 -205 -47q-82 -45 -135 -133l-291 112q95 162 236 250q170 109 422 109q298 0 485 -185q199 -194 199 -522q0 -339 -209 -543q-106 -102 -224 -140t-266 -38q-150 0 -259 38.5t-206 135.5
q-119 121 -175 291.5t-56 325.5v8zM1145 547h-709q15 -121 90 -199q92 -96 260 -96q155 0 250 86q90 82 109 209z" />
    <glyph glyph-name="afii10846" unicode="&#x4d9;" horiz-adv-x="1120" 
d="M741 344h-399q12 -70 59 -113q55 -51 142 -51q89 0 147 60q41 48 51 104zM70 477v37h680q0 87 -54 148q-52 59 -147 59q-82 0 -123 -27q-4 -2 -12.5 -9t-24.5 -25.5t-27 -41.5l-278 29q48 150 176 230q108 67 291 67q112 0 200 -28.5t162 -102.5q138 -141 138 -348
q0 -105 -36 -201t-104 -164q-131 -131 -354 -131q-229 0 -358 137q-129 136 -129 371z" />
    <glyph glyph-name="uni04DA" unicode="&#x4da;" horiz-adv-x="1566" 
d="M86 768h1065q-2 22 -8.5 51.5t-32.5 87t-66 97.5q-100 102 -274 102q-121 0 -205 -47q-82 -45 -135 -133l-291 112q95 162 236 250q170 109 422 109q298 0 485 -185q199 -194 199 -522q0 -339 -209 -543q-106 -102 -224 -140t-266 -38q-150 0 -259 38.5t-206 135.5
q-119 121 -175 291.5t-56 325.5v8zM1145 547h-709q15 -121 90 -199q92 -96 260 -96q155 0 250 86q90 82 109 209zM397 1661q0 66 48 114t114 48t114 -48t48 -114t-48 -114t-114 -48t-114 48t-48 114zM844 1661q0 66 48 114t114 48t113.5 -48t47.5 -114t-47.5 -114
t-113.5 -48t-114 48t-48 114z" />
    <glyph glyph-name="uni04DB" unicode="&#x4db;" horiz-adv-x="1120" 
d="M741 344h-399q12 -70 59 -113q55 -51 142 -51q89 0 147 60q41 48 51 104zM70 477v37h680q0 87 -54 148q-52 59 -147 59q-82 0 -123 -27q-4 -2 -12.5 -9t-24.5 -25.5t-27 -41.5l-278 29q48 150 176 230q108 67 291 67q112 0 200 -28.5t162 -102.5q138 -141 138 -348
q0 -105 -36 -201t-104 -164q-131 -131 -354 -131q-229 0 -358 137q-129 136 -129 371zM621 1227q0 66 47.5 114t113.5 48t114 -48t48 -114t-48 -114t-114 -48t-113.5 48t-47.5 114zM174 1227q0 66 48 114t114 48t114 -48t48 -114t-48 -114t-114 -48t-114 48t-48 114z" />
    <glyph glyph-name="uni04DC" unicode="&#x4dc;" horiz-adv-x="1927" 
d="M805 0v612l-412 -612h-381l512 709l-483 657h360l404 -586v586h315v-586l404 586h360l-483 -657l514 -709h-381l-414 612v-612h-315zM578 1661q0 66 47.5 114t113.5 48t114 -48t48 -114t-48 -114t-114 -48t-113.5 48t-47.5 114zM1024 1661q0 66 48 114t114 48t114 -48
t48 -114t-48 -114t-114 -48t-114 48t-48 114z" />
    <glyph glyph-name="uni04DD" unicode="&#x4dd;" horiz-adv-x="1560" 
d="M637 913h287v-366l260 366h336l-332 -428l368 -485h-360l-272 395v-395h-287v395l-272 -395h-361l369 485l-332 428h336l260 -366v366zM842 1227q0 66 48 114t114 48t113.5 -48t47.5 -114t-47.5 -114t-113.5 -48t-114 48t-48 114zM395 1227q0 66 48 114t114 48t114 -48
t48 -114t-48 -114t-114 -48t-114 48t-48 114z" />
    <glyph glyph-name="uni04DE" unicode="&#x4de;" horiz-adv-x="1208" 
d="M262 1001l-139 242q83 67 186 105q128 49 266 49q240 0 367 -125q105 -102 105 -268q0 -103 -54 -179q-49 -68 -131 -100q104 -29 168 -96q92 -92 92 -244q0 -161 -110 -274q-140 -142 -412 -142q-195 0 -328 60q-108 46 -211 143l177 231q61 -71 139 -112
q82 -43 186 -43q99 0 158 41q65 47 65 127q0 69 -49 108q-65 51 -260 51h-51v254h47q166 0 225 54q39 35 39 92q0 64 -55 106q-48 37 -143 37q-79 0 -154 -35q-60 -26 -123 -82zM188 1661q0 66 48 114t114 48t114 -48t48 -114t-48 -114t-114 -48t-114 48t-48 114zM635 1661
q0 66 48 114t114 48t113.5 -48t47.5 -114t-47.5 -114t-113.5 -48t-114 48t-48 114z" />
    <glyph glyph-name="uni04DF" unicode="&#x4df;" horiz-adv-x="948" 
d="M197 639l-113 197q70 45 152 75q92 33 215 33q213 0 309 -94q67 -64 67 -168q0 -99 -55 -156q-37 -37 -78 -51q76 -18 123 -65q62 -59 62 -152q0 -110 -80 -190q-56 -55 -136 -77t-200 -22q-142 0 -250 41q-85 33 -164 96l125 195q56 -49 113 -74q68 -28 141 -28
q67 0 107 22q40 23 40 70q0 42 -43 61q-43 17 -106 17h-111v200h84q70 0 111 17q43 20 43 61t-45 60q-37 16 -92 16q-60 0 -121 -25q-56 -23 -98 -59zM520 1227q0 66 48 114t114 48t114 -48t48 -114t-48 -114t-114 -48t-114 48t-48 114zM74 1227q0 66 48 114t114 48
t113.5 -48t47.5 -114t-47.5 -114t-113.5 -48t-114 48t-48 114z" />
    <glyph glyph-name="uni04E2" unicode="&#x4e2;" horiz-adv-x="1525" 
d="M150 1366h315v-893l633 909h278v-1382h-315v895l-633 -911h-278v1382zM356 1542v189h795v-189h-795z" />
    <glyph glyph-name="uni04E3" unicode="&#x4e3;" horiz-adv-x="1187" 
d="M115 913h295v-522l389 522h274v-913h-295v530l-389 -530h-274v913zM205 1112v184h778v-184h-778z" />
    <glyph glyph-name="uni04E4" unicode="&#x4e4;" horiz-adv-x="1525" 
d="M150 1366h315v-893l633 909h278v-1382h-315v895l-633 -911h-278v1382zM385 1661q0 66 48 114t114 48t114 -48t48 -114t-48 -114t-114 -48t-114 48t-48 114zM831 1661q0 66 48 114t114 48t114 -48t48 -114t-48 -114t-114 -48t-114 48t-48 114z" />
    <glyph glyph-name="uni04E5" unicode="&#x4e5;" horiz-adv-x="1187" 
d="M115 913h295v-522l389 522h274v-913h-295v530l-389 -530h-274v913zM655 1227q0 66 48 114t114 48t114 -48t48 -114t-48 -114t-114 -48t-114 48t-48 114zM209 1227q0 66 48 114t114 48t113.5 -48t47.5 -114t-47.5 -114t-113.5 -48t-114 48t-48 114z" />
    <glyph glyph-name="uni04E6" unicode="&#x4e6;" horiz-adv-x="1658" 
d="M831 1397q324 0 529 -199q100 -97 156.5 -229.5t56.5 -286.5q0 -142 -53 -275t-160 -237q-208 -201 -529 -201q-176 0 -309 57.5t-223 143.5q-100 94 -156.5 226.5t-56.5 281.5q0 145 58 284t153 234q84 84 216.5 142.5t317.5 58.5zM829 1106q-182 0 -299 -117
q-120 -116 -120 -309q0 -185 125 -307q118 -113 292 -113q186 0 303 117q119 115 119 305q0 98 -34 177t-85 130q-54 52 -132.5 84.5t-168.5 32.5zM444 1661q0 66 48 114t114 48t114 -48t48 -114t-48 -114t-114 -48t-114 48t-48 114zM891 1661q0 66 48 114t114 48t113.5 -48
t47.5 -114t-47.5 -114t-113.5 -48t-114 48t-48 114z" />
    <glyph glyph-name="uni04E7" unicode="&#x4e7;" horiz-adv-x="1212" 
d="M1143 457q0 -91 -35 -182t-102 -158q-66 -66 -169.5 -107t-230.5 -41t-230 41t-169 107q-67 67 -102 158t-35 182t35 182t102 158q66 66 169 106.5t230 40.5t230.5 -40.5t169.5 -106.5q67 -67 102 -158t35 -182zM606 694q-101 0 -166 -65q-67 -67 -67 -172t67 -172
q66 -66 168 -66q98 0 164 66q68 68 68 172t-68 172q-65 65 -166 65zM668 1227q0 66 47.5 114t113.5 48t114 -48t48 -114t-48 -114t-114 -48t-113.5 48t-47.5 114zM221 1227q0 66 48 114t114 48t114 -48t48 -114t-48 -114t-114 -48t-114 48t-48 114z" />
    <glyph glyph-name="uni04E8" unicode="&#x4e8;" horiz-adv-x="1658" 
d="M831 1397q324 0 529 -199q100 -97 156.5 -229.5t56.5 -286.5q0 -142 -53 -275t-160 -237q-208 -201 -529 -201q-176 0 -309 57.5t-223 143.5q-100 94 -156.5 226.5t-56.5 281.5q0 145 58 284t153 234q84 84 216.5 142.5t317.5 58.5zM430 817h799q-33 134 -142 213
q-102 76 -260 76q-155 0 -264 -88q-94 -76 -133 -201zM1231 551h-805q37 -135 135 -209q103 -82 270 -82q164 0 265 78q104 80 135 213z" />
    <glyph glyph-name="uni04E9" unicode="&#x4e9;" horiz-adv-x="1212" 
d="M1143 457q0 -91 -35 -182t-102 -158q-66 -66 -169.5 -107t-230.5 -41t-230 41t-169 107q-67 67 -102 158t-35 182t35 182t102 158q66 66 169 106.5t230 40.5t230.5 -40.5t169.5 -106.5q67 -67 102 -158t35 -182zM387 545h438q-22 74 -73 117q-57 45 -146 45
q-102 0 -162 -60q-39 -39 -57 -102zM829 385h-446q15 -76 68 -125q57 -53 155 -53q92 0 148 47q57 48 75 131z" />
    <glyph glyph-name="uni04EA" unicode="&#x4ea;" horiz-adv-x="1658" 
d="M831 1397q324 0 529 -199q100 -97 156.5 -229.5t56.5 -286.5q0 -142 -53 -275t-160 -237q-208 -201 -529 -201q-176 0 -309 57.5t-223 143.5q-100 94 -156.5 226.5t-56.5 281.5q0 145 58 284t153 234q84 84 216.5 142.5t317.5 58.5zM430 817h799q-33 134 -142 213
q-102 76 -260 76q-155 0 -264 -88q-94 -76 -133 -201zM1231 551h-805q37 -135 135 -209q103 -82 270 -82q164 0 265 78q104 80 135 213zM444 1661q0 66 48 114t114 48t114 -48t48 -114t-48 -114t-114 -48t-114 48t-48 114zM891 1661q0 66 48 114t114 48t113.5 -48t47.5 -114
t-47.5 -114t-113.5 -48t-114 48t-48 114z" />
    <glyph glyph-name="uni04EB" unicode="&#x4eb;" horiz-adv-x="1212" 
d="M1143 457q0 -91 -35 -182t-102 -158q-66 -66 -169.5 -107t-230.5 -41t-230 41t-169 107q-67 67 -102 158t-35 182t35 182t102 158q66 66 169 106.5t230 40.5t230.5 -40.5t169.5 -106.5q67 -67 102 -158t35 -182zM387 545h438q-22 74 -73 117q-57 45 -146 45
q-102 0 -162 -60q-39 -39 -57 -102zM829 385h-446q15 -76 68 -125q57 -53 155 -53q92 0 148 47q57 48 75 131zM668 1227q0 66 47.5 114t113.5 48t114 -48t48 -114t-48 -114t-114 -48t-113.5 48t-47.5 114zM221 1227q0 66 48 114t114 48t114 -48t48 -114t-48 -114t-114 -48
t-114 48t-48 114z" />
    <glyph glyph-name="uni04EE" unicode="&#x4ee;" horiz-adv-x="1273" 
d="M8 1366h352l287 -631l275 631h340l-625 -1366h-340l199 393zM231 1542v189h795v-189h-795z" />
    <glyph glyph-name="uni04EF" unicode="&#x4ef;" horiz-adv-x="1198" 
d="M119 -469l321 586l-436 796h340l258 -495l252 495h332l-735 -1382h-332zM193 1112v184h778v-184h-778z" />
    <glyph glyph-name="uni04F0" unicode="&#x4f0;" horiz-adv-x="1273" 
d="M8 1366h352l287 -631l275 631h340l-625 -1366h-340l199 393zM252 1661q0 66 48 114t114 48t113.5 -48t47.5 -114t-47.5 -114t-113.5 -48t-114 48t-48 114zM698 1661q0 66 48 114t114 48t114 -48t48 -114t-48 -114t-114 -48t-114 48t-48 114z" />
    <glyph glyph-name="uni04F1" unicode="&#x4f1;" horiz-adv-x="1198" 
d="M119 -469l321 586l-436 796h340l258 -495l252 495h332l-735 -1382h-332zM659 1227q0 66 48 114t114 48t114 -48t48 -114t-48 -114t-114 -48t-114 48t-48 114zM213 1227q0 66 48 114t114 48t114 -48t48 -114t-48 -114t-114 -48t-114 48t-48 114z" />
    <glyph glyph-name="uni04F2" unicode="&#x4f2;" horiz-adv-x="1273" 
d="M8 1366h352l287 -631l275 631h340l-625 -1366h-340l199 393zM565 1894l176 -135l-286 -276l-113 98zM946 1894l178 -135l-286 -276l-115 98z" />
    <glyph glyph-name="uni04F3" unicode="&#x4f3;" horiz-adv-x="1198" 
d="M119 -469l321 586l-436 796h340l258 -495l252 495h332l-735 -1382h-332zM500 1454l168 -135l-275 -277l-106 99zM868 1452l170 -133l-274 -277l-109 99z" />
    <glyph glyph-name="uni04F4" unicode="&#x4f4;" horiz-adv-x="1323" 
d="M858 0v545q-126 -21 -231 -21q-295 0 -424 121q-64 61 -84.5 134t-20.5 167v420h316v-356q0 -33 1.5 -52.5t15.5 -55.5t42 -58q56 -45 199 -45q98 0 186 16v551h316v-1366h-316zM276 1661q0 66 48 114t114 48t114 -48t48 -114t-48 -114t-114 -48t-114 48t-48 114z
M723 1661q0 66 48 114t114 48t114 -48t48 -114t-48 -114t-114 -48t-114 48t-48 114z" />
    <glyph glyph-name="uni04F5" unicode="&#x4f5;" horiz-adv-x="1060" 
d="M651 0v307q-91 -22 -184 -22q-208 0 -301 88q-84 80 -84 235v305h291v-264q0 -67 37 -100q36 -31 118 -31q67 0 123 19v376h295v-913h-295zM592 1227q0 66 48 114t114 48t113.5 -48t47.5 -114t-47.5 -114t-113.5 -48t-114 48t-48 114zM145 1227q0 66 48 114t114 48
t114 -48t48 -114t-48 -114t-114 -48t-114 48t-48 114z" />
    <glyph glyph-name="uni04F8" unicode="&#x4f8;" horiz-adv-x="1734" 
d="M1270 1366h315v-1366h-315v1366zM150 0v1366h315v-532h188q252 0 375 -115q115 -108 115 -303t-111 -301q-52 -49 -128 -76.5t-132 -33t-129 -5.5h-493zM465 580v-326h139q113 0 164 37q59 38 59 127q0 39 -13 70t-24 42.5t-20 16.5q-47 33 -164 33h-141zM473 1661
q0 66 48 114t114 48t114 -48t48 -114t-48 -114t-114 -48t-114 48t-48 114zM920 1661q0 66 47.5 114t113.5 48t114 -48t48 -114t-48 -114t-114 -48t-113.5 48t-47.5 114z" />
    <glyph glyph-name="uni04F9" unicode="&#x4f9;" horiz-adv-x="1439" 
d="M1034 913h291v-913h-291v913zM410 600h202q162 0 248 -86q76 -76 76 -209q0 -145 -82 -225q-51 -49 -113.5 -64.5t-138.5 -15.5h-487v913h295v-313zM410 209h120q65 0 91 24q28 25 28 70q0 44 -28 66q-30 22 -89 22h-122v-182zM756 1227q0 66 48 114t114 48t113.5 -48
t47.5 -114t-47.5 -114t-113.5 -48t-114 48t-48 114zM309 1227q0 66 48 114t114 48t114 -48t48 -114t-48 -114t-114 -48t-114 48t-48 114z" />
    <glyph glyph-name="uni1E9E" unicode="&#x1e9e;" horiz-adv-x="1216" 
d="M461 0h-311v942q0 213 135 342q118 113 309 113q190 0 299 -80q150 -110 158 -322l-195 -229q130 -45 203 -135q71 -91 71 -230q0 -96 -44.5 -178.5t-112.5 -136.5q-127 -101 -383 -115v246q111 10 160 49q65 52 65 154q0 87 -72 139q-58 42 -153 49v189l149 204
q0 71 -37 111q-34 39 -102 39q-66 0 -102 -45q-37 -47 -37 -123v-983z" />
    <glyph glyph-name="uni2010" unicode="&#x2010;" horiz-adv-x="729" 
d="M102 389v258h525v-258h-525z" />
    <glyph glyph-name="uni2011" unicode="&#x2011;" horiz-adv-x="729" 
d="M102 389v258h525v-258h-525z" />
    <glyph glyph-name="figuredash" unicode="&#x2012;" horiz-adv-x="1243" 
d="M143 578v241h957v-241h-957z" />
    <glyph glyph-name="endash" unicode="&#x2013;" horiz-adv-x="1243" 
d="M143 397v242h957v-242h-957z" />
    <glyph glyph-name="emdash" unicode="&#x2014;" horiz-adv-x="1789" 
d="M143 397v242h1504v-242h-1504z" />
    <glyph glyph-name="afii00208" unicode="&#x2015;" horiz-adv-x="1789" 
d="M143 397v242h1504v-242h-1504z" />
    <glyph glyph-name="quoteleft" unicode="&#x2018;" horiz-adv-x="669" 
d="M580 1366l-226 -578l-268 15l309 571z" />
    <glyph glyph-name="quoteright" unicode="&#x2019;" horiz-adv-x="806" 
d="M86 803l225 577l271 -14l-312 -571z" />
    <glyph glyph-name="quotesinglbase" unicode="&#x201a;" horiz-adv-x="806" 
d="M86 -262l225 577l271 -14l-312 -571z" />
    <glyph glyph-name="quotedblleft" unicode="&#x201c;" horiz-adv-x="1095" 
d="M1006 1366l-228 -578l-268 15l311 571zM580 1366l-226 -578l-268 15l309 571z" />
    <glyph glyph-name="quotedblright" unicode="&#x201d;" horiz-adv-x="1255" 
d="M127 803l225 577l271 -14l-312 -571zM551 803l227 577l269 -14l-312 -571z" />
    <glyph glyph-name="quotedblbase" unicode="&#x201e;" horiz-adv-x="1255" 
d="M106 -262l226 577l270 -14l-311 -571zM530 -262l228 577l268 -14l-311 -571z" />
    <glyph glyph-name="dagger" unicode="&#x2020;" horiz-adv-x="1191" 
d="M461 1079v414h270v-414h322v-237h-322v-1219h-270v1219h-322v237h322z" />
    <glyph glyph-name="daggerdbl" unicode="&#x2021;" horiz-adv-x="1189" 
d="M461 1079v414h268v-414h322v-237h-322v-469h322v-236h-322v-514h-268v514h-322v236h322v469h-322v237h322z" />
    <glyph glyph-name="bullet" unicode="&#x2022;" horiz-adv-x="2048" 
d="M737 696q0 118 84.5 202.5t202.5 84.5t202.5 -84.5t84.5 -202.5t-84 -202t-203 -84t-203 84t-84 202z" />
    <glyph glyph-name="ellipsis" unicode="&#x2026;" horiz-adv-x="1830" 
d="M129 156q0 78 54 132t132 54t132.5 -54t54.5 -132t-54.5 -132.5t-132.5 -54.5t-132 54.5t-54 132.5zM729 156q0 78 54 132t132 54t132.5 -54t54.5 -132t-54.5 -132.5t-132.5 -54.5t-132 54.5t-54 132.5zM1329 156q0 78 54.5 132t132.5 54t132 -54t54 -132t-54 -132.5
t-132 -54.5t-132.5 54.5t-54.5 132.5z" />
    <glyph glyph-name="perthousand" unicode="&#x2030;" horiz-adv-x="2549" 
d="M379 4l801 1385l143 -31l-803 -1387zM420 1219q-73 0 -117 -48q-45 -45 -45 -118q0 -74 45 -119q43 -47 117 -47t117 47q45 45 45 119q0 73 -45 118q-44 48 -117 48zM778 1053q0 -142 -88 -230q-97 -102 -270 -102t-270 102q-89 89 -89 230q0 140 89 229q97 102 270 102
t270 -102q88 -88 88 -229zM1280 479q-74 0 -117 -47q-45 -45 -45 -119q0 -73 45 -118q44 -48 117 -48t117 48q45 45 45 118q0 74 -45 119q-43 47 -117 47zM1638 313q0 -141 -88 -229q-97 -102 -270 -102t-270 102q-88 88 -88 229q0 142 88 230q97 102 270 102t270 -102
q88 -88 88 -230zM2130 479q-74 0 -117 -47q-45 -45 -45 -119q0 -73 45 -118q44 -48 117 -48t117 48q45 45 45 118q0 74 -45 119q-43 47 -117 47zM2488 313q0 -141 -88 -229q-97 -102 -270 -102t-270 102q-88 88 -88 229q0 142 88 230q97 102 270 102t270 -102
q88 -88 88 -230z" />
    <glyph glyph-name="guilsinglleft" unicode="&#x2039;" horiz-adv-x="667" 
d="M561 786l-237 -327l241 -326l-166 -117l-317 443l317 440z" />
    <glyph glyph-name="guilsinglright" unicode="&#x203a;" horiz-adv-x="667" 
d="M344 459l-238 327l162 113l318 -440l-318 -443l-166 117z" />
    <glyph glyph-name="fraction" unicode="&#x2044;" horiz-adv-x="528" 
d="M-205 20l799 1369l139 -48l-799 -1370z" />
    <glyph glyph-name="Euro" unicode="&#x20ac;" horiz-adv-x="1228" 
d="M1118 371v-314q-143 -88 -360 -88q-121 0 -231 30.5t-187 90.5t-130.5 151t-72.5 195h-178l74 185h82q-3 55 0 116h-156l74 185h104q42 170 160 288q187 187 516 187q185 0 346 -80l-110 -264q-111 67 -254 67q-125 0 -213 -55q-81 -53 -109 -143h541l-74 -185h-498
q-8 -54 2 -116h457l-74 -185h-348q31 -95 115 -143q79 -47 205 -47q200 0 319 125z" />
    <glyph glyph-name="uni20B4" unicode="&#x20b4;" horiz-adv-x="1228" 
d="M195 1262q72 48 186 90q131 45 287 45q91 0 165 -18t134 -76q90 -86 90 -209q0 -94 -62 -168h152v-199h-293l-143 -129h436v-199h-623q-37 -26 -37 -65q0 -41 50 -66q44 -20 108 -20q113 0 184 28q38 14 119 64l150 -225q-86 -64 -201 -103q-133 -43 -311 -43
q-180 0 -287 74q-109 76 -109 203q0 84 52 153h-166v199h317l144 129h-461v199h614q43 40 43 98q0 49 -37 78q-34 28 -104 28q-82 0 -160 -38q-51 -23 -96 -60z" />
    <glyph glyph-name="uni20B6" unicode="&#x20b6;" horiz-adv-x="1228" 
d="M678 1366q230 0 358 -113q133 -118 133 -331q0 -203 -116 -306q-118 -108 -348 -108h-193v-129h369v-199h-369v-180h-315v180h-148v199h148v129h-148v229h148v629h481zM512 1108v-371h113q117 0 170 51q51 51 51 136t-51 133q-53 51 -177 51h-106z" />
    <glyph glyph-name="uni20B6" unicode="&#x20cf;" horiz-adv-x="1228" 
d="M678 1366q230 0 358 -113q133 -118 133 -331q0 -203 -116 -306q-118 -108 -348 -108h-193v-129h369v-199h-369v-180h-315v180h-148v199h148v129h-148v229h148v629h481zM512 1108v-371h113q117 0 170 51q51 51 51 136t-51 133q-53 51 -177 51h-106z" />
    <glyph glyph-name="uni20B6" unicode="&#x20ce;" horiz-adv-x="1228" 
d="M678 1366q230 0 358 -113q133 -118 133 -331q0 -203 -116 -306q-118 -108 -348 -108h-193v-129h369v-199h-369v-180h-315v180h-148v199h148v129h-148v229h148v629h481zM512 1108v-371h113q117 0 170 51q51 51 51 136t-51 133q-53 51 -177 51h-106z" />
    <glyph glyph-name="uni20B6" unicode="&#x20cd;" horiz-adv-x="1228" 
d="M678 1366q230 0 358 -113q133 -118 133 -331q0 -203 -116 -306q-118 -108 -348 -108h-193v-129h369v-199h-369v-180h-315v180h-148v199h148v129h-148v229h148v629h481zM512 1108v-371h113q117 0 170 51q51 51 51 136t-51 133q-53 51 -177 51h-106z" />
    <glyph glyph-name="uni20B6" unicode="&#x20cc;" horiz-adv-x="1228" 
d="M678 1366q230 0 358 -113q133 -118 133 -331q0 -203 -116 -306q-118 -108 -348 -108h-193v-129h369v-199h-369v-180h-315v180h-148v199h148v129h-148v229h148v629h481zM512 1108v-371h113q117 0 170 51q51 51 51 136t-51 133q-53 51 -177 51h-106z" />
    <glyph glyph-name="uni20B6" unicode="&#x20cb;" horiz-adv-x="1228" 
d="M678 1366q230 0 358 -113q133 -118 133 -331q0 -203 -116 -306q-118 -108 -348 -108h-193v-129h369v-199h-369v-180h-315v180h-148v199h148v129h-148v229h148v629h481zM512 1108v-371h113q117 0 170 51q51 51 51 136t-51 133q-53 51 -177 51h-106z" />
    <glyph glyph-name="uni20B6" unicode="&#x20ca;" horiz-adv-x="1228" 
d="M678 1366q230 0 358 -113q133 -118 133 -331q0 -203 -116 -306q-118 -108 -348 -108h-193v-129h369v-199h-369v-180h-315v180h-148v199h148v129h-148v229h148v629h481zM512 1108v-371h113q117 0 170 51q51 51 51 136t-51 133q-53 51 -177 51h-106z" />
    <glyph glyph-name="uni20B6" unicode="&#x20c9;" horiz-adv-x="1228" 
d="M678 1366q230 0 358 -113q133 -118 133 -331q0 -203 -116 -306q-118 -108 -348 -108h-193v-129h369v-199h-369v-180h-315v180h-148v199h148v129h-148v229h148v629h481zM512 1108v-371h113q117 0 170 51q51 51 51 136t-51 133q-53 51 -177 51h-106z" />
    <glyph glyph-name="uni20B6" unicode="&#x20c8;" horiz-adv-x="1228" 
d="M678 1366q230 0 358 -113q133 -118 133 -331q0 -203 -116 -306q-118 -108 -348 -108h-193v-129h369v-199h-369v-180h-315v180h-148v199h148v129h-148v229h148v629h481zM512 1108v-371h113q117 0 170 51q51 51 51 136t-51 133q-53 51 -177 51h-106z" />
    <glyph glyph-name="uni20B6" unicode="&#x20c7;" horiz-adv-x="1228" 
d="M678 1366q230 0 358 -113q133 -118 133 -331q0 -203 -116 -306q-118 -108 -348 -108h-193v-129h369v-199h-369v-180h-315v180h-148v199h148v129h-148v229h148v629h481zM512 1108v-371h113q117 0 170 51q51 51 51 136t-51 133q-53 51 -177 51h-106z" />
    <glyph glyph-name="uni20B6" unicode="&#x20c6;" horiz-adv-x="1228" 
d="M678 1366q230 0 358 -113q133 -118 133 -331q0 -203 -116 -306q-118 -108 -348 -108h-193v-129h369v-199h-369v-180h-315v180h-148v199h148v129h-148v229h148v629h481zM512 1108v-371h113q117 0 170 51q51 51 51 136t-51 133q-53 51 -177 51h-106z" />
    <glyph glyph-name="uni20B6" unicode="&#x20c5;" horiz-adv-x="1228" 
d="M678 1366q230 0 358 -113q133 -118 133 -331q0 -203 -116 -306q-118 -108 -348 -108h-193v-129h369v-199h-369v-180h-315v180h-148v199h148v129h-148v229h148v629h481zM512 1108v-371h113q117 0 170 51q51 51 51 136t-51 133q-53 51 -177 51h-106z" />
    <glyph glyph-name="uni20B6" unicode="&#x20c4;" horiz-adv-x="1228" 
d="M678 1366q230 0 358 -113q133 -118 133 -331q0 -203 -116 -306q-118 -108 -348 -108h-193v-129h369v-199h-369v-180h-315v180h-148v199h148v129h-148v229h148v629h481zM512 1108v-371h113q117 0 170 51q51 51 51 136t-51 133q-53 51 -177 51h-106z" />
    <glyph glyph-name="uni20B6" unicode="&#x20c3;" horiz-adv-x="1228" 
d="M678 1366q230 0 358 -113q133 -118 133 -331q0 -203 -116 -306q-118 -108 -348 -108h-193v-129h369v-199h-369v-180h-315v180h-148v199h148v129h-148v229h148v629h481zM512 1108v-371h113q117 0 170 51q51 51 51 136t-51 133q-53 51 -177 51h-106z" />
    <glyph glyph-name="uni20B6" unicode="&#x20c2;" horiz-adv-x="1228" 
d="M678 1366q230 0 358 -113q133 -118 133 -331q0 -203 -116 -306q-118 -108 -348 -108h-193v-129h369v-199h-369v-180h-315v180h-148v199h148v129h-148v229h148v629h481zM512 1108v-371h113q117 0 170 51q51 51 51 136t-51 133q-53 51 -177 51h-106z" />
    <glyph glyph-name="uni20B6" unicode="&#x20c1;" horiz-adv-x="1228" 
d="M678 1366q230 0 358 -113q133 -118 133 -331q0 -203 -116 -306q-118 -108 -348 -108h-193v-129h369v-199h-369v-180h-315v180h-148v199h148v129h-148v229h148v629h481zM512 1108v-371h113q117 0 170 51q51 51 51 136t-51 133q-53 51 -177 51h-106z" />
    <glyph glyph-name="uni20B6" unicode="&#x20c0;" horiz-adv-x="1228" 
d="M678 1366q230 0 358 -113q133 -118 133 -331q0 -203 -116 -306q-118 -108 -348 -108h-193v-129h369v-199h-369v-180h-315v180h-148v199h148v129h-148v229h148v629h481zM512 1108v-371h113q117 0 170 51q51 51 51 136t-51 133q-53 51 -177 51h-106z" />
    <glyph glyph-name="uni20B6" unicode="&#x20bf;" horiz-adv-x="1228" 
d="M678 1366q230 0 358 -113q133 -118 133 -331q0 -203 -116 -306q-118 -108 -348 -108h-193v-129h369v-199h-369v-180h-315v180h-148v199h148v129h-148v229h148v629h481zM512 1108v-371h113q117 0 170 51q51 51 51 136t-51 133q-53 51 -177 51h-106z" />
    <glyph glyph-name="uni20B6" unicode="&#x20be;" horiz-adv-x="1228" 
d="M678 1366q230 0 358 -113q133 -118 133 -331q0 -203 -116 -306q-118 -108 -348 -108h-193v-129h369v-199h-369v-180h-315v180h-148v199h148v129h-148v229h148v629h481zM512 1108v-371h113q117 0 170 51q51 51 51 136t-51 133q-53 51 -177 51h-106z" />
    <glyph glyph-name="uni20B6" unicode="&#x20bd;" horiz-adv-x="1228" 
d="M678 1366q230 0 358 -113q133 -118 133 -331q0 -203 -116 -306q-118 -108 -348 -108h-193v-129h369v-199h-369v-180h-315v180h-148v199h148v129h-148v229h148v629h481zM512 1108v-371h113q117 0 170 51q51 51 51 136t-51 133q-53 51 -177 51h-106z" />
    <glyph glyph-name="uni20B6" unicode="&#x20bc;" horiz-adv-x="1228" 
d="M678 1366q230 0 358 -113q133 -118 133 -331q0 -203 -116 -306q-118 -108 -348 -108h-193v-129h369v-199h-369v-180h-315v180h-148v199h148v129h-148v229h148v629h481zM512 1108v-371h113q117 0 170 51q51 51 51 136t-51 133q-53 51 -177 51h-106z" />
    <glyph glyph-name="uni20B6" unicode="&#x20bb;" horiz-adv-x="1228" 
d="M678 1366q230 0 358 -113q133 -118 133 -331q0 -203 -116 -306q-118 -108 -348 -108h-193v-129h369v-199h-369v-180h-315v180h-148v199h148v129h-148v229h148v629h481zM512 1108v-371h113q117 0 170 51q51 51 51 136t-51 133q-53 51 -177 51h-106z" />
    <glyph glyph-name="uni20B6" unicode="&#x20ba;" horiz-adv-x="1228" 
d="M678 1366q230 0 358 -113q133 -118 133 -331q0 -203 -116 -306q-118 -108 -348 -108h-193v-129h369v-199h-369v-180h-315v180h-148v199h148v129h-148v229h148v629h481zM512 1108v-371h113q117 0 170 51q51 51 51 136t-51 133q-53 51 -177 51h-106z" />
    <glyph glyph-name="uni20B6" unicode="&#x20b9;" horiz-adv-x="1228" 
d="M678 1366q230 0 358 -113q133 -118 133 -331q0 -203 -116 -306q-118 -108 -348 -108h-193v-129h369v-199h-369v-180h-315v180h-148v199h148v129h-148v229h148v629h481zM512 1108v-371h113q117 0 170 51q51 51 51 136t-51 133q-53 51 -177 51h-106z" />
    <glyph glyph-name="uni20B6" unicode="&#x20b7;" horiz-adv-x="1228" 
d="M678 1366q230 0 358 -113q133 -118 133 -331q0 -203 -116 -306q-118 -108 -348 -108h-193v-129h369v-199h-369v-180h-315v180h-148v199h148v129h-148v229h148v629h481zM512 1108v-371h113q117 0 170 51q51 51 51 136t-51 133q-53 51 -177 51h-106z" />
    <glyph glyph-name="uni20B8" unicode="&#x20b8;" horiz-adv-x="1228" 
d="M1069 854h-299v-854h-315v854h-295v246h909v-246zM1069 1182h-909v184h909v-184z" />
    <glyph glyph-name="afii61352" unicode="&#x2116;" horiz-adv-x="2357" 
d="M1612 399v185h614v-185h-614zM461 0h-311v1366h270l686 -877v877h311v-1366h-270l-686 881v-881zM2271 1040q0 -133 -90 -223q-98 -98 -262 -98t-262 98q-90 90 -90 223q0 138 90 228q98 98 262 98t262 -98q90 -90 90 -228zM1919 1194q-64 0 -107 -43q-40 -40 -40 -109
q0 -70 40 -110q41 -41 107 -41q65 0 106 41t41 110q0 68 -41 109q-43 43 -106 43z" />
    <glyph glyph-name="uni2117" unicode="&#x2117;" horiz-adv-x="1558" 
d="M514 1083h291q45 0 78 -3.5t81.5 -23t82.5 -55.5q67 -69 67 -182q0 -111 -63 -178q-44 -45 -105.5 -59.5t-138.5 -14.5h-72v-260h-221v776zM735 915v-180h31q72 0 102 25q29 23 29 67q0 43 -29 66q-13 11 -33 16t-32 5.5t-39 0.5h-29zM778 1270q-99 0 -207 -43.5
t-184 -116.5q-78 -76 -127 -190.5t-49 -235.5q0 -122 49 -237.5t127 -190.5q76 -73 184 -116.5t207 -43.5t207 43.5t184 116.5q78 75 127.5 190.5t49.5 237.5q0 120 -49.5 235t-127.5 191q-76 73 -184 116.5t-207 43.5zM1489 682q0 -145 -55 -277t-156 -233
q-95 -94 -223 -148.5t-277 -54.5t-276 54.5t-223 148.5q-101 101 -156 233t-55 277q0 148 55 279.5t156 232.5q96 94 223 148.5t276 54.5t277 -54.5t223 -148.5q101 -101 156 -232.5t55 -279.5z" />
    <glyph glyph-name="trademark" unicode="&#x2122;" horiz-adv-x="1568" 
d="M543 1198h-168v-610h-193v610h-166v168h527v-168zM768 588h-193l134 778h170l168 -428l180 428h168l121 -778h-193l-57 426l-179 -426h-81l-175 426z" />
    <glyph glyph-name="partialdiff" unicode="&#x2202;" horiz-adv-x="1148" 
d="M178 1161l35 225q175 -12 343.5 -71.5t287.5 -171.5q69 -64 117.5 -143.5t73 -159t34.5 -146.5t10 -131q0 -132 -40 -248.5t-115 -197.5q-134 -142 -359 -142q-216 0 -352 131q-143 140 -143 347q0 196 137 329q120 117 297 117q144 0 252 -82q-70 165 -217 246
q-70 39 -168 65.5t-193 32.5zM575 225q81 0 140 56q69 69 69 168q0 51 -19.5 95.5t-51.5 71.5q-56 50 -146 50q-85 0 -143 -52q-72 -66 -72 -165q0 -96 66 -162q62 -62 157 -62z" />
    <glyph glyph-name="product" unicode="&#x220f;" horiz-adv-x="1511" 
d="M82 1298v238h1348v-238h-168v-1572h168v-238h-599v238h164v1572h-479v-1572h164v-238h-598v238h168v1572h-168z" />
    <glyph glyph-name="summation" unicode="&#x2211;" horiz-adv-x="1376" 
d="M45 1536h1227v-506h-240l-26 268h-662l512 -751l-512 -821h680l16 274h250v-512h-1245v266l498 793l-498 723v266z" />
    <glyph glyph-name="minus" unicode="&#x2212;" 
d="M68 578v237h888v-237h-888z" />
    <glyph glyph-name="uni2215" unicode="&#x2215;" horiz-adv-x="1433" 
d="M31 -377l1079 1911l231 -41l-1079 -1911z" />
    <glyph glyph-name="uni2219" unicode="&#x2219;" horiz-adv-x="524" 
d="M41 684q0 94 63.5 157.5t157.5 63.5t157.5 -63.5t63.5 -157.5t-63.5 -157.5t-157.5 -63.5t-157.5 63.5t-63.5 157.5z" />
    <glyph glyph-name="radical" unicode="&#x221a;" horiz-adv-x="1368" 
d="M774 1694h594v-234h-369l-346 -1460h-340l-120 557h-193v234h406l22 -107q3 -14 9 -40t9.5 -42.5t8 -46t8.5 -63.5q12 -120 12 -179h23q15 195 34 305q25 155 60 297z" />
    <glyph glyph-name="infinity" unicode="&#x221e;" horiz-adv-x="1380" 
d="M967 801q-52 0 -93 -35q-34 -27 -61 -72q31 -41 51 -59q50 -45 103 -45t84 31q30 30 30 79q0 43 -30 70q-34 31 -84 31zM690 528q-50 -68 -129 -114q-92 -52 -194 -52q-131 0 -222 84q-104 100 -104 256q0 142 96 234q95 92 242 92q93 0 176 -49q73 -43 135 -115
q62 72 135 115q83 49 176 49q147 0 242 -92q96 -92 96 -234q0 -156 -104 -256q-87 -84 -221 -84q-92 0 -195 56q-77 42 -129 110zM414 801q-50 0 -84 -31q-31 -28 -31 -70q0 -48 31 -79t84 -31q49 0 102 45q36 33 51 59q-27 45 -61 72q-41 35 -92 35z" />
    <glyph glyph-name="integral" unicode="&#x222b;" horiz-adv-x="1038" 
d="M651 1143v-1206q0 -78 -4.5 -130t-27.5 -117.5t-66 -109.5q-30 -31 -65 -50.5t-73 -28t-66.5 -11t-65.5 -2.5q-90 0 -174 20l47 230q65 -21 112 -21q59 0 88 35q6 7 10.5 15t8 15.5t5.5 18t3 16.5t1.5 17.5t0.5 16.5v16.5v13.5v1172q0 134 19 232t79 161q85 90 265 90
q90 0 182 -20l-49 -230q-54 21 -105 21q-59 0 -90 -31q-35 -35 -35 -133z" />
    <glyph glyph-name="approxequal" unicode="&#x2248;" 
d="M526 348l-84 31q-96 35 -133 35q-57 0 -94 -37q-32 -29 -59 -90l-144 90q19 54 51.5 112t67.5 93q77 80 193 80q13 0 25.5 -1t25.5 -3.5t22 -4.5t24 -6.5t21 -6.5t24 -8.5t23 -8.5l89 -33q96 -33 135 -33q47 0 84 27q36 26 65 82l148 -84q-44 -110 -119 -189
q-81 -84 -197 -84q-10 0 -20 0.5t-20.5 2t-18 3t-19 4.5t-17 4.5t-19 6t-17 5.5t-19 6.5t-18.5 6.5zM526 760l-84 31q-93 34 -133 34q-57 0 -94 -37q-32 -29 -59 -90l-144 90q52 138 119 205q80 80 193 80q9 0 18.5 -0.5t17 -1.5t18 -3t16 -3t16.5 -4t15 -4.5t16.5 -5.5
t15 -5t16.5 -6t16 -6l89 -33q93 -32 135 -32q48 0 84 26t65 82l148 -84q-20 -50 -53 -101.5t-66 -86.5q-81 -84 -197 -84q-10 0 -20 0.5t-20.5 2t-18 3t-19 4.5t-17 4.5t-19 6t-17 5.5t-19 6.5t-18.5 6.5z" />
    <glyph glyph-name="notequal" unicode="&#x2260;" 
d="M68 750v225h475l106 217h203l-104 -217h206v-225h-313l-68 -144h381v-225h-485l-104 -213h-203l102 213h-196v225h301l69 144h-370z" />
    <glyph glyph-name="lessequal" unicode="&#x2264;" 
d="M68 938l888 424v-240l-624 -293l624 -278v-242l-888 414v215zM68 250h888v-234h-888v234z" />
    <glyph glyph-name="greaterequal" unicode="&#x2265;" 
d="M956 938v-215l-888 -414v242l624 278l-624 293v240zM956 250v-234h-888v234h888z" />
    <glyph glyph-name="dotmath" unicode="&#x22c5;" horiz-adv-x="524" 
d="M41 684q0 94 63.5 157.5t157.5 63.5t157.5 -63.5t63.5 -157.5t-63.5 -157.5t-157.5 -63.5t-157.5 63.5t-63.5 157.5z" />
    <glyph glyph-name="lozenge" unicode="&#x25ca;" horiz-adv-x="1433" 
d="M184 684l533 737l532 -737l-532 -737zM948 684l-231 317l-232 -317l232 -317z" />
    <glyph glyph-name="openbullet" unicode="&#x25e6;" horiz-adv-x="1028" 
d="M358 1055q0 -62 46 -107t110 -45t110 45t46 107t-46 106.5t-110 44.5t-110 -44.5t-46 -106.5zM199 1055q0 131 91 221t224 90t224 -90t91 -221t-91 -221.5t-224 -90.5t-224 90.5t-91 221.5z" />
    <glyph glyph-name="uniF400" unicode="&#xf400;" horiz-adv-x="4" 
d="M-414 1464l193 -133l-311 -276l-134 98z" />
    <glyph glyph-name="uniF401" unicode="&#xf401;" horiz-adv-x="4" 
d="M-451 1894l195 -147l-336 -264l-133 108z" />
    <glyph glyph-name="uniF406" unicode="&#xf406;" 
d="M668 1790h196q-15 -136 -94 -215q-90 -90 -258 -90t-258 90q-79 79 -94 215h196q6 -49 39 -86q40 -43 117 -43t117 43q33 37 39 86z" />
    <glyph glyph-name="uniF407" unicode="&#xf407;" 
d="M528 -94l205 -90l-229 -299l-164 82z" />
    <glyph glyph-name="uniF408" unicode="&#xf408;" 
d="M256 1487l-131 145l385 287l387 -287l-135 -145l-252 190z" />
    <glyph glyph-name="uniF409" unicode="&#xf409;" 
d="M246 -508l114 406l275 -33l-201 -397z" />
    <glyph glyph-name="uniF40A" unicode="&#xf40a;" 
d="M246 967l143 426l266 -62l-229 -405z" />
    <glyph glyph-name="uniF40B" unicode="&#xf40b;" 
d="M338 1669q0 73 50 123.5t124 50.5t124 -50.5t50 -123.5t-50 -123.5t-124 -50.5t-124 50.5t-50 123.5z" />
    <glyph glyph-name="uniF40C" unicode="&#xf40c;" 
d="M750 1694q0 -79 -56 -135q-69 -66 -182 -66t-182 66q-56 56 -56 135t56 135q68 65 182 65t182 -65q56 -56 56 -135zM512 1774q-45 0 -70 -25q-24 -24 -24 -55q0 -32 24 -56t70 -24t70 24t24 56q0 31 -24 55q-25 25 -70 25z" />
    <glyph glyph-name="uniF40D" unicode="&#xf40d;" 
d="M745 1776l146 -103q-34 -67 -86 -119q-63 -63 -146 -63q-45 0 -127 33l-83 32q-63 23 -76 23q-62 0 -94 -80l-146 103q34 75 76 120q59 62 149 62q50 0 123 -29l82 -33q4 -1 22.5 -9t32.5 -11.5t29 -3.5q66 0 98 78z" />
    <glyph glyph-name="uniF40E" unicode="&#xf40e;" 
d="M770 -195l-37 -157q-59 -35 -135 -35q-90 0 -139 49q-47 47 -47 115q0 63 43 125q35 49 88 98h135q-43 -43 -55 -57q-39 -45 -39 -90q0 -37 24 -58q23 -20 60 -20q47 0 102 30z" />
    <glyph glyph-name="uniF4C6" unicode="&#xf4c6;" horiz-adv-x="1323" 
d="M858 1366h316v-1507q0 -49 -3.5 -84t-23 -84.5t-55.5 -83.5q-48 -47 -113 -61.5t-150 -14.5q-98 0 -172 20v238q31 -16 78 -16q66 0 94 30q29 31 29 117v625q-126 -21 -231 -21q-295 0 -424 121q-64 61 -84.5 134t-20.5 167v420h316v-356q0 -33 1.5 -52.5t15.5 -55.5
t42 -58q56 -45 199 -45q98 0 186 16v551z" />
    <glyph glyph-name="uniF4C7" unicode="&#xf4c7;" horiz-adv-x="1060" 
d="M651 913h295v-1015q0 -201 -76 -281q-81 -86 -258 -86q-73 0 -163 20v234q42 -12 75 -12q60 0 92 32q16 16 24.5 45t9.5 49.5t1 55.5v352q-91 -22 -184 -22q-208 0 -301 88q-84 80 -84 235v305h291v-264q0 -67 37 -100q36 -31 118 -31q67 0 123 19v376z" />
    <glyph glyph-name="uniF4CC" unicode="&#xf4cc;" horiz-adv-x="1273" 
d="M8 1366h352l287 -631l275 631h340l-625 -1366h-340l199 393zM768 1894l195 -147l-336 -264l-133 108z" />
    <glyph glyph-name="uniF4CD" unicode="&#xf4cd;" horiz-adv-x="1198" 
d="M119 -469l321 586l-436 796h340l258 -495l252 495h332l-735 -1382h-332zM725 1464l193 -133l-312 -276l-133 98z" />
    <glyph glyph-name="dollar.fitted" unicode="&#xf5f5;" horiz-adv-x="1038" 
d="M457 1587h184v-207q168 -11 311 -131l-137 -219q-106 96 -223 96q-87 0 -129 -39q-41 -36 -41 -86q0 -48 39 -79q15 -13 34.5 -23t54 -24t48.5 -21l115 -49q135 -60 192 -117q96 -99 96 -252q0 -186 -112 -305q-97 -103 -248 -127v-233h-184v225q-130 6 -246 67
q-106 56 -184 140l151 225q65 -65 133 -106q90 -56 191 -56q87 0 137 43q49 42 49 105q0 68 -61 110q-12 8 -27.5 16t-26.5 12.5t-41 15.5t-47 18l-71 28q-137 55 -207 125q-92 96 -92 226q0 90 30.5 169t85.5 134q90 90 226 112v207z" />
    <glyph glyph-name="Euro.fitted" unicode="&#xf5f6;" horiz-adv-x="1306" 
d="M1196 371v-314q-143 -88 -360 -88q-121 0 -231 30.5t-187 90.5t-130.5 151t-72.5 195h-178l74 185h82q-3 55 0 116h-156l74 185h104q42 170 160 288q187 187 516 187q185 0 346 -80l-111 -264q-111 67 -254 67q-125 0 -213 -55q-80 -53 -108 -143h541l-74 -185h-498
q-8 -54 2 -116h457l-74 -185h-348q31 -95 115 -143q79 -47 205 -47q200 0 319 125z" />
    <glyph glyph-name="cent.fitted" unicode="&#xf5f7;" horiz-adv-x="798" 
d="M428 1352h184v-193q71 -6 129 -39v-272q-72 78 -176 78q-44 0 -89.5 -17.5t-78.5 -48.5q-69 -66 -69 -176q0 -111 69 -176q30 -27 75 -42t89 -15q112 0 180 75v-274q-67 -30 -129 -35v-190h-184v182q-155 20 -266 129q-137 134 -137 336q0 219 141 360q105 105 262 133
v185z" />
    <glyph glyph-name="sterling.fitted" unicode="&#xf5f8;" horiz-adv-x="1245" 
d="M319 508h-229v188h139q-61 104 -61 234q0 197 129 323q145 142 385 142q232 0 358 -123q61 -59 94 -149t33 -189q0 -33 -2 -49h-313q0 141 -51 194q-54 54 -133 54q-78 0 -129 -48q-66 -62 -66 -163q0 -86 68 -226h305v-188h-256q16 -58 16 -96q0 -51 -20 -121l119 -39
q112 -37 169 -37q53 0 80 29q23 23 31 69l201 -24q-8 -63 -35.5 -129t-65.5 -107q-80 -84 -211 -84q-94 0 -235 47l-80 27q-89 29 -156 29t-100 -27q-27 -20 -39 -55l-213 18q14 59 44 118.5t67 96.5q72 72 170 88q16 54 16 95q0 53 -29 102z" />
    <glyph glyph-name="yen.fitted" unicode="&#xf5f9;" horiz-adv-x="1267" 
d="M432 711h-287v198h168l-274 457h356l240 -434l233 434h361l-283 -457h176v-198h-299l-47 -72v-57h346v-199h-346v-383h-299v383h-332v199h332v57z" />
    <glyph glyph-name="florin.fitted" unicode="&#xf5fa;" horiz-adv-x="1177" 
d="M410 242l88 487h-140l31 184h141l41 236q13 73 45.5 146t77.5 120q96 101 262 101q116 0 203 -41l-47 -252q-52 34 -119 34q-55 0 -88 -30q-43 -40 -61 -156l-27 -158h209l-33 -184h-209l-98 -549q-10 -51 -16.5 -83t-22.5 -89.5t-33.5 -98.5t-46 -87.5t-63.5 -79.5
q-127 -119 -361 -119q-57 0 -125 15l48 262q42 -11 84 -11q106 0 157 58q63 70 103 295z" />
    <glyph glyph-name="uni20B4.fitted" unicode="&#xf5fb;" horiz-adv-x="1161" 
d="M162 1262q72 48 186 90q131 45 287 45q91 0 165 -18t134 -76q90 -86 90 -209q0 -95 -61 -168h151v-199h-293l-143 -129h436v-199h-622q-37 -26 -37 -65q0 -42 49 -66q44 -20 108 -20q114 0 185 28q36 13 118 64l150 -225q-86 -64 -201 -103q-133 -43 -311 -43
q-180 0 -287 74q-108 76 -108 203q0 86 51 153h-166v199h317l144 129h-461v199h614q43 40 43 98q0 50 -36 78q-34 28 -105 28q-82 0 -160 -38q-51 -23 -96 -60z" />
    <glyph glyph-name="uni20B6.fitted" unicode="&#xf5fc;" horiz-adv-x="1200" 
d="M678 1366q230 0 358 -113q133 -118 133 -331q0 -203 -116 -306q-118 -108 -348 -108h-193v-129h369v-199h-369v-180h-315v180h-148v199h148v129h-148v229h148v629h481zM512 1108v-371h113q117 0 170 51q51 51 51 136t-51 133q-53 51 -177 51h-106z" />
    <glyph glyph-name="uni20B8.fitted" unicode="&#xf5fd;" horiz-adv-x="970" 
d="M940 854h-299v-854h-315v854h-295v246h909v-246zM940 1182h-909v184h909v-184z" />
    <glyph glyph-name="numbersign.fitted" unicode="&#xf5ff;" horiz-adv-x="1292" 
d="M985 604h209l-35 -227h-209l-61 -377h-262l61 377h-182l-62 -377h-262l62 377h-207l37 227h205l30 189h-205l35 225h205l57 348h263l-58 -348h182l58 348h262l-57 -348h206l-34 -225h-207zM723 604l31 189h-183l-30 -189h182z" />
    <glyph glyph-name="uniF639" unicode="&#xf639;" horiz-adv-x="1241" 
d="M1182 682q0 -179 -49.5 -327t-147.5 -244q-146 -142 -367 -142q-216 0 -362 142q-98 96 -147.5 244t-49.5 327q0 181 49.5 329.5t147.5 243.5q146 142 362 142q221 0 367 -142q98 -95 147.5 -243.5t49.5 -329.5zM621 1126q-73 0 -127 -51q-46 -45 -73.5 -125t-34.5 -142
t-7 -124q0 -107 25.5 -218.5t89.5 -174.5q54 -51 127 -51t127 51q44 43 71.5 121t35 142.5t7.5 129.5q0 63 -6.5 124t-34 141.5t-73.5 125.5q-54 51 -127 51z" />
    <glyph glyph-name="uniF63A" unicode="&#xf63a;" horiz-adv-x="1163" 
d="M1094 266v-266h-1045l410 446q149 166 223 279q82 130 82 231q0 86 -53 136q-41 38 -125 38q-79 0 -125 -49q-27 -29 -42.5 -77.5t-15.5 -90.5h-315q8 94 44.5 186.5t96.5 155.5q134 142 377 142q221 0 355 -129q126 -126 126 -328q0 -87 -25 -158t-77 -143
q-62 -86 -219 -236l-143 -137h471z" />
    <glyph glyph-name="uniF63B" unicode="&#xf63b;" horiz-adv-x="1155" 
d="M393 956h-303q9 87 45.5 171t89.5 139q124 129 346 129q238 0 359 -121q104 -100 104 -279q0 -111 -55 -186q-41 -58 -102 -86q100 -35 155 -111q30 -40 47 -99t17 -116q0 -83 -34.5 -165.5t-103.5 -145.5q-79 -72 -167.5 -95.5t-192.5 -23.5q-118 0 -217 29.5
t-182 112.5q-131 135 -152 337h315q3 -41 21 -83.5t45 -69.5q55 -55 152 -55q87 0 137 47q55 52 55 139q0 83 -59 131q-54 43 -168 43h-25v217h19q90 0 137 39q51 44 51 123q0 68 -45 110q-45 41 -117 41q-78 0 -123 -45q-45 -48 -49 -127z" />
    <glyph glyph-name="uniF63C" unicode="&#xf63c;" horiz-adv-x="1204" 
d="M989 1366v-858h164v-250h-164v-258h-303v258h-668v180l603 928h368zM350 508h336v530z" />
    <glyph glyph-name="uniF63D" unicode="&#xf63d;" horiz-adv-x="1116" 
d="M969 1366v-266h-461l-37 -182q58 10 113 10q218 0 348 -133q125 -125 125 -330q0 -213 -139 -352q-85 -84 -187.5 -114t-226.5 -30q-120 0 -229.5 30t-225.5 120l72 293q64 -71 131 -113q91 -59 207 -59q125 0 194 55q80 61 80 172q0 99 -69 160q-81 71 -228 71
q-148 0 -278 -71l139 739h672z" />
    <glyph glyph-name="uniF63E" unicode="&#xf63e;" horiz-adv-x="1200" 
d="M578 1397l337 -35l-360 -449q67 23 143 23q211 0 338 -131q119 -124 119 -316q0 -103 -32.5 -199.5t-96.5 -166.5q-143 -154 -420 -154q-58 0 -105.5 5t-109.5 19.5t-120.5 49t-106.5 86.5q-119 127 -119 332q0 78 16.5 149.5t50.5 138.5t67 117.5t85 118.5zM596 227
q97 0 164 62q71 67 71 180q0 104 -71 168q-65 57 -164 57q-104 0 -166 -59q-70 -65 -70 -174q0 -105 70 -170q67 -64 166 -64z" />
    <glyph glyph-name="uniF63F" unicode="&#xf63f;" horiz-adv-x="1183" 
d="M72 41l618 1059h-602v266h1086l-809 -1397z" />
    <glyph glyph-name="uniF640" unicode="&#xf640;" horiz-adv-x="1128" 
d="M561 -31q-77 0 -127.5 5t-119.5 32t-126 78q-131 118 -131 297q0 135 93 233q70 73 169 103q-71 28 -124 84q-84 87 -84 217q0 154 100 254q123 125 354 125q227 0 350 -125q101 -101 101 -254q0 -130 -84 -217q-53 -55 -125 -84q101 -31 170 -103q92 -96 92 -233
q0 -179 -131 -297q-81 -73 -168 -94t-209 -21zM563 1163q-71 0 -121 -45q-51 -48 -51 -117t51 -116q52 -45 121 -45q71 0 119 45q51 48 51 116t-51 119q-50 43 -119 43zM559 590q-80 0 -129 -49q-24 -24 -38.5 -61.5t-14.5 -73.5q0 -88 53 -138q52 -49 133 -49t133 49
q54 51 54 140q0 82 -54 133q-49 49 -137 49z" />
    <glyph glyph-name="uniF641" unicode="&#xf641;" horiz-adv-x="1202" 
d="M625 -31l-338 35l360 447q-71 -21 -137 -21q-107 0 -196 34t-148 93q-119 119 -119 330q0 217 133 356q147 154 428 154q261 0 410 -137q59 -55 99 -142.5t40 -204.5q0 -141 -61 -278q-49 -105 -160 -254zM606 1139q-99 0 -164 -62q-71 -66 -71 -172q0 -114 69 -176
q63 -57 166 -57q100 0 166 59q70 66 70 180q0 99 -70 166q-66 62 -166 62z" />
    <glyph glyph-name="uniF6BA" unicode="&#xf6ba;" horiz-adv-x="729" 
d="M102 569v258h525v-258h-525z" />
    <glyph glyph-name="uniF6BB" unicode="&#xf6bb;" horiz-adv-x="1243" 
d="M143 578v241h957v-241h-957z" />
    <glyph glyph-name="uniF6BC" unicode="&#xf6bc;" horiz-adv-x="1789" 
d="M143 578v241h1504v-241h-1504z" />
    <glyph glyph-name="uniF6C3" unicode="&#xf6c3;" 
d="M287 -487l114 385l275 -33l-201 -377z" />
    <glyph glyph-name="uniF6C9" unicode="&#xf6c9;" 
d="M625 1894l194 -147l-336 -264l-133 108z" />
    <glyph glyph-name="uniF6CA" unicode="&#xf6ca;" 
d="M510 1729l252 190l135 -143l-387 -289l-385 289l131 143z" />
    <glyph glyph-name="uniF6CB" unicode="&#xf6cb;" 
d="M127 1661q0 66 48 114t114 48t114 -48t48 -114t-48 -114t-114 -48t-114 48t-48 114zM573 1661q0 66 48 114t114 48t114 -48t48 -114t-48 -114t-114 -48t-114 48t-48 114z" />
    <glyph glyph-name="uniF6CE" unicode="&#xf6ce;" 
d="M543 1483l-336 264l196 147l273 -303z" />
    <glyph glyph-name="uniF6CF" unicode="&#xf6cf;" 
d="M422 1894l176 -135l-287 -276l-112 98zM803 1894l178 -135l-287 -276l-114 98z" />
    <glyph glyph-name="uniF6D0" unicode="&#xf6d0;" 
d="M115 1542v189h794v-189h-794z" />
    <glyph glyph-name="uniF6D1" unicode="&#xf6d1;" 
d="M700 1817l218 -93q-49 -116 -156 -184q-95 -57 -252 -57q-155 0 -250 57q-107 68 -156 184l218 93q26 -69 67 -99q47 -35 125 -35q75 0 121 35q46 37 65 99z" />
    <glyph glyph-name="uniF6D4" unicode="&#xf6d4;" 
d="M678 1362l205 -80q-38 -114 -131 -174q-87 -57 -240 -57t-240 57q-93 60 -131 174l205 80q12 -61 53 -94q43 -37 113 -37t113 37q41 33 53 94z" />
    <glyph glyph-name="uniF6DC" unicode="&#xf6dc;" horiz-adv-x="630" 
d="M231 0v1100h-194v266h510v-1366h-316z" />
    <glyph glyph-name="uniF6DE" unicode="&#xf6de;" horiz-adv-x="1341" 
d="M106 397v242h1129v-242h-1129z" />
    <glyph glyph-name="nbspace" horiz-adv-x="477" 
 />
    <glyph glyph-name="hyphenminus" horiz-adv-x="729" 
d="M102 389v258h525v-258h-525z" />
    <glyph glyph-name="dotlessi1" horiz-adv-x="565" 
d="M135 913h295v-913h-295v913z" />
    </font>
</defs>
</svg>
